<svg width="294" height="121" viewBox="0 0 294 121" fill="none" xmlns="http://www.w3.org/2000/svg">
<path d="M112.397 1.19514C112.541 3.31968 112.509 5.45972 112.302 7.56875C112.27 7.83238 112.254 8.09601 112.206 8.34413C112.19 8.46819 112.174 8.59225 112.158 8.71631C112.142 8.9024 112.206 8.42167 112.158 8.70081C112.142 8.77835 112.142 8.87139 112.126 8.94893C112.047 9.47618 111.951 10.0034 111.856 10.5307C111.648 11.5852 111.377 12.6397 111.059 13.6632C110.899 14.144 110.74 14.6247 110.565 15.1054C110.469 15.338 110.389 15.5706 110.278 15.8033C110.262 15.8498 110.198 15.9273 110.198 15.9894C110.198 15.8343 110.294 15.7878 110.23 15.8963C110.166 16.0204 110.118 16.1444 110.055 16.2685C109.672 17.0904 109.21 17.8813 108.7 18.6256C108.588 18.7962 108.461 18.9668 108.333 19.1374C108.269 19.2304 108.19 19.3235 108.126 19.4165C108.094 19.4475 108.062 19.4941 108.046 19.5251C108.206 19.2459 108.11 19.4475 108.062 19.5096C107.775 19.8662 107.457 20.2229 107.138 20.5641C106.819 20.8897 106.5 21.1999 106.15 21.51C105.99 21.6496 105.815 21.7892 105.64 21.9287C105.56 21.9908 105.48 22.0528 105.401 22.1148C105.273 22.2079 105.64 21.9287 105.448 22.0838C105.385 22.1303 105.337 22.1614 105.273 22.2079C104.859 22.5025 104.428 22.7817 103.982 23.0298C103.536 23.2779 103.074 23.464 102.612 23.6966C102.627 23.6811 102.882 23.5881 102.707 23.6501C102.643 23.6811 102.58 23.6966 102.516 23.7276C102.388 23.7742 102.261 23.8207 102.117 23.8672C101.878 23.9447 101.639 24.0223 101.384 24.0843C100.89 24.2239 100.38 24.3169 99.8702 24.3789C99.5993 24.41 99.2805 24.6891 99.153 24.9062C99.0255 25.1388 98.9777 25.3869 99.0096 25.6506C99.0893 26.2088 99.5833 26.6586 100.189 26.6586C101.352 26.643 102.516 26.643 103.679 26.7206C103.95 26.7361 104.205 26.7671 104.476 26.7981C104.492 26.7981 104.779 26.8446 104.588 26.8136C104.381 26.7826 104.667 26.8291 104.699 26.8291C104.843 26.8447 104.986 26.8757 105.13 26.9067C105.703 27.0152 106.261 27.1548 106.803 27.3254C106.899 27.3564 107.01 27.4029 107.106 27.4339C107.154 27.4494 107.218 27.4805 107.265 27.496C107.361 27.527 107.457 27.62 107.202 27.465C107.393 27.589 107.632 27.6511 107.839 27.7596C108.238 27.9612 108.62 28.1783 108.971 28.4264C109.066 28.4884 109.162 28.5505 109.258 28.628C109.289 28.659 109.337 28.6901 109.369 28.7056C109.529 28.8141 109.305 28.659 109.29 28.6435C109.449 28.7986 109.656 28.9382 109.831 29.0777C110.182 29.3879 110.517 29.698 110.835 30.0392C110.979 30.1943 111.122 30.3494 111.25 30.5044C111.314 30.582 111.377 30.6595 111.457 30.7526C111.553 30.8766 111.282 30.5199 111.425 30.706C111.473 30.7681 111.505 30.8146 111.553 30.8766C111.824 31.2333 112.063 31.6055 112.302 31.9777C112.541 32.3653 112.764 32.7685 112.971 33.1717C113.067 33.3733 113.162 33.5749 113.258 33.7765C113.274 33.823 113.29 33.8696 113.322 33.9006C113.194 33.6059 113.274 33.7765 113.306 33.8541C113.354 33.9781 113.402 34.0867 113.449 34.2107C113.816 35.1412 114.087 36.0872 114.294 37.0486C114.358 37.3278 114.406 37.5914 114.453 37.8705C114.469 37.9791 114.485 38.1031 114.517 38.2117C114.533 38.3047 114.549 38.3823 114.549 38.4753C114.549 38.4288 114.533 38.3823 114.533 38.3358C114.533 38.3978 114.549 38.4443 114.549 38.5063C114.613 39.0646 114.677 39.6074 114.708 40.1657C114.884 42.7244 114.724 45.2987 114.549 47.8419C114.517 48.4157 115.027 48.9119 115.585 48.9894C116.175 49.067 116.717 48.7103 116.892 48.152C118.151 44.2596 118.31 40.1501 119.251 36.1957C119.458 35.3118 119.697 34.4278 120.016 33.5594C120.079 33.3733 120.159 33.1872 120.223 33.0167C120.255 32.9236 120.319 32.8306 120.35 32.722C120.35 32.7375 120.239 32.9856 120.318 32.8151C120.334 32.7685 120.366 32.7065 120.382 32.66C120.558 32.2878 120.733 31.9311 120.924 31.5745C121.307 30.8611 121.753 30.1788 122.247 29.543C122.279 29.512 122.311 29.4654 122.327 29.4344C122.167 29.667 122.215 29.574 122.263 29.5119C122.327 29.4344 122.39 29.3569 122.454 29.2793C122.582 29.1243 122.725 28.9692 122.869 28.8141C123.14 28.5195 123.426 28.2403 123.713 27.9922C123.889 27.8371 124.048 27.6976 124.239 27.558C124.271 27.527 124.303 27.5115 124.351 27.4805C124.064 27.6976 124.271 27.5425 124.319 27.496C124.415 27.4339 124.494 27.3719 124.59 27.3099C124.941 27.0773 125.307 26.8602 125.69 26.6741C125.785 26.6276 125.897 26.581 125.992 26.5345C126.04 26.519 126.072 26.5035 126.12 26.488C126.343 26.3949 125.881 26.581 126.088 26.5035C126.295 26.4259 126.502 26.3484 126.726 26.2864C126.949 26.2244 127.156 26.1623 127.379 26.1158C127.475 26.1003 127.586 26.0693 127.682 26.0538C127.777 26.0383 128.224 25.9762 127.809 26.0227C128.128 25.9762 128.431 25.9297 128.654 25.6816C128.829 25.4955 128.941 25.2784 128.989 25.0148C129.068 24.4875 128.718 23.8517 128.128 23.7431C127.666 23.6501 127.204 23.5415 126.742 23.402C126.534 23.3399 126.343 23.2624 126.136 23.2004C126.024 23.1539 125.913 23.1073 125.801 23.0763C126.168 23.2159 125.753 23.0453 125.658 23.0143C124.813 22.6266 124 22.1614 123.251 21.6186C123.219 21.5876 123.171 21.5566 123.14 21.5411C122.98 21.417 123.203 21.5876 123.219 21.6031C123.14 21.5256 123.028 21.4635 122.932 21.386C122.741 21.2309 122.566 21.0914 122.39 20.9363C122.04 20.6261 121.689 20.3005 121.37 19.9438C121.052 19.6026 120.749 19.2614 120.446 18.9048C120.414 18.8582 120.382 18.8117 120.334 18.7652C120.35 18.7807 120.51 18.9823 120.382 18.8272C120.303 18.7342 120.239 18.6412 120.159 18.5481C120.016 18.362 119.872 18.1604 119.745 17.9743C119.219 17.2144 118.757 16.4081 118.342 15.5862C118.247 15.3846 118.151 15.1985 118.055 14.9969C118.023 14.9504 118.008 14.8883 117.992 14.8418C117.912 14.6712 118.023 14.9038 118.023 14.9193C117.976 14.7798 117.912 14.6557 117.864 14.5316C117.689 14.1129 117.529 13.6787 117.37 13.2445C116.701 11.3371 116.207 9.36763 115.808 7.38266C115.585 6.28163 115.378 5.16508 115.202 4.04854C115.123 3.52128 115.043 3.00954 114.963 2.48228C114.932 2.21865 114.884 1.97053 114.852 1.7069C114.836 1.61386 114.772 1.17964 114.836 1.56733C114.82 1.42776 114.804 1.3037 114.788 1.16414C114.74 0.838478 114.676 0.574841 114.437 0.342228C114.23 0.14063 113.896 -0.0144382 113.593 0.00106933C113.29 0.0165769 112.955 0.109615 112.748 0.342228C112.541 0.590349 112.35 0.9005 112.397 1.19514C112.955 5.27363 113.593 9.39864 114.884 13.322C116.127 17.0594 118.151 20.6261 121.323 23.1228C123.124 24.534 125.196 25.6195 127.475 26.0382C127.586 25.2784 127.682 24.5185 127.793 23.7586C126.805 23.8827 125.897 24.1308 124.972 24.5185C124.16 24.8597 123.41 25.3249 122.709 25.8677C121.339 26.9067 120.207 28.2558 119.314 29.698C118.374 31.2023 117.689 32.8616 117.227 34.5674C116.669 36.5834 116.35 38.6614 116.031 40.7239C115.681 43.0501 115.314 45.3762 114.581 47.6248C115.362 47.7333 116.143 47.8264 116.924 47.9349C117.227 43.3447 117.498 38.5374 115.904 34.1177C114.581 30.4269 111.983 26.9687 108.206 25.4179C105.672 24.3789 102.898 24.3479 100.189 24.3789C100.301 25.1388 100.396 25.8987 100.508 26.6586C104.524 26.1158 107.951 23.5881 110.294 20.4866C112.891 17.0439 114.023 12.7173 114.565 8.53023C114.884 6.09554 114.947 3.64533 114.772 1.21065C114.724 0.605853 114.246 0.0165655 113.577 0.0475807C112.971 0.0630882 112.35 0.543826 112.397 1.19514Z" fill="#212121"/>
<path d="M5.87531 76.2045C6.08155 77.1173 6.26353 78.0424 6.42125 78.9675C6.50617 79.4178 6.579 79.8682 6.63966 80.3185C6.67606 80.5498 6.71243 80.7689 6.73669 81.0001C6.74882 81.0975 6.76093 81.2071 6.77307 81.3044C6.79733 81.4748 6.77307 81.3166 6.77307 81.2923C6.7852 81.3653 6.79735 81.4383 6.79735 81.5235C7.03999 83.3615 7.18555 85.1994 7.25835 87.0495C7.29474 87.8407 7.29479 88.6197 7.24626 89.4109C7.23413 89.5935 7.22195 89.776 7.19769 89.9586C7.18555 90.056 7.17345 90.1533 7.16131 90.2507C7.14918 90.3481 7.18558 90.4211 7.16131 90.2264C7.17345 90.2872 7.13703 90.3603 7.13703 90.4211C7.07637 90.7985 7.00357 91.1636 6.89439 91.5288C6.84586 91.7113 6.78521 91.8817 6.72455 92.0643C6.70028 92.1374 6.65179 92.2226 6.63966 92.2956C6.68819 92.113 6.68815 92.1982 6.66389 92.2469C6.63963 92.3078 6.61535 92.3564 6.59109 92.4173C6.42124 92.7703 6.22714 93.0989 5.99663 93.4154C5.93597 93.4884 5.88745 93.5736 5.82679 93.6467C5.83892 93.6223 5.94814 93.4884 5.85108 93.6101C5.82682 93.6467 5.80253 93.6832 5.76613 93.7075C5.64481 93.8657 5.51134 94.024 5.37788 94.1822C5.12311 94.4743 4.84411 94.7665 4.56508 95.0464C4.26178 95.3507 3.94631 95.6307 3.61874 95.9106C3.4489 96.0567 3.27907 96.2027 3.09709 96.3366C3.0607 96.3731 3.01217 96.4097 2.97577 96.434C2.95151 96.4462 2.80592 96.5679 2.91511 96.4827C3.03643 96.3975 2.86658 96.5192 2.85445 96.5314C2.80592 96.5679 2.74529 96.6044 2.69676 96.6531C1.96884 97.1887 1.21665 97.6877 0.452338 98.1624C0.124774 98.3693 -0.0936496 98.8075 0.0398024 99.197C0.161122 99.5622 0.512974 99.8908 0.91333 99.8664C1.67765 99.8178 2.44196 99.7813 3.21841 99.8178C3.72796 99.8421 4.2375 99.8908 4.73491 99.9517C5.01395 99.976 5.28083 100 5.55986 100.025C5.64479 100.025 5.72972 100.037 5.81465 100.049C5.83891 100.049 5.85104 100.049 5.87531 100.061C5.97236 100.073 5.94809 100.073 5.8025 100.049C5.82677 100.061 5.88748 100.061 5.91174 100.061C6.10585 100.098 6.29994 100.134 6.49405 100.195C6.6639 100.244 6.83376 100.305 6.99148 100.366C7.04 100.378 7.07641 100.402 7.12494 100.414C7.24626 100.463 6.90653 100.317 7.08851 100.402C7.18557 100.451 7.27052 100.487 7.36758 100.536C7.70728 100.706 8.0227 100.901 8.326 101.12C8.36239 101.144 8.39878 101.181 8.43517 101.205C8.56863 101.303 8.39879 101.181 8.38666 101.169C8.42305 101.23 8.55648 101.303 8.60501 101.351C8.76273 101.485 8.90833 101.619 9.05392 101.753C9.33295 102.021 9.612 102.313 9.85464 102.605C9.97596 102.751 10.0973 102.897 10.2065 103.043C10.0851 102.873 10.3399 103.214 10.2065 103.043C10.2307 103.08 10.255 103.104 10.2793 103.141C10.3521 103.238 10.4248 103.335 10.4855 103.433C10.716 103.761 10.9343 104.09 11.1406 104.431C11.5895 105.173 12.002 105.952 12.3781 106.731C12.5843 107.157 12.7906 107.596 12.9847 108.022C13.0332 108.119 13.0696 108.216 13.1181 108.314C13.1424 108.362 13.1667 108.423 13.1909 108.472C13.2516 108.63 13.1909 108.484 13.1788 108.448C13.288 108.691 13.3729 108.934 13.47 109.178C14.2585 111.174 14.8651 113.231 15.2898 115.337C15.3747 115.787 15.8721 116.043 16.2846 115.994C16.7699 115.933 17.0247 115.556 17.0732 115.093C17.4978 111.43 16.5757 107.79 16.7941 104.114C16.8062 103.822 16.8427 103.53 16.8669 103.25C16.879 103.177 16.8912 103.104 16.8912 103.031C16.9033 102.909 16.8548 103.287 16.8791 103.104C16.8791 103.068 16.8912 103.043 16.8912 103.007C16.9155 102.849 16.9397 102.69 16.9639 102.532C17.0731 101.911 17.2187 101.291 17.3886 100.694C17.4856 100.378 17.5827 100.061 17.6919 99.7447C17.7404 99.5987 17.789 99.4648 17.8496 99.3309C17.8739 99.2579 17.9102 99.1848 17.9345 99.1118C17.9952 98.9779 17.9103 99.1727 17.8981 99.1848C17.9224 99.1361 17.9345 99.0875 17.9588 99.0388C18.2136 98.4667 18.5047 97.9068 18.8566 97.3834C18.9415 97.2495 19.0386 97.1156 19.1356 96.9817C19.1478 96.9574 19.2569 96.8235 19.1477 96.9574C19.0507 97.0913 19.1599 96.9452 19.1841 96.9209C19.2327 96.86 19.2812 96.7992 19.3418 96.7383C19.5481 96.4949 19.7786 96.2636 20.0212 96.0567C20.0819 95.9958 20.1547 95.9471 20.2154 95.8984C20.3003 95.8254 20.0455 96.0202 20.1426 95.9593C20.179 95.935 20.2153 95.9106 20.2517 95.8741C20.3852 95.7889 20.5065 95.7037 20.6521 95.6185C20.7856 95.5455 20.919 95.4724 21.0525 95.4116C21.0767 95.3994 21.2223 95.3385 21.0646 95.3994C20.919 95.4603 21.0403 95.4116 21.0767 95.3994C21.1617 95.3629 21.2465 95.3385 21.3315 95.3142C21.6954 95.1925 22.023 94.8395 21.9987 94.4378C21.9745 94.024 21.7318 93.6953 21.3315 93.5615C19.7786 93.0381 18.1529 92.819 16.5879 92.3199C16.4059 92.2591 16.2239 92.1982 16.042 92.1252C16.0056 92.113 15.9691 92.1008 15.9327 92.0887C15.9085 92.0765 15.7508 91.9913 15.8842 92.0643C16.0177 92.1374 15.86 92.0522 15.8357 92.04C15.7872 92.0156 15.7265 91.9913 15.678 91.967C15.3262 91.8087 14.9986 91.614 14.6832 91.3949C14.6346 91.3584 14.5861 91.3218 14.5375 91.2975C14.4284 91.2245 14.5619 91.334 14.5861 91.334C14.5497 91.3462 14.392 91.1758 14.3556 91.1393C14.1979 90.9932 14.0402 90.8471 13.8946 90.6889C13.7733 90.555 13.6519 90.409 13.5306 90.2629C13.47 90.1899 13.4093 90.1168 13.3486 90.0438C13.5064 90.2264 13.4093 90.1168 13.3729 90.0681C13.3365 90.0195 13.3001 89.9586 13.2516 89.9099C12.8149 89.3135 12.4509 88.6806 12.1233 88.0233C12.0384 87.8529 11.9656 87.6946 11.8928 87.5242C11.8564 87.4512 11.82 87.3782 11.7958 87.293C11.7715 87.2565 11.7594 87.2078 11.7351 87.1713C11.6623 87.0009 11.8079 87.3417 11.7351 87.1834C11.5895 86.8304 11.456 86.4653 11.3226 86.1123C10.7766 84.603 10.352 83.045 9.87887 81.5114C9.22374 79.4422 8.45944 77.4095 7.46461 75.4863C7.24624 75.0603 6.6154 74.9021 6.21504 75.1577C5.77829 75.4376 5.65694 75.9488 5.88745 76.4114C6.13009 76.8739 6.36062 77.3486 6.579 77.8233C6.67606 78.0424 6.78523 78.2615 6.87016 78.4806C6.85803 78.4562 6.79735 78.298 6.85801 78.4562C6.88228 78.5049 6.90655 78.5658 6.93082 78.6145C6.97934 78.7362 7.02784 78.8579 7.07637 78.9675C7.41606 79.8195 7.71937 80.6837 7.99841 81.5601C8.50795 83.1302 8.94473 84.7247 9.47854 86.2827C9.98808 87.7677 10.6068 89.2405 11.4925 90.5428C11.9656 91.2366 12.4994 91.9426 13.1545 92.4782C13.8582 93.0746 14.6347 93.5006 15.496 93.8292C17.2188 94.4987 19.0871 94.6934 20.8341 95.2777C20.8341 94.6934 20.8341 94.1092 20.8341 93.5128C18.1893 94.3648 16.6728 97.0061 15.8357 99.4891C15.3989 100.767 15.1321 102.106 14.9986 103.445C14.8288 105.173 14.95 106.926 15.0956 108.655C15.2655 110.785 15.4717 112.915 15.2291 115.045C15.8236 114.96 16.4181 114.886 17.0125 114.801C16.6243 112.89 16.0783 111.004 15.3989 109.178C14.7074 107.34 13.8946 105.526 12.9119 103.822C12.0748 102.386 11.0678 100.986 9.78184 99.9273C9.07818 99.3552 8.35023 98.8927 7.50099 98.5641C6.7488 98.2598 5.96024 98.1746 5.15953 98.1015C4.5772 98.0528 4.00702 97.9798 3.42468 97.9433C2.56331 97.8946 1.71404 97.9311 0.85267 97.9798C1.01039 98.5519 1.15595 99.1118 1.31366 99.6839C2.74524 98.7953 4.14043 97.8216 5.39003 96.6653C6.62749 95.5089 7.78007 94.1822 8.3988 92.5877C8.99327 91.0541 9.09031 89.3378 9.05392 87.6946C9.01752 85.8323 8.8719 83.9701 8.65353 82.1321C8.39875 79.9655 8.03479 77.799 7.56165 75.6689C7.45246 75.2064 6.89442 74.8899 6.44554 75.036C6.02092 75.2429 5.75399 75.7054 5.87531 76.2045Z" fill="#212121"/>
<path d="M8.20471 49.6757C8.31721 50.1878 8.41647 50.7067 8.5025 51.2256C8.54882 51.4783 8.58855 51.7309 8.62163 51.9836C8.64149 52.1133 8.66132 52.2362 8.67456 52.3659C8.68118 52.4206 8.68778 52.482 8.6944 52.5366C8.70763 52.6322 8.6944 52.5435 8.6944 52.5298C8.70102 52.5708 8.70765 52.6117 8.70765 52.6595C8.84 53.6906 8.91939 54.7216 8.9591 55.7595C8.97895 56.2033 8.97898 56.6403 8.95251 57.0841C8.94589 57.1866 8.93924 57.289 8.92601 57.3914C8.91939 57.446 8.91279 57.5007 8.90617 57.5553C8.89955 57.6099 8.91941 57.6509 8.90617 57.5416C8.91279 57.5758 8.89292 57.6167 8.89292 57.6509C8.85984 57.8625 8.82013 58.0674 8.76057 58.2722C8.7341 58.3747 8.70102 58.4702 8.66794 58.5727C8.6547 58.6136 8.62825 58.6614 8.62163 58.7024C8.6481 58.6 8.64808 58.6478 8.63485 58.6751C8.62161 58.7092 8.60837 58.7365 8.59514 58.7707C8.50249 58.9687 8.39662 59.1531 8.27089 59.3306C8.2378 59.3716 8.21134 59.4193 8.17825 59.4603C8.18487 59.4467 8.24444 59.3716 8.1915 59.4398C8.17826 59.4603 8.16502 59.4808 8.14516 59.4945C8.07899 59.5832 8.00618 59.672 7.93339 59.7608C7.79443 59.9246 7.64224 60.0885 7.49004 60.2455C7.3246 60.4163 7.15253 60.5733 6.97386 60.7303C6.88122 60.8123 6.78858 60.8942 6.68932 60.9693C6.66947 60.9898 6.643 61.0103 6.62315 61.024C6.60991 61.0308 6.5305 61.0991 6.59006 61.0513C6.65624 61.0035 6.56359 61.0718 6.55697 61.0786C6.5305 61.0991 6.49743 61.1195 6.47096 61.1469C6.07391 61.4473 5.66363 61.7272 5.24673 61.9935C5.06806 62.1096 4.94892 62.3554 5.02171 62.5739C5.08788 62.7788 5.2798 62.9631 5.49818 62.9495C5.91508 62.9222 6.33198 62.9017 6.7555 62.9222C7.03343 62.9358 7.31136 62.9631 7.58268 62.9973C7.73488 63.0109 7.88045 63.0246 8.03265 63.0382C8.07898 63.0382 8.1253 63.0451 8.17163 63.0519C8.18486 63.0519 8.19148 63.0519 8.20471 63.0587C8.25765 63.0656 8.24441 63.0655 8.165 63.0519C8.17824 63.0587 8.21135 63.0587 8.22459 63.0587C8.33046 63.0792 8.43633 63.0997 8.54221 63.1338C8.63486 63.1611 8.72751 63.1953 8.81353 63.2294C8.84 63.2363 8.85986 63.2499 8.88633 63.2567C8.95251 63.284 8.7672 63.2021 8.86646 63.2499C8.9194 63.2772 8.96574 63.2977 9.01868 63.325C9.20397 63.4206 9.37602 63.5299 9.54145 63.6528C9.56131 63.6664 9.58115 63.6869 9.601 63.7006C9.6738 63.7552 9.58116 63.6869 9.57454 63.6801C9.59439 63.7142 9.66717 63.7552 9.69364 63.7825C9.77967 63.8576 9.85909 63.9327 9.9385 64.0078C10.0907 64.158 10.2429 64.3219 10.3753 64.4858C10.4414 64.5677 10.5076 64.6497 10.5672 64.7316C10.501 64.636 10.64 64.8272 10.5672 64.7316C10.5804 64.7521 10.5936 64.7657 10.6069 64.7862C10.6466 64.8409 10.6863 64.8955 10.7193 64.9501C10.8451 65.1345 10.9642 65.3188 11.0767 65.51C11.3215 65.9265 11.5465 66.3635 11.7517 66.8005C11.8642 67.0395 11.9767 67.2853 12.0826 67.5243C12.109 67.5789 12.1289 67.6335 12.1553 67.6882C12.1686 67.7155 12.1818 67.7496 12.1951 67.7769C12.2281 67.8657 12.1951 67.7838 12.1884 67.7633C12.248 67.8998 12.2943 68.0364 12.3472 68.173C12.7774 69.2928 13.1083 70.4467 13.3399 71.628C13.3862 71.8806 13.6575 72.024 13.8825 71.9967C14.1472 71.9625 14.2862 71.7509 14.3126 71.4914C14.5443 69.4362 14.0413 67.3946 14.1604 65.3325C14.167 65.1686 14.1869 65.0047 14.2001 64.8477C14.2068 64.8067 14.2134 64.7657 14.2134 64.7248C14.22 64.6565 14.1935 64.8682 14.2068 64.7657C14.2068 64.7453 14.2134 64.7316 14.2134 64.7111C14.2266 64.6224 14.2398 64.5336 14.2531 64.4448C14.3126 64.0966 14.392 63.7484 14.4847 63.4138C14.5376 63.2363 14.5906 63.0587 14.6501 62.8812C14.6766 62.7993 14.7031 62.7241 14.7362 62.649C14.7494 62.6081 14.7692 62.5671 14.7825 62.5261C14.8155 62.451 14.7692 62.5603 14.7626 62.5671C14.7759 62.5398 14.7825 62.5125 14.7957 62.4852C14.9347 62.1642 15.0935 61.8502 15.2854 61.5565C15.3317 61.4814 15.3847 61.4063 15.4376 61.3312C15.4442 61.3176 15.5038 61.2425 15.4442 61.3176C15.3913 61.3927 15.4508 61.3107 15.4641 61.2971C15.4905 61.2629 15.517 61.2288 15.5501 61.1947C15.6626 61.0581 15.7883 60.9284 15.9207 60.8123C15.9538 60.7781 15.9935 60.7508 16.0266 60.7235C16.0729 60.6825 15.9339 60.7918 15.9868 60.7577C16.0067 60.744 16.0265 60.7303 16.0464 60.7099C16.1192 60.6621 16.1854 60.6143 16.2648 60.5665C16.3376 60.5255 16.4104 60.4845 16.4832 60.4504C16.4964 60.4436 16.5758 60.4094 16.4898 60.4436C16.4104 60.4777 16.4766 60.4504 16.4964 60.4436C16.5427 60.4231 16.589 60.4094 16.6353 60.3958C16.8339 60.3275 17.0125 60.1295 16.9993 59.9041C16.9861 59.672 16.8537 59.4876 16.6353 59.4125C15.7883 59.1189 14.9016 58.996 14.0479 58.7161C13.9487 58.6819 13.8494 58.6478 13.7502 58.6068C13.7303 58.6 13.7104 58.5932 13.6906 58.5863C13.6773 58.5795 13.5913 58.5317 13.6641 58.5727C13.7369 58.6136 13.6509 58.5658 13.6377 58.559C13.6112 58.5454 13.5781 58.5317 13.5516 58.518C13.3597 58.4293 13.181 58.32 13.009 58.1971C12.9825 58.1766 12.956 58.1562 12.9296 58.1425C12.87 58.1015 12.9428 58.163 12.9561 58.163C12.9362 58.1698 12.8502 58.0742 12.8303 58.0537C12.7443 57.9718 12.6583 57.8899 12.5789 57.8011C12.5127 57.726 12.4465 57.6441 12.3803 57.5621C12.3472 57.5211 12.3142 57.4802 12.2811 57.4392C12.3671 57.5416 12.3142 57.4802 12.2943 57.4529C12.2745 57.4255 12.2546 57.3914 12.2281 57.3641C11.9899 57.0295 11.7914 56.6745 11.6127 56.3057C11.5664 56.2102 11.5267 56.1214 11.487 56.0258C11.4671 55.9848 11.4473 55.9439 11.4341 55.8961C11.4208 55.8756 11.4142 55.8483 11.401 55.8278C11.3613 55.7322 11.4407 55.9234 11.401 55.8346C11.3216 55.6366 11.2487 55.4317 11.1759 55.2337C10.8782 54.387 10.6466 53.5131 10.3885 52.6527C10.0311 51.4919 9.61424 50.3517 9.07161 49.2728C8.95249 49.0338 8.6084 48.9451 8.39002 49.0884C8.15179 49.2455 8.08561 49.5323 8.21134 49.7917C8.34369 50.0512 8.46943 50.3175 8.58855 50.5838C8.64149 50.7067 8.70104 50.8296 8.74736 50.9525C8.74074 50.9389 8.70765 50.8501 8.74073 50.9389C8.75397 50.9662 8.76721 51.0003 8.78045 51.0276C8.80692 51.0959 8.83337 51.1642 8.85984 51.2256C9.04512 51.7036 9.21057 52.1884 9.36277 52.68C9.6407 53.5609 9.87894 54.4553 10.1701 55.3293C10.448 56.1624 10.7855 56.9885 11.2686 57.7192C11.5267 58.1084 11.8178 58.5044 12.1752 58.8048C12.559 59.1394 12.9825 59.3784 13.4524 59.5627C14.3921 59.9383 15.4111 60.0475 16.3641 60.3753C16.3641 60.0475 16.3641 59.7198 16.3641 59.3852C14.9215 59.8632 14.0943 61.3449 13.6377 62.7378C13.3994 63.4548 13.2538 64.2058 13.1811 64.9569C13.0884 65.9265 13.1546 66.9098 13.234 67.8794C13.3266 69.0743 13.4391 70.2692 13.3068 71.4641C13.631 71.4163 13.9553 71.3753 14.2796 71.3275C14.0678 70.2555 13.77 69.1972 13.3994 68.173C13.0222 67.1419 12.5789 66.1245 12.0428 65.1686C11.5862 64.3629 11.037 63.5777 10.3355 62.9836C9.95174 62.6627 9.55467 62.4032 9.09145 62.2189C8.68116 62.0482 8.25104 62.0004 7.81429 61.9594C7.49665 61.9321 7.18564 61.8911 6.86801 61.8706C6.39817 61.8433 5.93493 61.8638 5.46509 61.8911C5.55112 62.212 5.63052 62.5261 5.71654 62.847C6.4974 62.3486 7.25842 61.8024 7.94002 61.1537C8.615 60.505 9.24367 59.7608 9.58116 58.8663C9.90542 58.0059 9.95835 57.0432 9.9385 56.1214C9.91865 55.0767 9.83922 54.032 9.7201 53.0009C9.58114 51.7855 9.38261 50.5701 9.12453 49.3752C9.06498 49.1158 8.76059 48.9382 8.51575 49.0202C8.28414 49.1362 8.13854 49.3957 8.20471 49.6757Z" fill="#212121"/>
<path d="M231.552 90.1857C231.726 90.8515 231.862 91.5173 231.961 92.2073C231.949 92.1225 231.937 92.0499 231.924 91.9652C232.11 93.3088 232.135 94.6888 231.949 96.0324C231.961 95.9477 231.974 95.875 231.986 95.7903C231.837 96.8797 231.552 97.945 231.118 98.9497C231.155 98.8771 231.18 98.8044 231.217 98.7318C231.006 99.216 230.77 99.6881 230.485 100.136C230.348 100.366 230.187 100.596 230.026 100.814C229.951 100.911 229.877 101.008 229.802 101.104C230.001 100.85 229.84 101.056 229.79 101.116C229.74 101.177 229.691 101.238 229.641 101.286C229.294 101.698 228.896 102.073 228.487 102.424C228.388 102.509 228.276 102.593 228.177 102.678C228.115 102.726 227.904 102.884 228.164 102.69C228.102 102.726 228.053 102.775 227.991 102.823C227.755 102.993 227.507 103.15 227.259 103.307C226.787 103.586 226.315 103.828 225.807 104.034C225.881 103.997 225.956 103.973 226.03 103.937C225.67 104.082 225.31 104.227 224.951 104.385C224.702 104.494 224.467 104.591 224.28 104.772C223.859 105.16 223.933 105.825 224.367 106.152C224.591 106.322 224.889 106.37 225.149 106.443C225.596 106.576 226.042 106.733 226.477 106.915C226.402 106.878 226.328 106.854 226.253 106.818C227.432 107.314 228.574 107.932 229.591 108.682C229.616 108.706 229.641 108.718 229.666 108.743C229.455 108.585 229.542 108.658 229.591 108.682C229.653 108.73 229.703 108.767 229.765 108.815C229.877 108.9 229.988 108.997 230.088 109.082C230.274 109.251 230.46 109.42 230.634 109.614C230.72 109.699 230.795 109.796 230.882 109.893C230.919 109.941 230.956 109.989 230.993 110.038C231.031 110.086 231.093 110.171 230.919 109.953C230.944 109.989 230.969 110.014 230.993 110.05C231.142 110.244 231.291 110.449 231.415 110.667C231.738 111.164 231.999 111.696 232.247 112.241C232.21 112.168 232.185 112.096 232.147 112.023C233.041 114.105 233.45 116.344 233.847 118.56C233.947 119.153 234.058 119.746 234.17 120.339C234.207 120.545 234.418 120.787 234.592 120.884C234.778 120.981 234.977 121.017 235.188 120.993C235.647 120.932 235.982 120.557 235.994 120.097C236.031 119.092 236.069 118.088 236.106 117.071C236.143 116.102 236.143 115.122 236.28 114.153C236.267 114.238 236.255 114.311 236.242 114.396C236.366 113.56 236.553 112.725 236.776 111.914C236.888 111.515 237.012 111.115 237.136 110.716C237.247 110.389 237.347 110.05 237.483 109.723C237.446 109.796 237.421 109.868 237.384 109.941C237.558 109.554 237.781 109.19 238.042 108.852C238.079 108.803 238.116 108.755 238.153 108.694C238.24 108.585 237.992 108.888 238.128 108.718C238.215 108.609 238.302 108.513 238.389 108.404C238.55 108.21 238.724 108.028 238.898 107.847C239.27 107.472 239.667 107.108 240.077 106.757C240.176 106.673 240.275 106.6 240.374 106.515C240.424 106.479 240.474 106.443 240.523 106.394C240.548 106.37 240.573 106.346 240.61 106.334C240.573 106.358 240.424 106.479 240.536 106.382C240.734 106.237 240.945 106.092 241.144 105.946C241.553 105.68 241.975 105.426 242.434 105.244C242.36 105.281 242.285 105.305 242.211 105.341C242.248 105.329 242.285 105.317 242.323 105.293C242.546 105.208 242.757 105.087 242.881 104.881C242.98 104.7 243.017 104.506 242.993 104.3C242.931 103.852 242.546 103.513 242.074 103.513C241.863 103.513 241.652 103.501 241.454 103.477C241.541 103.489 241.615 103.501 241.702 103.513C241.293 103.453 240.883 103.344 240.498 103.186C240.573 103.223 240.647 103.247 240.722 103.283C240.486 103.186 240.263 103.077 240.052 102.944C239.94 102.884 239.841 102.811 239.729 102.751C239.679 102.714 239.617 102.678 239.568 102.642C239.543 102.63 239.518 102.605 239.493 102.593C239.481 102.581 239.469 102.569 239.456 102.569C239.369 102.496 239.58 102.666 239.568 102.654C239.146 102.315 238.749 101.952 238.377 101.552C238.29 101.443 238.19 101.346 238.104 101.238C238.066 101.189 238.017 101.129 237.98 101.08C237.88 100.959 238.079 101.201 238.042 101.153C238.017 101.116 237.992 101.092 237.967 101.056C237.781 100.826 237.62 100.584 237.446 100.342C237.098 99.8333 236.788 99.3007 236.503 98.756C236.168 98.1266 235.858 97.4729 235.572 96.8192C235.609 96.8919 235.634 96.9645 235.672 97.0371C234.84 95.1124 234.195 93.103 233.661 91.0694C233.537 90.5973 233.426 90.1373 233.314 89.6652C233.202 89.2052 232.631 88.8905 232.172 89.0358C231.701 89.2294 231.428 89.6894 231.552 90.1857C231.812 91.2873 232.098 92.3888 232.433 93.4783C232.818 94.7493 233.264 96.0203 233.773 97.255C234.319 98.5502 234.927 99.8333 235.696 101.02C236.379 102.085 237.198 103.126 238.203 103.913C238.687 104.288 239.196 104.639 239.766 104.881C240.399 105.147 241.02 105.317 241.714 105.377C241.851 105.389 241.987 105.39 242.112 105.39C242.025 104.796 241.95 104.203 241.863 103.61C240.846 103.997 239.965 104.603 239.121 105.268C238.277 105.934 237.483 106.685 236.813 107.52C236.478 107.932 236.168 108.343 235.92 108.815C235.634 109.372 235.448 109.977 235.262 110.57C234.815 112.011 234.455 113.476 234.344 114.977C234.282 115.824 234.269 116.683 234.245 117.531C234.22 118.402 234.182 119.262 234.158 120.133C234.766 120.049 235.374 119.976 235.982 119.891C235.535 117.482 235.2 115.037 234.406 112.713C233.996 111.539 233.488 110.365 232.743 109.348C232.371 108.827 231.949 108.343 231.477 107.907C230.931 107.423 230.323 106.987 229.703 106.6C229.021 106.164 228.301 105.777 227.556 105.45C227.134 105.256 226.7 105.087 226.253 104.93C225.894 104.808 225.534 104.712 225.174 104.603C225.248 104.639 225.323 104.663 225.397 104.7C225.509 104.808 225.608 104.905 225.72 105.014C225.757 105.087 225.782 105.16 225.819 105.232C225.832 105.317 225.844 105.39 225.856 105.474C225.844 105.559 225.832 105.632 225.819 105.716C225.782 105.789 225.757 105.862 225.72 105.934C225.645 106.043 225.546 106.176 225.434 106.225C225.459 106.213 225.472 106.201 225.497 106.188C225.559 106.152 225.621 106.128 225.683 106.092C225.856 106.007 226.042 105.934 226.229 105.862C226.154 105.898 226.08 105.922 226.005 105.958C226.514 105.753 227.035 105.547 227.531 105.293C228.102 105.002 228.636 104.663 229.145 104.288C230.224 103.477 231.155 102.521 231.887 101.407C233.301 99.2886 233.922 96.7224 233.934 94.2167C233.934 92.7157 233.723 91.2025 233.351 89.7499C233.227 89.29 232.681 88.9631 232.21 89.1205C231.713 89.2294 231.415 89.6894 231.552 90.1857Z" fill="#212121"/>
<path d="M263.268 1.79937C263.42 2.50589 263.552 3.21241 263.665 3.91893C263.722 4.26264 263.778 4.62544 263.835 4.98825C263.854 5.10282 263.948 5.63749 263.872 5.2174C263.91 5.42745 263.929 5.63748 263.948 5.82843C264.118 7.27966 264.25 8.74998 264.326 10.2203C264.477 13.18 264.458 16.1589 264.25 19.0995C264.193 19.8251 264.137 20.5508 264.08 21.2955C264.042 21.6201 264.024 21.9638 263.986 22.2884C263.967 22.4412 263.948 22.5939 263.929 22.7658C263.929 22.8422 263.91 22.9186 263.91 22.9758C263.891 23.0904 263.91 23.0331 263.929 22.804C263.929 22.8613 263.91 22.9186 263.91 22.9758C263.74 24.1979 263.476 25.4009 263.155 26.5848C262.985 27.1767 262.797 27.7687 262.589 28.3416C262.476 28.628 262.381 28.9144 262.268 29.2008C262.249 29.2772 262.211 29.3345 262.192 29.4109C262.306 29.0481 262.249 29.2581 262.211 29.3536C262.136 29.5063 262.079 29.6782 262.004 29.831C261.494 30.9576 260.909 32.0269 260.21 33.058C260.022 33.3445 259.814 33.6309 259.606 33.8982C259.55 33.9746 259.436 34.0701 259.663 33.8218C259.606 33.8982 259.531 33.9746 259.474 34.051C259.361 34.1847 259.267 34.3183 259.153 34.452C258.719 34.9676 258.266 35.4449 257.775 35.9223C257.53 36.1514 257.284 36.3806 257.02 36.6097C256.888 36.7243 256.737 36.8198 256.624 36.9343C256.869 36.6861 256.775 36.8198 256.68 36.8961C256.605 36.9534 256.529 37.0107 256.435 37.068C255.888 37.469 255.302 37.8509 254.698 38.1755C254.17 38.462 253.868 39.2067 254.056 39.7986C254.132 40.0278 254.245 40.2569 254.415 40.4287C254.623 40.6579 255.095 40.887 255.416 40.8488C256.68 40.6961 257.945 40.6197 259.21 40.6579C259.833 40.677 260.437 40.7152 261.06 40.7725C261.211 40.7916 261.381 40.8107 261.532 40.8298C261.645 40.8488 262.211 40.9252 261.721 40.8488C262.041 40.9061 262.362 40.9443 262.683 41.0016C263.91 41.2116 265.137 41.5172 266.326 41.8991C266.931 42.09 267.535 42.3001 268.12 42.5483C268.252 42.6056 268.365 42.6438 268.497 42.7011C268.573 42.7393 268.648 42.7583 268.724 42.7965C268.327 42.6438 268.592 42.7393 268.686 42.7774C268.988 42.9111 269.271 43.0448 269.573 43.1784C270.725 43.7322 271.839 44.3433 272.896 45.0307C273.424 45.3744 273.934 45.7181 274.425 46.1C274.557 46.1955 274.689 46.2909 274.821 46.3864C274.878 46.4437 274.953 46.4819 275.01 46.5392C274.708 46.31 274.84 46.4055 274.915 46.4628C275.199 46.6919 275.463 46.902 275.727 47.1311C276.671 47.9331 277.577 48.8115 278.408 49.7281C278.842 50.2054 279.257 50.7019 279.673 51.2175C279.748 51.332 279.842 51.4275 279.918 51.5421C279.616 51.1793 279.975 51.6185 280.031 51.714C280.22 51.9813 280.409 52.2486 280.597 52.5159C281.39 53.6807 282.108 54.9028 282.712 56.1631C282.863 56.4877 283.014 56.8123 283.146 57.1179C283.259 57.3852 283.014 56.7932 283.127 57.0797C283.165 57.1751 283.202 57.2897 283.24 57.3852C283.297 57.5379 283.353 57.6907 283.41 57.8435C283.674 58.5309 283.901 59.2374 284.09 59.9439C284.297 60.6695 285.109 61.1851 285.826 60.9369C286.166 60.8223 286.506 60.6123 286.676 60.2876C286.865 59.9248 286.883 59.5811 286.827 59.1801C286.827 59.161 286.77 58.7982 286.808 59.0274C286.846 59.2565 286.789 58.9128 286.789 58.8937C286.77 58.76 286.751 58.6264 286.732 58.4927C286.695 58.1872 286.657 57.8817 286.638 57.5761C286.6 57.0988 286.563 56.6214 286.544 56.144C286.525 55.3993 286.544 54.6355 286.525 53.8908C286.525 52.9551 286.468 52.0386 286.374 51.1029C286.298 50.3964 286.204 49.6899 286.11 48.9833C286.053 48.5633 285.996 48.1432 285.94 47.704C285.921 47.6276 285.921 47.5512 285.902 47.4748C285.845 47.112 285.94 47.704 285.902 47.4748C285.883 47.2648 285.845 47.0738 285.826 46.8638C285.657 45.508 285.506 44.1332 285.468 42.7584C285.449 42.0518 285.449 41.3644 285.505 40.6579C285.524 40.3333 285.543 39.9896 285.6 39.6649C285.524 40.0659 285.638 39.474 285.638 39.3976C285.675 39.2067 285.694 39.0348 285.732 38.8439C285.845 38.2519 286.015 37.6791 286.204 37.1253C286.279 36.8771 286.374 36.6288 286.468 36.3806C286.506 36.266 286.544 36.1515 286.6 36.056C286.619 35.9796 286.657 35.9223 286.676 35.8459C286.808 35.5404 286.619 35.9987 286.676 35.865C287.129 34.853 287.639 33.8791 288.243 32.9626C288.413 32.7143 288.658 32.447 288.809 32.1797C288.79 32.1988 288.601 32.447 288.752 32.2561C288.809 32.1797 288.866 32.1224 288.922 32.046C289.017 31.9314 289.111 31.8169 289.205 31.7023C289.602 31.244 290.017 30.8048 290.47 30.3847C290.697 30.1747 290.942 29.9646 291.187 29.7546C291.376 29.6018 291.131 29.8119 291.112 29.8119C291.187 29.7737 291.244 29.6973 291.32 29.6591C291.452 29.5636 291.584 29.4682 291.697 29.3727C292.207 29.0099 292.735 28.7044 293.302 28.4179C293.83 28.1506 294.132 27.3677 293.944 26.7949C293.736 26.1647 293.226 25.7828 292.584 25.7446C291.924 25.7064 291.263 25.6491 290.602 25.5728C290.451 25.5537 290.3 25.5346 290.149 25.5155C290.074 25.5155 289.998 25.4773 289.923 25.4773C290.3 25.4582 290.055 25.4964 289.942 25.4773C289.602 25.42 289.262 25.3818 288.941 25.3245C287.657 25.0954 286.393 24.809 285.166 24.4462C284.543 24.2552 283.939 24.0643 283.335 23.8351C283.051 23.7205 282.768 23.6251 282.466 23.5105C282.429 23.4914 282.032 23.3386 282.032 23.3386C282.089 23.3577 282.145 23.3959 282.202 23.415C282.145 23.3959 282.089 23.3577 282.032 23.3386C281.957 23.3004 281.862 23.2623 281.787 23.2241C280.598 22.6894 279.465 22.0784 278.37 21.3718C277.823 21.009 277.275 20.6462 276.765 20.2452C276.709 20.207 276.671 20.1689 276.614 20.1307C276.671 20.188 276.935 20.3598 276.614 20.1307C276.501 20.0352 276.369 19.9397 276.256 19.8442C275.992 19.6342 275.746 19.4051 275.501 19.1759C275.029 18.7367 274.557 18.2784 274.123 17.8011C273.67 17.3046 273.273 16.7699 272.839 16.2734C273.103 16.579 272.782 16.1971 272.726 16.1016C272.631 15.9679 272.537 15.8534 272.443 15.7197C272.235 15.4333 272.046 15.1469 271.857 14.8604C271.48 14.2876 271.14 13.6956 270.8 13.1037C270.14 11.9198 269.554 10.6977 269.007 9.43741C268.988 9.38013 268.95 9.32284 268.932 9.26555C268.913 9.20827 268.875 9.15098 268.856 9.09369C268.932 9.28464 268.95 9.30374 268.894 9.17008C268.818 8.99822 268.743 8.80726 268.667 8.63541C268.535 8.29169 268.403 7.948 268.271 7.60429C268.007 6.89777 267.742 6.17214 267.497 5.46562C266.987 3.9953 266.515 2.52498 266.043 1.05466C265.817 0.348143 265.043 -0.18651 264.307 0.061726C263.552 0.271772 263.023 1.03557 263.268 1.79937C264.967 7.1651 266.742 12.7027 270.045 17.3046C271.725 19.6533 273.745 21.6774 276.124 23.3386C278.37 24.9044 280.881 26.0883 283.467 26.9476C286.412 27.9215 289.489 28.4561 292.584 28.628C292.339 27.7305 292.112 26.8521 291.867 25.9547C287.582 28.1124 284.599 32.4088 283.297 37.0107C282.504 39.8177 282.542 42.7393 282.863 45.6035C282.957 46.4055 283.051 47.1884 283.165 47.9904C283.184 48.1814 283.221 48.3532 283.24 48.5442C283.259 48.6205 283.259 48.6969 283.278 48.7733C283.335 49.1361 283.24 48.5442 283.278 48.7924C283.335 49.1552 283.372 49.5371 283.429 49.8999C283.561 51.0265 283.693 52.1531 283.712 53.2797C283.731 54.139 283.712 54.9983 283.731 55.8576C283.769 57.2133 283.92 58.5691 284.109 59.9248C285.015 59.6766 285.921 59.4093 286.846 59.161C285.392 53.9672 282.372 49.2698 278.408 45.699C274.444 42.1091 269.536 39.4931 264.326 38.4047C261.419 37.7936 258.398 37.6027 255.453 37.9846C255.699 38.882 255.925 39.7604 256.171 40.6579C260.814 38.0801 263.948 33.4399 265.59 28.437C266.44 25.8401 266.817 23.1477 267.025 20.4171C267.27 17.4001 267.346 14.383 267.233 11.366C267.101 7.9098 266.742 4.45358 266.043 1.07375C265.892 0.348138 265.005 -0.148325 264.307 0.0808164C263.495 0.290862 263.117 1.01648 263.268 1.79937Z" fill="#212121"/>
</svg>
