<svg width="294" height="121" viewBox="0 0 294 121" fill="none" xmlns="http://www.w3.org/2000/svg">
<path d="M23.824 78C23.3333 78 22.9813 77.7973 22.768 77.392C22.5547 76.9867 22.5333 76.592 22.704 76.208L32.112 53.872C32.3467 53.296 32.752 53.008 33.328 53.008C33.8827 53.008 34.2773 53.296 34.512 53.872L43.952 76.24C44.144 76.6453 44.112 77.04 43.856 77.424C43.6213 77.808 43.28 78 42.832 78C42.576 78 42.3413 77.936 42.128 77.808C41.936 77.68 41.776 77.488 41.648 77.232L32.848 55.888H33.84L24.976 77.232C24.8693 77.488 24.7093 77.68 24.496 77.808C24.304 77.936 24.08 78 23.824 78ZM25.936 72.048L26.896 69.904H39.888L40.848 72.048H25.936ZM51.256 78C50.4027 78 49.6347 77.7653 48.952 77.296C48.2907 76.8267 47.768 76.176 47.384 75.344C47.0213 74.512 46.84 73.552 46.84 72.464V54.224C46.84 53.8613 46.9467 53.5733 47.16 53.36C47.3947 53.1253 47.6933 53.008 48.056 53.008C48.4187 53.008 48.7067 53.1253 48.92 53.36C49.1547 53.5733 49.272 53.8613 49.272 54.224V72.464C49.272 73.3813 49.4533 74.128 49.816 74.704C50.2 75.28 50.68 75.568 51.256 75.568H52.056C52.376 75.568 52.632 75.6853 52.824 75.92C53.016 76.1333 53.112 76.4213 53.112 76.784C53.112 77.1467 52.9733 77.4453 52.696 77.68C52.44 77.8933 52.0987 78 51.672 78H51.256ZM58.3713 78C57.9873 78 57.6779 77.8933 57.4433 77.68C57.2299 77.4453 57.1233 77.136 57.1233 76.752V61.744C57.1233 61.36 57.2299 61.0613 57.4433 60.848C57.6779 60.6133 57.9873 60.496 58.3713 60.496C58.7339 60.496 59.0219 60.6133 59.2353 60.848C59.4699 61.0613 59.5873 61.36 59.5873 61.744V76.752C59.5873 77.136 59.4699 77.4453 59.2353 77.68C59.0219 77.8933 58.7339 78 58.3713 78ZM58.3393 57.168C57.8699 57.168 57.4646 56.9973 57.1233 56.656C56.7819 56.3147 56.6113 55.8987 56.6113 55.408C56.6113 54.8747 56.7819 54.4587 57.1233 54.16C57.4859 53.84 57.9019 53.68 58.3713 53.68C58.8193 53.68 59.2139 53.84 59.5553 54.16C59.9179 54.4587 60.0993 54.8747 60.0993 55.408C60.0993 55.8987 59.9286 56.3147 59.5873 56.656C59.2459 56.9973 58.8299 57.168 58.3393 57.168ZM73.7692 78.16C72.0839 78.16 70.5799 77.776 69.2572 77.008C67.9559 76.2187 66.9212 75.152 66.1532 73.808C65.4066 72.464 65.0332 70.9493 65.0332 69.264C65.0332 67.5573 65.3959 66.032 66.1212 64.688C66.8466 63.344 67.8386 62.288 69.0972 61.52C70.3559 60.7307 71.8066 60.336 73.4492 60.336C74.7506 60.336 75.9452 60.592 77.0332 61.104C78.1426 61.616 79.1133 62.384 79.9452 63.408C80.1799 63.664 80.2653 63.9413 80.2013 64.24C80.1372 64.5173 79.9559 64.7627 79.6572 64.976C79.4226 65.1467 79.1559 65.2107 78.8573 65.168C78.5799 65.104 78.3346 64.944 78.1213 64.688C76.8839 63.28 75.3266 62.576 73.4492 62.576C72.2546 62.576 71.1986 62.864 70.2812 63.44C69.3852 64.016 68.6812 64.8053 68.1692 65.808C67.6786 66.8107 67.4332 67.9627 67.4332 69.264C67.4332 70.544 67.6999 71.6853 68.2332 72.688C68.7666 73.6907 69.5132 74.48 70.4732 75.056C71.4332 75.632 72.5319 75.92 73.7692 75.92C74.6013 75.92 75.3586 75.8133 76.0413 75.6C76.7453 75.3653 77.3639 75.0133 77.8973 74.544C78.1533 74.3307 78.4199 74.2133 78.6973 74.192C78.9746 74.1707 79.2306 74.256 79.4653 74.448C79.7213 74.6827 79.8599 74.9493 79.8813 75.248C79.9239 75.5467 79.8279 75.8027 79.5933 76.016C78.0359 77.4453 76.0946 78.16 73.7692 78.16ZM86.8525 78C86.4685 78 86.1592 77.8933 85.9245 77.68C85.7112 77.4453 85.6045 77.136 85.6045 76.752V61.744C85.6045 61.36 85.7112 61.0613 85.9245 60.848C86.1592 60.6133 86.4685 60.496 86.8525 60.496C87.2152 60.496 87.5032 60.6133 87.7165 60.848C87.9512 61.0613 88.0685 61.36 88.0685 61.744V76.752C88.0685 77.136 87.9512 77.4453 87.7165 77.68C87.5032 77.8933 87.2152 78 86.8525 78ZM86.8205 57.168C86.3512 57.168 85.9458 56.9973 85.6045 56.656C85.2632 56.3147 85.0925 55.8987 85.0925 55.408C85.0925 54.8747 85.2632 54.4587 85.6045 54.16C85.9672 53.84 86.3832 53.68 86.8525 53.68C87.3005 53.68 87.6952 53.84 88.0365 54.16C88.3992 54.4587 88.5805 54.8747 88.5805 55.408C88.5805 55.8987 88.4098 56.3147 88.0685 56.656C87.7272 56.9973 87.3112 57.168 86.8205 57.168ZM102.155 78.16C100.512 78.16 99.0398 77.776 97.7385 77.008C96.4372 76.2187 95.4025 75.152 94.6345 73.808C93.8878 72.464 93.5145 70.9493 93.5145 69.264C93.5145 67.5573 93.8985 66.032 94.6665 64.688C95.4558 63.344 96.5225 62.288 97.8665 61.52C99.2105 60.7307 100.725 60.336 102.411 60.336C104.096 60.336 105.6 60.7307 106.923 61.52C108.267 62.288 109.323 63.344 110.091 64.688C110.88 66.032 111.285 67.5573 111.307 69.264L110.315 70.032C110.315 71.568 109.952 72.9547 109.227 74.192C108.523 75.408 107.552 76.3787 106.315 77.104C105.099 77.808 103.712 78.16 102.155 78.16ZM102.411 75.92C103.648 75.92 104.747 75.632 105.707 75.056C106.688 74.48 107.456 73.6907 108.01 72.688C108.587 71.664 108.875 70.5227 108.875 69.264C108.875 67.984 108.587 66.8427 108.01 65.84C107.456 64.8373 106.688 64.048 105.707 63.472C104.747 62.8747 103.648 62.576 102.411 62.576C101.195 62.576 100.096 62.8747 99.1145 63.472C98.1332 64.048 97.3545 64.8373 96.7785 65.84C96.2025 66.8427 95.9145 67.984 95.9145 69.264C95.9145 70.5227 96.2025 71.664 96.7785 72.688C97.3545 73.6907 98.1332 74.48 99.1145 75.056C100.096 75.632 101.195 75.92 102.411 75.92ZM110.059 78C109.696 78 109.397 77.8933 109.163 77.68C108.928 77.4453 108.811 77.1467 108.811 76.784V71.312L109.419 68.784L111.307 69.264V76.784C111.307 77.1467 111.189 77.4453 110.955 77.68C110.72 77.8933 110.421 78 110.059 78ZM127.242 78C126.879 78 126.58 77.8827 126.346 77.648C126.111 77.4133 125.994 77.1147 125.994 76.752V54.256C125.994 53.8933 126.111 53.5947 126.346 53.36C126.58 53.1253 126.879 53.008 127.242 53.008H133.642C135.22 53.008 136.618 53.36 137.834 54.064C139.05 54.7467 139.999 55.696 140.682 56.912C141.364 58.128 141.706 59.536 141.706 61.136C141.706 62.6933 141.364 64.08 140.682 65.296C139.999 66.4907 139.05 67.44 137.834 68.144C136.618 68.8267 135.22 69.168 133.642 69.168H128.49V76.752C128.49 77.1147 128.372 77.4133 128.138 77.648C127.903 77.8827 127.604 78 127.242 78ZM128.49 66.768H133.642C134.73 66.768 135.7 66.5333 136.554 66.064C137.407 65.5733 138.068 64.9013 138.538 64.048C139.028 63.1947 139.274 62.224 139.274 61.136C139.274 60.0053 139.028 59.0133 138.538 58.16C138.068 57.3067 137.407 56.6347 136.554 56.144C135.7 55.6533 134.73 55.408 133.642 55.408H128.49V66.768ZM147.128 78C146.744 78 146.434 77.8933 146.2 77.68C145.986 77.4453 145.88 77.136 145.88 76.752V61.744C145.88 61.36 145.986 61.0613 146.2 60.848C146.434 60.6133 146.744 60.496 147.128 60.496C147.49 60.496 147.778 60.6133 147.992 60.848C148.226 61.0613 148.344 61.36 148.344 61.744V76.752C148.344 77.136 148.226 77.4453 147.992 77.68C147.778 77.8933 147.49 78 147.128 78ZM147.096 57.168C146.626 57.168 146.221 56.9973 145.88 56.656C145.538 56.3147 145.368 55.8987 145.368 55.408C145.368 54.8747 145.538 54.4587 145.88 54.16C146.242 53.84 146.658 53.68 147.128 53.68C147.576 53.68 147.97 53.84 148.312 54.16C148.674 54.4587 148.856 54.8747 148.856 55.408C148.856 55.8987 148.685 56.3147 148.344 56.656C148.002 56.9973 147.586 57.168 147.096 57.168ZM170.333 85.488C169.971 85.488 169.672 85.3707 169.437 85.136C169.203 84.9227 169.085 84.624 169.085 84.24V74.832C168.381 75.8347 167.453 76.6453 166.301 77.264C165.149 77.8613 163.859 78.16 162.429 78.16C160.787 78.16 159.315 77.776 158.013 77.008C156.712 76.2187 155.677 75.152 154.909 73.808C154.163 72.464 153.789 70.9493 153.789 69.264C153.789 67.5573 154.173 66.032 154.941 64.688C155.731 63.344 156.797 62.288 158.141 61.52C159.485 60.7307 161 60.336 162.685 60.336C164.349 60.336 165.843 60.72 167.165 61.488C168.509 62.256 169.565 63.312 170.333 64.656C171.123 65.9787 171.539 67.472 171.581 69.136V84.24C171.581 84.624 171.464 84.9227 171.229 85.136C170.995 85.3707 170.696 85.488 170.333 85.488ZM162.685 75.92C163.923 75.92 165.021 75.632 165.981 75.056C166.963 74.48 167.731 73.6907 168.285 72.688C168.861 71.664 169.149 70.5227 169.149 69.264C169.149 67.984 168.861 66.8427 168.285 65.84C167.731 64.8373 166.963 64.048 165.981 63.472C165.021 62.8747 163.923 62.576 162.685 62.576C161.469 62.576 160.371 62.8747 159.389 63.472C158.408 64.048 157.629 64.8373 157.053 65.84C156.477 66.8427 156.189 67.984 156.189 69.264C156.189 70.5227 156.477 71.664 157.053 72.688C157.629 73.6907 158.408 74.48 159.389 75.056C160.371 75.632 161.469 75.92 162.685 75.92ZM185.059 78.192C183.544 78.192 182.189 77.8827 180.995 77.264C179.8 76.624 178.851 75.696 178.147 74.48C177.464 73.264 177.123 71.7813 177.123 70.032V61.712C177.123 61.3707 177.24 61.0827 177.475 60.848C177.709 60.6133 177.997 60.496 178.339 60.496C178.701 60.496 179 60.6133 179.235 60.848C179.469 61.0827 179.587 61.3707 179.587 61.712V70.032C179.587 71.3547 179.832 72.4427 180.323 73.296C180.835 74.1493 181.517 74.7893 182.371 75.216C183.245 75.6427 184.227 75.856 185.315 75.856C186.36 75.856 187.299 75.6533 188.131 75.248C188.984 74.8427 189.656 74.288 190.147 73.584C190.637 72.88 190.883 72.08 190.883 71.184H192.642C192.579 72.528 192.205 73.7333 191.523 74.8C190.861 75.8453 189.965 76.6773 188.835 77.296C187.704 77.8933 186.445 78.192 185.059 78.192ZM192.099 78C191.736 78 191.437 77.8933 191.203 77.68C190.989 77.4453 190.883 77.136 190.883 76.752V61.712C190.883 61.3493 190.989 61.0613 191.203 60.848C191.437 60.6133 191.736 60.496 192.099 60.496C192.461 60.496 192.76 60.6133 192.995 60.848C193.229 61.0613 193.347 61.3493 193.347 61.712V76.752C193.347 77.136 193.229 77.4453 192.995 77.68C192.76 77.8933 192.461 78 192.099 78ZM207.135 78.16C205.407 78.16 203.871 77.7867 202.527 77.04C201.204 76.272 200.159 75.216 199.391 73.872C198.644 72.528 198.271 70.992 198.271 69.264C198.271 67.5147 198.623 65.9787 199.327 64.656C200.052 63.312 201.044 62.256 202.303 61.488C203.561 60.72 205.012 60.336 206.655 60.336C208.276 60.336 209.684 60.7093 210.879 61.456C212.095 62.1813 213.033 63.1947 213.695 64.496C214.356 65.7973 214.687 67.28 214.687 68.944C214.687 69.2853 214.58 69.5627 214.367 69.776C214.153 69.968 213.876 70.064 213.535 70.064H199.935V68.016H213.791L212.415 69.008C212.436 67.7707 212.212 66.6613 211.743 65.68C211.273 64.6987 210.601 63.9307 209.727 63.376C208.873 62.8213 207.849 62.544 206.655 62.544C205.439 62.544 204.372 62.832 203.455 63.408C202.537 63.984 201.823 64.784 201.311 65.808C200.82 66.8107 200.575 67.9627 200.575 69.264C200.575 70.5653 200.852 71.7173 201.407 72.72C201.983 73.7227 202.761 74.512 203.743 75.088C204.724 75.664 205.855 75.952 207.135 75.952C207.903 75.952 208.671 75.824 209.439 75.568C210.228 75.2907 210.857 74.9493 211.327 74.544C211.561 74.352 211.828 74.256 212.127 74.256C212.425 74.2347 212.681 74.3093 212.895 74.48C213.172 74.736 213.311 75.0133 213.311 75.312C213.332 75.6107 213.215 75.8667 212.959 76.08C212.255 76.6773 211.359 77.1787 210.271 77.584C209.183 77.968 208.137 78.16 207.135 78.16ZM219.979 67.216C220.043 65.8933 220.384 64.7093 221.003 63.664C221.643 62.6187 222.464 61.7973 223.467 61.2C224.491 60.6027 225.622 60.304 226.859 60.304C227.84 60.304 228.598 60.4427 229.131 60.72C229.664 60.9973 229.867 61.4027 229.739 61.936C229.654 62.256 229.504 62.4693 229.291 62.576C229.099 62.6827 228.854 62.7253 228.555 62.704C228.278 62.6827 227.958 62.6613 227.595 62.64C226.4 62.5333 225.334 62.6613 224.395 63.024C223.478 63.3653 222.742 63.8987 222.187 64.624C221.654 65.3493 221.387 66.2133 221.387 67.216H219.979ZM220.171 78C219.787 78 219.488 77.8933 219.275 77.68C219.062 77.4667 218.955 77.168 218.955 76.784V61.712C218.955 61.328 219.062 61.0293 219.275 60.816C219.488 60.6027 219.787 60.496 220.171 60.496C220.555 60.496 220.854 60.6027 221.067 60.816C221.28 61.0293 221.387 61.328 221.387 61.712V76.784C221.387 77.168 221.28 77.4667 221.067 77.68C220.854 77.8933 220.555 78 220.171 78ZM240.142 78.16C238.499 78.16 237.027 77.776 235.726 77.008C234.425 76.2187 233.39 75.152 232.622 73.808C231.875 72.464 231.502 70.9493 231.502 69.264C231.502 67.5573 231.886 66.032 232.654 64.688C233.443 63.344 234.51 62.288 235.854 61.52C237.198 60.7307 238.713 60.336 240.398 60.336C242.083 60.336 243.587 60.7307 244.91 61.52C246.254 62.288 247.31 63.344 248.078 64.688C248.867 66.032 249.273 67.5573 249.294 69.264L248.302 70.032C248.302 71.568 247.939 72.9547 247.214 74.192C246.51 75.408 245.539 76.3787 244.302 77.104C243.086 77.808 241.699 78.16 240.142 78.16ZM240.398 75.92C241.635 75.92 242.734 75.632 243.694 75.056C244.675 74.48 245.443 73.6907 245.998 72.688C246.574 71.664 246.862 70.5227 246.862 69.264C246.862 67.984 246.574 66.8427 245.998 65.84C245.443 64.8373 244.675 64.048 243.694 63.472C242.734 62.8747 241.635 62.576 240.398 62.576C239.182 62.576 238.083 62.8747 237.102 63.472C236.121 64.048 235.342 64.8373 234.766 65.84C234.19 66.8427 233.902 67.984 233.902 69.264C233.902 70.5227 234.19 71.664 234.766 72.688C235.342 73.6907 236.121 74.48 237.102 75.056C238.083 75.632 239.182 75.92 240.398 75.92ZM248.046 78C247.683 78 247.385 77.8933 247.15 77.68C246.915 77.4453 246.798 77.1467 246.798 76.784V71.312L247.406 68.784L249.294 69.264V76.784C249.294 77.1467 249.177 77.4453 248.942 77.68C248.707 77.8933 248.409 78 248.046 78ZM260.298 78.16C259.04 78.16 257.792 77.9467 256.554 77.52C255.317 77.0933 254.314 76.4533 253.546 75.6C253.312 75.344 253.216 75.056 253.258 74.736C253.301 74.416 253.461 74.1387 253.738 73.904C254.037 73.6907 254.346 73.6053 254.666 73.648C254.986 73.6907 255.253 73.8293 255.466 74.064C255.978 74.6613 256.65 75.12 257.482 75.44C258.336 75.76 259.274 75.92 260.298 75.92C261.877 75.92 263.018 75.6533 263.722 75.12C264.426 74.5653 264.789 73.904 264.81 73.136C264.81 72.368 264.448 71.7387 263.722 71.248C262.997 70.736 261.802 70.3413 260.138 70.064C257.984 69.7227 256.405 69.1253 255.402 68.272C254.4 67.4187 253.898 66.4053 253.898 65.232C253.898 64.144 254.186 63.2373 254.762 62.512C255.338 61.7867 256.106 61.2427 257.066 60.88C258.026 60.5173 259.082 60.336 260.234 60.336C261.664 60.336 262.89 60.5813 263.914 61.072C264.96 61.5627 265.802 62.224 266.442 63.056C266.656 63.3333 266.741 63.6213 266.698 63.92C266.656 64.2187 266.485 64.464 266.186 64.656C265.93 64.8053 265.632 64.8587 265.29 64.816C264.97 64.752 264.693 64.592 264.458 64.336C263.925 63.7173 263.306 63.2693 262.602 62.992C261.898 62.6933 261.088 62.544 260.17 62.544C258.997 62.544 258.058 62.7893 257.354 63.28C256.65 63.7493 256.298 64.3467 256.298 65.072C256.298 65.5627 256.426 65.9893 256.682 66.352C256.96 66.7147 257.418 67.0347 258.058 67.312C258.72 67.5893 259.637 67.824 260.81 68.016C262.41 68.272 263.669 68.656 264.586 69.168C265.525 69.6587 266.186 70.2453 266.57 70.928C266.976 71.5893 267.178 72.3147 267.178 73.104C267.178 74.1067 266.88 74.992 266.282 75.76C265.706 76.5067 264.896 77.0933 263.85 77.52C262.826 77.9467 261.642 78.16 260.298 78.16Z" fill="#212121"/>
</svg>
