<svg width="41" height="76" viewBox="0 0 41 76" fill="none" xmlns="http://www.w3.org/2000/svg">
<path id="Vector" d="M13.82 2.93998C14.0733 4.61102 14.2811 6.30078 14.4451 7.98736C14.5396 8.80953 14.6123 9.63011 14.663 10.4491C14.6985 10.8703 14.7356 11.2697 14.7491 11.6893C14.7583 11.8663 14.7659 12.0651 14.7751 12.2421C14.7966 12.5521 14.7735 12.264 14.7767 12.2202C14.789 12.3533 14.8014 12.4864 14.7903 12.6398C14.9883 15.9815 15.0109 19.3105 14.9005 22.6518C14.8627 24.0814 14.7609 25.4842 14.5698 26.9027C14.524 27.2299 14.4781 27.5571 14.4104 27.8827C14.3757 28.0564 14.3411 28.2302 14.3065 28.4039C14.2718 28.5777 14.328 28.714 14.3097 28.3601C14.3236 28.4713 14.2483 28.598 14.2403 28.7076C14.0814 29.3792 13.9021 30.0272 13.657 30.6705C13.5455 30.9929 13.4136 31.2918 13.2802 31.6127C13.2268 31.741 13.128 31.8881 13.0965 32.018C13.2081 31.6956 13.1969 31.849 13.1467 31.9335C13.0949 32.0399 13.0446 32.1244 12.9928 32.2308C12.6398 32.8442 12.2461 33.4105 11.7883 33.9502C11.6691 34.0738 11.5703 34.2208 11.4512 34.3444C11.4763 34.3022 11.6911 34.0754 11.4998 34.2818C11.4512 34.3444 11.4026 34.407 11.3336 34.446C11.0937 34.7151 10.8319 34.9825 10.5701 35.25C10.0715 35.7426 9.52925 36.2321 8.98848 36.6996C8.4007 37.2078 7.79411 37.6705 7.16566 38.1317C6.83969 38.3725 6.51375 38.6132 6.16745 38.8305C6.09691 38.8914 6.00446 38.9508 5.93551 38.9899C5.89008 39.0086 5.61113 39.2087 5.81955 39.0696C6.04989 38.9321 5.72709 39.129 5.70358 39.1493C5.61113 39.2087 5.4968 39.2665 5.40275 39.3478C4.01753 40.2168 2.59325 41.0168 1.15023 41.7714C0.531334 42.101 0.0793861 42.8615 0.269561 43.5804C0.440999 44.2539 1.03373 44.8919 1.76026 44.9006C3.14756 44.9132 4.53327 44.9478 5.93135 45.1154C6.84879 45.2261 7.76305 45.3806 8.65379 45.5555C9.15476 45.636 9.63377 45.7148 10.1347 45.7953C10.2882 45.8064 10.44 45.8395 10.5919 45.8725C10.6357 45.8757 10.6576 45.8773 10.6999 45.9024C10.8737 45.9371 10.8298 45.9339 10.5699 45.8709C10.6122 45.896 10.7219 45.904 10.7657 45.9072C11.1116 45.9984 11.4575 46.0896 11.8003 46.2247C12.1008 46.3347 12.3997 46.4666 12.6767 46.5969C12.7628 46.6252 12.8254 46.6738 12.9115 46.702C13.1243 46.8056 12.5296 46.498 12.8473 46.6753C13.0163 46.7758 13.165 46.8527 13.334 46.9531C13.9254 47.3045 14.4699 47.6966 14.9892 48.131C15.0518 48.1796 15.1127 48.2501 15.1753 48.2987C15.4037 48.4916 15.1128 48.2501 15.0924 48.2266C15.1502 48.341 15.3817 48.49 15.4631 48.5841C15.7305 48.8459 15.9761 49.1061 16.2216 49.3663C16.6907 49.8852 17.1567 50.4478 17.5569 51.0057C17.757 51.2847 17.957 51.5637 18.1352 51.841C17.9383 51.5182 18.354 52.1654 18.1352 51.841C18.1743 51.91 18.215 51.957 18.254 52.0259C18.3728 52.2108 18.4915 52.3958 18.5884 52.5791C18.9619 53.2011 19.3134 53.8216 19.6415 54.4624C20.3554 55.8584 20.9988 57.3154 21.5765 58.7676C21.8934 59.5619 22.2087 60.378 22.5037 61.1707C22.5786 61.3524 22.6317 61.5326 22.7066 61.7143C22.7441 61.8051 22.78 61.9179 22.8175 62.0088C22.9064 62.3017 22.8159 62.0307 22.7987 61.9634C22.9641 62.4161 23.0857 62.8656 23.2292 63.3167C24.3929 67.015 25.2199 70.7991 25.7117 74.6469C25.8062 75.469 26.6715 75.9946 27.4232 75.961C28.3079 75.9151 28.8176 75.2691 28.9657 74.4425C30.2121 67.9004 29.0221 61.2254 29.8974 54.6344C29.9576 54.1099 30.0615 53.5886 30.142 53.0876C30.1735 52.9577 30.205 52.8278 30.2145 52.6962C30.2524 52.4786 30.1153 53.1518 30.183 52.8262C30.1878 52.7604 30.2129 52.7182 30.2177 52.6524C30.2823 52.3707 30.3467 52.0889 30.4112 51.8071C30.6897 50.7035 31.0339 49.6047 31.4188 48.553C31.6355 47.9958 31.8523 47.4386 32.091 46.883C32.1977 46.6263 32.303 46.3916 32.4301 46.1585C32.4835 46.0301 32.5587 45.9034 32.6121 45.775C32.7392 45.5419 32.5604 45.8815 32.5369 45.9018C32.5871 45.8173 32.6154 45.7312 32.6656 45.6467C33.2007 44.6499 33.8 43.6798 34.5041 42.7835C34.675 42.5535 34.868 42.3251 35.0608 42.0967C35.0859 42.0545 35.3006 41.8277 35.0859 42.0545C34.893 42.2829 35.1094 42.0341 35.1565 41.9935C35.2521 41.8903 35.3477 41.787 35.4653 41.6854C35.8697 41.2741 36.3165 40.8878 36.7819 40.547C36.8995 40.4454 37.0374 40.3673 37.1533 40.2875C37.3163 40.1672 36.8305 40.4845 37.0138 40.3876C37.0828 40.3485 37.1517 40.3095 37.2222 40.2485C37.4745 40.1126 37.7049 39.9751 37.9791 39.8407C38.2298 39.7267 38.4804 39.6127 38.7295 39.5206C38.7749 39.5019 39.0459 39.4114 38.753 39.5003C38.482 39.5908 38.7076 39.519 38.7749 39.5019C38.9331 39.4473 39.0897 39.4146 39.2463 39.3819C39.9198 39.2104 40.5578 38.6177 40.5665 37.8912C40.5768 37.1427 40.1814 36.5191 39.4755 36.2254C36.7383 35.0791 33.8298 34.4713 31.0674 33.3672C30.7466 33.2337 30.4258 33.1002 30.1065 32.9448C30.0424 32.9182 29.9781 32.8915 29.9139 32.8648C29.8717 32.8397 29.5979 32.6655 29.8295 32.8146C30.061 32.9636 29.7872 32.7895 29.745 32.7644C29.6605 32.7141 29.5541 32.6624 29.4696 32.6122C28.8547 32.281 28.2882 31.8873 27.747 31.4514C27.6641 31.3792 27.5811 31.3071 27.4966 31.2569C27.3089 31.1111 27.5358 31.3259 27.5796 31.329C27.5123 31.3462 27.2495 31.0186 27.1886 30.9481C26.9227 30.6644 26.6569 30.3806 26.4145 30.0766C26.2129 29.8195 26.0128 29.5406 25.8127 29.2616C25.7126 29.1222 25.6126 28.9827 25.5125 28.8432C25.7736 29.1927 25.6126 28.9827 25.5532 28.8902C25.4938 28.7978 25.436 28.6834 25.3547 28.5894C24.6436 27.458 24.0688 26.2704 23.5629 25.0438C23.4317 24.7257 23.3209 24.4312 23.2117 24.1148C23.1555 23.9785 23.0993 23.8422 23.0666 23.6856C23.0276 23.6167 23.012 23.5274 22.973 23.4584C22.8637 23.142 23.0822 23.7749 22.9714 23.4804C22.7545 22.8256 22.5611 22.1505 22.3661 21.4973C21.5771 18.7076 21.0137 15.8462 20.3594 13.0223C19.4464 9.20997 18.3313 5.4491 16.7855 1.85527C16.4466 1.05942 15.3275 0.691677 14.5708 1.09946C13.745 1.5463 13.4589 2.45101 13.8149 3.3142C14.1928 4.17898 14.5473 5.06409 14.8797 5.94761C15.0264 6.3549 15.195 6.76379 15.3198 7.16948C15.3011 7.12405 15.2121 6.83114 15.3011 7.12406C15.3385 7.21492 15.3744 7.32769 15.4119 7.41855C15.4837 7.64412 15.5553 7.86968 15.6287 8.07332C16.131 9.65227 16.566 11.2484 16.9555 12.8632C17.6708 15.7577 18.2514 18.6865 19.0121 21.5622C19.7385 24.3033 20.6638 27.0367 22.0936 29.4983C22.8577 30.8098 23.7298 32.1512 24.8434 33.2016C26.0368 34.368 27.384 35.2371 28.8973 35.942C31.9223 37.3736 35.2724 37.9695 38.3525 39.2508C38.4289 38.1987 38.5053 37.1466 38.5833 36.0725C33.6934 37.2598 30.6079 41.8174 28.7707 46.1791C27.8145 48.4234 27.1572 50.7995 26.7409 53.1932C26.208 56.2835 26.1979 59.4558 26.2349 62.5875C26.2632 66.4457 26.3573 70.3087 25.6403 74.1128C26.7255 74.0374 27.8091 73.9839 28.8943 73.9085C28.4428 70.4161 27.7032 66.9469 26.7144 63.5698C25.7054 60.1692 24.474 56.7966 22.9214 53.5989C21.5968 50.9025 19.9605 48.2496 17.7756 46.1739C16.579 45.0513 15.3243 44.1229 13.8329 43.4196C12.5137 42.7729 11.1001 42.516 9.66295 42.2794C8.61718 42.1153 7.59655 41.909 6.54918 41.7668C4.99926 41.5661 3.46007 41.5204 1.89741 41.4951C2.10754 42.546 2.29731 43.5734 2.50744 44.6243C5.21017 43.212 7.8583 41.6416 10.2672 39.7232C12.6543 37.8032 14.9102 35.5652 16.2367 32.7749C17.5113 30.091 17.9111 27.0131 18.0603 24.0492C18.2381 20.6907 18.2185 17.3179 18.0644 13.9794C17.8874 10.0443 17.5132 6.09481 16.9369 2.19679C16.8001 1.34952 15.8333 0.70637 15.0031 0.910504C14.2089 1.22742 13.6661 2.02536 13.82 2.93998Z" fill="#212121"/>
</svg>
