<svg width="208" height="145" viewBox="0 0 208 145" fill="none" xmlns="http://www.w3.org/2000/svg">
<g id="sparkles">
<g id="Group">
<g id="Group_2">
<path id="Vector" d="M153.187 39.1433C152.086 41.0818 150.795 42.9682 149.343 44.7612C149.155 44.9831 148.984 45.2109 148.789 45.413C148.7 45.5171 148.611 45.6212 148.521 45.7252C148.396 45.8843 148.743 45.4818 148.53 45.7115C148.468 45.7743 148.414 45.8568 148.352 45.9196C147.96 46.3573 147.552 46.7891 147.144 47.2209C146.312 48.0784 145.414 48.912 144.486 49.7001C144.04 50.0666 143.594 50.4331 143.131 50.7937C142.896 50.9641 142.678 51.1405 142.427 51.3049C142.383 51.3401 142.272 51.385 142.236 51.44C142.327 51.3024 142.452 51.2971 142.323 51.3695C142.185 51.4555 142.063 51.5476 141.925 51.6337C141.049 52.219 140.11 52.7468 139.15 53.2154C138.935 53.3248 138.704 53.4282 138.473 53.5316C138.353 53.5901 138.216 53.6427 138.096 53.7013C138.045 53.7168 137.985 53.7461 137.951 53.7676C138.278 53.5799 138.062 53.7228 137.976 53.7598C137.472 53.9684 136.936 54.165 136.409 54.3478C135.89 54.5169 135.381 54.6721 134.839 54.8155C134.594 54.8794 134.332 54.9373 134.07 54.9952C133.952 55.0202 133.834 55.0453 133.715 55.0704C133.53 55.105 134.07 54.9952 133.783 55.0608C133.69 55.0781 133.623 55.0877 133.53 55.105C132.932 55.2106 132.326 55.2964 131.723 55.3488C131.119 55.4011 130.536 55.3925 129.925 55.4251C129.951 55.4173 130.267 55.4306 130.051 55.4197C129.967 55.4233 129.893 55.4131 129.809 55.4166C129.651 55.41 129.493 55.4033 129.318 55.3906C129.028 55.3695 128.737 55.3485 128.439 55.3076C127.85 55.2457 127.272 55.1365 126.713 54.9998C126.417 54.9255 125.926 55.0533 125.667 55.1979C125.4 55.3564 125.205 55.5585 125.083 55.8043C124.836 56.3295 125.079 56.9142 125.7 57.1418C126.902 57.5654 128.095 58.0028 129.243 58.5089C129.512 58.6245 129.755 58.7479 130.015 58.8773C130.031 58.8833 130.298 59.0324 130.12 58.933C129.926 58.8276 130.192 58.9767 130.225 58.9887C130.363 59.0563 130.492 59.1378 130.621 59.2192C131.145 59.5312 131.636 59.8647 132.091 60.2197C132.171 60.2832 132.258 60.3664 132.338 60.4298C132.378 60.4616 132.425 60.513 132.465 60.5448C132.545 60.6082 132.588 60.7267 132.418 60.4933C132.541 60.6753 132.749 60.8201 132.898 60.9943C133.188 61.3229 133.453 61.6593 133.667 62.0112C133.728 62.1022 133.79 62.1932 133.842 62.2979C133.857 62.3374 133.888 62.3829 133.911 62.4086C134.011 62.5648 133.873 62.3434 133.866 62.3236C133.938 62.5211 134.069 62.7228 134.166 62.9125C134.344 63.3195 134.505 63.7204 134.631 64.1428C134.687 64.3343 134.743 64.5258 134.783 64.7113C134.802 64.8041 134.822 64.8968 134.849 65.0093C134.874 65.1553 134.806 64.7371 134.844 64.9561C134.856 65.0291 134.862 65.0823 134.874 65.1553C134.943 65.5735 134.969 65.9936 134.995 66.4136C135.013 66.8474 135.005 67.2889 134.98 67.7245C134.96 67.9392 134.939 68.154 134.919 68.3688C134.908 68.416 134.897 68.4633 134.911 68.5028C134.954 68.1935 134.935 68.3748 134.922 68.4555C134.898 68.5836 134.883 68.6979 134.86 68.8259C134.689 69.7891 134.41 70.73 134.058 71.6608C133.959 71.9324 133.853 72.1842 133.738 72.4498C133.691 72.5521 133.634 72.6681 133.603 72.7764C133.565 72.8649 133.535 72.9397 133.481 73.0222C133.508 72.981 133.519 72.9337 133.546 72.8924C133.51 72.9475 133.499 72.9947 133.462 73.0498C133.2 73.5689 132.946 74.0744 132.651 74.5816C131.326 76.9173 129.65 79.1409 127.975 81.3311C127.605 81.8281 127.836 82.46 128.363 82.7384C128.922 83.0289 129.687 82.9162 130.195 82.4869C133.775 79.5074 136.354 75.9219 139.642 72.7675C140.374 72.0613 141.139 71.367 141.976 70.7165C142.151 70.5754 142.342 70.4403 142.508 70.3129C142.595 70.2424 142.715 70.1838 142.812 70.0995C142.803 70.1132 142.543 70.2914 142.725 70.17C142.768 70.1347 142.837 70.0917 142.881 70.0564C143.28 69.7922 143.669 69.5417 144.075 69.2972C144.887 68.8082 145.745 68.3707 146.626 67.9924C146.677 67.9769 146.737 67.9476 146.771 67.926C146.471 68.0725 146.575 68.0079 146.66 67.9709C146.771 67.926 146.882 67.8812 146.993 67.8364C147.215 67.7468 147.453 67.6631 147.691 67.5795C148.143 67.42 148.601 67.2802 149.041 67.168C149.312 67.0963 149.557 67.0324 149.836 66.9805C149.886 66.965 149.928 66.9632 149.996 66.9537C149.574 67.0384 149.877 66.9787 149.954 66.9554C150.088 66.9363 150.206 66.9113 150.341 66.8922C150.837 66.8177 151.341 66.7629 151.842 66.7416C151.968 66.7363 152.11 66.7369 152.235 66.7316C152.293 66.7358 152.335 66.7341 152.393 66.7383C152.677 66.7396 152.093 66.7309 152.351 66.74C152.609 66.7491 152.867 66.7583 153.133 66.7871C153.398 66.816 153.647 66.8388 153.903 66.8814C154.01 66.9036 154.143 66.9181 154.25 66.9402C154.357 66.9624 154.851 67.0751 154.399 66.9606C154.753 67.0392 155.091 67.1118 155.466 66.9756C155.755 66.8764 155.997 66.7257 156.201 66.5099C156.593 66.0721 156.607 65.3763 156.066 65.0583C155.647 64.802 155.237 64.532 154.845 64.2344C154.669 64.1015 154.518 63.9608 154.342 63.8279C154.255 63.7447 154.168 63.6615 154.072 63.5921C154.366 63.8537 154.041 63.5466 153.961 63.4831C153.323 62.8217 152.763 62.1034 152.313 61.3404C152.299 61.3009 152.268 61.2554 152.244 61.2296C152.154 61.0597 152.283 61.2949 152.29 61.3146C152.254 61.2159 152.176 61.1189 152.123 61.0142C152.018 60.8047 151.92 60.615 151.832 60.4116C151.654 60.0046 151.486 59.5839 151.369 59.1477C151.243 58.7253 151.133 58.3088 151.032 57.8786C151.026 57.8253 151.021 57.7721 150.999 57.7128C151.007 57.7326 151.052 57.9713 151.012 57.7858C150.985 57.6733 150.974 57.5668 150.947 57.4543C150.909 57.2353 150.881 57.0026 150.86 56.7896C150.767 55.9178 150.767 55.0287 150.825 54.1439C150.845 53.9291 150.857 53.7281 150.877 53.5133C150.872 53.46 150.892 53.399 150.903 53.3518C150.921 53.1705 150.899 53.4188 150.89 53.4325C150.923 53.2907 150.931 53.1567 150.954 53.0287C151.021 52.5914 151.113 52.1463 151.204 51.7012C151.639 49.7575 152.29 47.8248 153.048 45.9142C153.466 44.8536 153.91 43.7853 154.387 42.7289C154.615 42.2313 154.834 41.7473 155.062 41.2497C155.185 41.0038 155.281 40.7657 155.404 40.5199C155.442 40.4314 155.632 40.0222 155.469 40.3901C155.535 40.2603 155.592 40.1443 155.657 40.0145C155.8 39.7076 155.889 39.4498 155.781 39.1536C155.687 38.8969 155.435 38.6335 155.115 38.5334C154.795 38.4333 154.397 38.39 154.048 38.5185C153.69 38.6607 153.312 38.864 153.187 39.1433C151.362 42.9709 149.591 46.8697 148.609 50.8354C147.687 54.6179 147.666 58.5428 149.451 61.9498C150.469 63.8786 151.956 65.6204 154.047 66.8486C154.608 66.2165 155.153 65.5784 155.714 64.9463C154.627 64.6848 153.55 64.5634 152.374 64.5599C151.34 64.5569 150.298 64.688 149.26 64.9059C147.244 65.3123 145.29 66.0837 143.527 67.0276C141.679 68.0084 140 69.2227 138.524 70.5622C136.767 72.1408 135.218 73.8643 133.679 75.5741C131.952 77.5057 130.209 79.4314 128.135 81.1504C128.872 81.5403 129.619 81.9164 130.356 82.3063C133.364 78.3482 136.468 74.1857 137.431 69.666C138.244 65.8947 137.613 61.8505 134.65 59.0549C132.662 57.1806 129.837 56.1107 127.04 55.1197C126.708 55.8356 126.359 56.5456 126.027 57.2616C130.465 58.29 135.465 57.3358 139.69 55.4653C144.378 53.3879 148.082 49.9753 151.099 46.4648C152.857 44.4249 154.362 42.2754 155.614 40.0497C155.92 39.4953 155.776 38.7928 155.071 38.5687C154.441 38.3548 153.521 38.5476 153.187 39.1433Z" fill="#231F20"/>
</g>
</g>
<g id="Group_3">
<g id="Group_4">
<path id="Vector_2" d="M48.7157 25.6942C49.3847 26.67 50.0181 27.669 50.6116 28.6773C50.9139 29.165 51.1963 29.6574 51.4587 30.1544C51.6021 30.4076 51.7411 30.6467 51.8645 30.9045C51.9196 31.0124 51.9791 31.1343 52.0342 31.2421C52.1357 31.4296 52.0386 31.2561 52.0298 31.228C52.0761 31.3078 52.1225 31.3875 52.1533 31.4858C53.2161 33.5159 54.1192 35.5827 54.9069 37.6912C55.2524 38.5908 55.5337 39.4902 55.7395 40.422C55.7855 40.6374 55.8314 40.8528 55.8574 41.0728C55.8725 41.1899 55.8878 41.3069 55.903 41.4239C55.9182 41.5409 56.0044 41.6114 55.8942 41.3958C55.9361 41.4614 55.9026 41.5596 55.9245 41.6298C55.9609 42.0885 55.973 42.5376 55.9252 43.0006C55.9112 43.2298 55.873 43.4495 55.8391 43.6833C55.8255 43.7768 55.7765 43.8936 55.7829 43.9825C55.7968 43.7533 55.8275 43.8517 55.8052 43.9171C55.7872 43.9966 55.7648 44.062 55.7469 44.1414C55.5948 44.6133 55.3941 45.0663 55.1291 45.5191C55.0556 45.6264 55.0066 45.7431 54.9331 45.8504C54.9443 45.8177 55.0757 45.6218 54.9599 45.7991C54.9332 45.8504 54.9064 45.9018 54.8553 45.9437C54.7128 46.1724 54.5503 46.4056 54.3878 46.6389C54.0741 47.0727 53.7204 47.5157 53.3624 47.9447C52.9732 48.411 52.5551 48.8538 52.1172 49.3011C51.8905 49.5341 51.6638 49.7671 51.4127 49.9907C51.366 50.0467 51.2993 50.1072 51.2482 50.1491C51.2127 50.1724 51.0171 50.3681 51.166 50.2283C51.3348 50.084 51.0993 50.2889 51.0837 50.3075C51.0171 50.3681 50.9305 50.4332 50.8682 50.5078C49.8638 51.402 48.8063 52.2633 47.72 53.101C47.2557 53.464 47.0545 54.0527 47.4147 54.4519C47.7462 54.8275 48.4438 55.0735 49.0938 54.8937C50.3338 54.5478 51.5783 54.216 52.8691 53.9639C53.7163 53.7989 54.5723 53.662 55.4128 53.5437C55.8807 53.4661 56.3286 53.393 56.7966 53.3154C56.9363 53.2832 57.0805 53.265 57.2246 53.2469C57.2645 53.2377 57.2845 53.2331 57.3288 53.238C57.4929 53.2153 57.453 53.2244 57.2046 53.2515C57.2489 53.2564 57.3488 53.2334 57.3888 53.2242C57.7213 53.1928 58.0539 53.1614 58.3953 53.1581C58.6923 53.1499 58.9938 53.1558 59.2753 53.1663C59.3595 53.1619 59.4282 53.1762 59.5125 53.1719C59.7297 53.1821 59.1179 53.1423 59.4481 53.1717C59.6254 53.1911 59.7784 53.201 59.9557 53.2205C60.5761 53.2885 61.1655 53.3938 61.7436 53.5318C61.8123 53.5461 61.8854 53.5745 61.954 53.5888C62.2088 53.6506 61.8854 53.5745 61.861 53.565C61.9429 53.6215 62.1888 53.6552 62.2862 53.693C62.5941 53.7879 62.882 53.8872 63.1699 53.9866C63.7257 54.1901 64.2904 54.4216 64.7951 54.6669C65.0474 54.7895 65.2998 54.9122 65.5322 55.0395C65.271 54.8887 65.8133 55.1856 65.5322 55.0395C65.5853 55.0724 65.634 55.0913 65.6871 55.1243C65.8421 55.2091 65.9969 55.294 66.1319 55.3834C66.6299 55.6755 67.1078 55.9721 67.5702 56.2875C68.5769 56.9746 69.5369 57.7176 70.437 58.4745C70.9302 58.8882 71.4277 59.3159 71.901 59.7342C72.016 59.8282 72.111 59.9268 72.226 60.0209C72.2835 60.0679 72.3455 60.129 72.403 60.176C72.5599 60.3357 72.4073 60.19 72.3742 60.1525C72.6417 60.3921 72.8693 60.641 73.1169 60.8853C75.1352 62.8911 76.876 65.0362 78.3349 67.3064C78.6373 67.7942 79.5481 67.9008 80.2092 67.6882C80.9858 67.434 81.2687 66.9018 81.1816 66.3494C80.5576 61.9586 77.7264 58.1062 76.7586 53.7794C76.6731 53.4375 76.6276 53.0865 76.5664 52.7541C76.56 52.6651 76.5536 52.5762 76.5273 52.4919C76.5033 52.3468 76.5597 52.8008 76.5337 52.5808C76.5205 52.5387 76.5317 52.506 76.5185 52.4638C76.5013 52.2719 76.484 52.08 76.4668 51.8882C76.4224 51.1301 76.4378 50.3582 76.5019 49.6052C76.5474 49.2031 76.5928 48.8009 76.6582 48.3941C76.6854 48.2071 76.7169 48.0341 76.7684 47.8566C76.782 47.7631 76.8154 47.6649 76.829 47.5714C76.8805 47.3939 76.8111 47.6509 76.7955 47.6695C76.8179 47.6041 76.8202 47.5433 76.8426 47.4779C77.0553 46.7209 77.3322 45.9641 77.7222 45.2265C77.8136 45.0397 77.925 44.8483 78.0364 44.6569C78.0475 44.6242 78.1788 44.4283 78.0475 44.6243C77.9361 44.8156 78.0631 44.6056 78.0942 44.5683C78.1521 44.4796 78.2099 44.391 78.2878 44.2977C78.5393 43.9385 78.8351 43.5841 79.1596 43.2533C79.2375 43.16 79.3397 43.0762 79.4219 42.997C79.5353 42.8805 79.1864 43.2019 79.3241 43.0949C79.3752 43.053 79.4263 43.0111 79.473 42.9551C79.6618 42.8062 79.8307 42.6618 80.0395 42.5083C80.2327 42.3734 80.4259 42.2385 80.6235 42.1176C80.6591 42.0944 80.8767 41.9689 80.6391 42.099C80.4216 42.2244 80.6036 42.1222 80.6591 42.0944C80.7857 42.02 80.9165 41.9598 81.0475 41.8995C81.6024 41.621 82.014 41.0893 81.829 40.6348C81.6397 40.1661 81.1218 39.8787 80.4147 39.8758C77.6705 39.8601 74.9165 40.2233 72.1611 40.2402C71.8397 40.2389 71.5183 40.2376 71.1925 40.2223C71.1282 40.222 71.0638 40.2218 70.9996 40.2215C70.9552 40.2167 70.665 40.1781 70.9109 40.2118C71.1569 40.2456 70.8666 40.207 70.8223 40.2021C70.7337 40.1924 70.6251 40.1873 70.5365 40.1776C69.9004 40.1282 69.2911 40.0275 68.6929 39.8941C68.5999 39.8703 68.5068 39.8466 68.4182 39.8369C68.2122 39.7939 68.4714 39.8698 68.5113 39.8606C68.4558 39.8885 68.1347 39.7515 68.0616 39.7231C67.7494 39.6143 67.4372 39.5054 67.1405 39.3779C66.8925 39.2693 66.6402 39.1466 66.3878 39.024C66.2616 38.9627 66.1354 38.9013 66.0093 38.84C66.3347 38.991 66.1355 38.9013 66.058 38.8589C65.9805 38.8165 65.8987 38.76 65.8013 38.7222C64.8673 38.1991 64.0398 37.6063 63.2635 36.9716C63.0623 36.8071 62.8854 36.652 62.7041 36.4828C62.6178 36.4123 62.5316 36.3417 62.4609 36.2526C62.4078 36.2196 62.3703 36.168 62.3172 36.135C62.1359 35.9659 62.4985 36.3042 62.3216 36.1491C61.9546 35.7967 61.6031 35.4257 61.256 35.0688C59.8128 33.5331 58.5516 31.8953 57.2194 30.3039C55.3944 28.1632 53.4029 26.106 51.0716 24.2627C50.5585 23.8536 49.4633 23.91 48.8968 24.3568C48.2792 24.8456 48.2641 25.4818 48.8104 25.9284C49.3767 26.3705 49.9274 26.8312 50.4581 27.2965C50.6969 27.5127 50.9556 27.7242 51.1745 27.945C51.1457 27.9215 50.9888 27.7618 51.1457 27.9215C51.2032 27.9685 51.2651 28.0296 51.3226 28.0766C51.4464 28.1987 51.5701 28.3209 51.6895 28.429C52.5561 29.2839 53.3672 30.1668 54.1428 31.0728C55.5481 32.6925 56.8424 34.3679 58.2833 35.9644C59.6578 37.4857 61.2077 38.9516 63.1352 40.1197C64.1642 40.7414 65.2974 41.3541 66.5687 41.7242C67.9419 42.1461 69.3734 42.3436 70.9094 42.3966C73.9858 42.5166 77.1303 42.0334 80.2159 42.0458C80.005 41.3713 79.7941 40.6967 79.5787 40.0081C75.5345 41.9942 73.9927 45.6184 73.5117 48.8025C73.2545 50.4436 73.2987 52.0906 73.5625 53.687C73.907 55.7469 74.7394 57.7246 75.603 59.6649C76.6515 62.0598 77.7599 64.4409 78.1297 66.9921C79.0771 66.6685 80.0289 66.3588 80.9763 66.0352C79.6476 63.976 78.0681 62.0047 76.291 60.1542C74.4896 58.2943 72.4973 56.5085 70.2651 54.9135C68.3691 53.5725 66.2069 52.338 63.7085 51.6028C62.3441 51.209 60.9793 50.9509 59.4633 50.8933C58.1157 50.8271 56.7874 51.0276 55.4435 51.2467C54.4677 51.4112 53.5032 51.543 52.5318 51.7215C51.0968 51.9918 49.7126 52.3558 48.3128 52.7385C48.7789 53.3392 49.2205 53.9305 49.6866 54.5312C51.7214 52.9627 53.6656 51.3097 55.3043 49.5011C56.923 47.6971 58.3405 45.7285 58.7829 43.6531C59.2074 41.6571 58.7475 39.6388 58.0943 37.7555C57.3621 35.6191 56.4501 33.5242 55.4273 31.485C54.2258 29.0801 52.8447 26.7166 51.2972 24.4367C50.9505 23.9441 49.918 23.7902 49.2321 24.1289C48.6082 24.5288 48.3359 25.164 48.7157 25.6942Z" fill="#231F20"/>
</g>
</g>
<g id="Group_5">
<g id="Group_6">
<path id="Vector_3" d="M154.043 90.7309C153.835 91.2891 153.612 91.8414 153.371 92.3876C153.256 92.6539 153.131 92.9339 153.007 93.2139C152.968 93.3026 152.794 93.7188 152.93 93.3914C152.862 93.5551 152.778 93.7128 152.702 93.8567C152.155 94.9588 151.565 96.0626 150.926 97.1485C149.639 99.334 148.196 101.479 146.606 103.537C146.21 104.043 145.813 104.549 145.407 105.069C145.218 105.291 145.037 105.533 144.849 105.756C144.759 105.86 144.67 105.965 144.571 106.083C144.535 106.138 144.482 106.187 144.454 106.228C144.383 106.305 144.427 106.27 144.553 106.11C144.525 106.152 144.482 106.187 144.454 106.228C143.721 107.057 142.915 107.842 142.069 108.595C141.638 108.968 141.191 109.336 140.736 109.683C140.5 109.854 140.281 110.031 140.045 110.202C139.992 110.251 139.932 110.28 139.879 110.33C140.151 110.104 140.002 110.237 139.923 110.294C139.784 110.38 139.653 110.487 139.514 110.573C138.532 111.224 137.511 111.811 136.41 112.333C136.109 112.48 135.792 112.621 135.483 112.748C135.398 112.785 135.253 112.818 135.569 112.711C135.483 112.748 135.381 112.779 135.295 112.816C135.133 112.877 134.987 112.943 134.825 113.004C134.2 113.238 133.578 113.439 132.923 113.628C132.6 113.715 132.278 113.802 131.938 113.884C131.769 113.925 131.592 113.946 131.438 113.992C131.77 113.891 131.625 113.958 131.506 113.983C131.413 114 131.32 114.017 131.21 114.029C130.543 114.144 129.852 114.234 129.172 114.276C128.575 114.315 127.956 114.757 127.837 115.245C127.792 115.434 127.781 115.636 127.846 115.814C127.917 116.045 128.217 116.361 128.514 116.435C129.685 116.727 130.82 117.074 131.9 117.504C132.432 117.716 132.939 117.935 133.452 118.175C133.574 118.236 133.712 118.304 133.834 118.366C133.924 118.416 134.379 118.651 133.989 118.44C134.241 118.583 134.501 118.713 134.752 118.856C135.717 119.398 136.636 120.009 137.486 120.663C137.919 120.993 138.343 121.337 138.733 121.702C138.82 121.785 138.9 121.849 138.987 121.932C139.034 121.984 139.091 122.022 139.138 122.073C138.867 121.837 139.051 121.99 139.115 122.047C139.313 122.24 139.495 122.427 139.693 122.619C140.428 123.385 141.102 124.181 141.691 125.013C141.985 125.429 142.263 125.84 142.506 126.272C142.575 126.383 142.644 126.494 142.713 126.604C142.735 126.664 142.782 126.715 142.804 126.775C142.652 126.513 142.721 126.624 142.759 126.69C142.895 126.945 143.024 127.181 143.144 127.43C143.579 128.31 143.945 129.232 144.227 130.158C144.376 130.641 144.498 131.132 144.612 131.636C144.623 131.743 144.659 131.842 144.67 131.948C144.581 131.59 144.682 132.022 144.686 132.109C144.722 132.362 144.757 132.615 144.793 132.868C144.924 133.961 144.961 135.072 144.882 136.174C144.858 136.456 144.833 136.739 144.802 137.002C144.772 137.231 144.842 136.725 144.803 136.968C144.791 137.049 144.768 137.144 144.755 137.225C144.731 137.353 144.707 137.481 144.683 137.61C144.584 138.19 144.442 138.772 144.267 139.343C144.1 139.933 144.558 140.563 145.3 140.612C145.65 140.637 146.046 140.594 146.349 140.413C146.686 140.211 146.867 139.969 147.01 139.661C147.019 139.648 147.144 139.367 147.067 139.545C146.99 139.722 147.106 139.456 147.115 139.442C147.162 139.34 147.21 139.237 147.258 139.135C147.371 138.902 147.485 138.67 147.615 138.443C147.811 138.086 148.007 137.729 148.219 137.379C148.559 136.835 148.942 136.289 149.282 135.745C149.73 135.07 150.12 134.39 150.487 133.684C150.76 133.15 151.016 132.609 151.273 132.069C151.425 131.748 151.577 131.426 151.738 131.091C151.758 131.03 151.795 130.975 151.815 130.914C151.94 130.634 151.738 131.091 151.815 130.914C151.899 130.756 151.958 130.606 152.042 130.448C152.544 129.415 153.072 128.374 153.698 127.37C154.02 126.853 154.349 126.357 154.737 125.865C154.909 125.636 155.09 125.394 155.295 125.177C155.037 125.443 155.419 125.052 155.456 124.996C155.58 124.871 155.679 124.752 155.803 124.627C156.185 124.235 156.607 123.875 157.036 123.535C157.221 123.38 157.421 123.231 157.622 123.082C157.71 123.011 157.798 122.94 157.893 122.889C157.946 122.84 158.006 122.811 158.059 122.762C158.32 122.583 157.937 122.854 158.05 122.775C158.928 122.189 159.837 121.647 160.801 121.177C161.067 121.052 161.409 120.937 161.668 120.792C161.642 120.8 161.36 120.919 161.582 120.829C161.668 120.792 161.745 120.769 161.83 120.732C161.967 120.679 162.104 120.626 162.241 120.573C162.805 120.368 163.376 120.183 163.971 120.024C164.268 119.944 164.582 119.871 164.895 119.797C165.133 119.747 164.819 119.82 164.802 119.814C164.886 119.811 164.972 119.774 165.056 119.77C165.216 119.743 165.377 119.716 165.521 119.683C166.138 119.583 166.743 119.531 167.372 119.504C167.959 119.479 168.596 119.01 168.707 118.536C168.829 118.015 168.569 117.577 168.03 117.345C167.474 117.107 166.928 116.856 166.391 116.591C166.269 116.529 166.147 116.467 166.025 116.405C165.959 116.381 165.912 116.33 165.846 116.306C166.183 116.412 165.952 116.362 165.863 116.312C165.595 116.162 165.318 116.027 165.067 115.883C164.062 115.31 163.101 114.701 162.209 114.049C161.76 113.713 161.326 113.383 160.912 113.025C160.721 112.852 160.52 112.693 160.313 112.515C160.289 112.489 160.018 112.252 160.018 112.252C160.058 112.284 160.089 112.33 160.129 112.362C160.089 112.33 160.058 112.284 160.018 112.252C159.971 112.201 159.907 112.143 159.86 112.092C159.084 111.327 158.393 110.526 157.78 109.668C157.479 109.232 157.177 108.795 156.927 108.344C156.896 108.298 156.881 108.259 156.85 108.213C156.872 108.272 157.019 108.481 156.85 108.213C156.798 108.108 156.729 107.997 156.676 107.892C156.547 107.656 156.444 107.413 156.341 107.169C156.141 106.702 155.951 106.221 155.803 105.738C155.647 105.236 155.559 104.724 155.42 104.227C155.503 104.532 155.407 104.154 155.404 104.067C155.386 103.94 155.359 103.828 155.341 103.701C155.298 103.428 155.271 103.161 155.244 102.894C155.191 102.361 155.179 101.825 155.168 101.29C155.161 100.224 155.238 99.1558 155.367 98.0716C155.378 98.0242 155.373 97.9709 155.384 97.9235C155.395 97.8761 155.389 97.8228 155.4 97.7754C155.375 97.9373 155.382 97.9571 155.397 97.8425C155.413 97.6944 155.439 97.5325 155.456 97.3844C155.506 97.0941 155.556 96.8039 155.606 96.5137C155.715 95.9194 155.833 95.3113 155.958 94.7231C156.22 93.4992 156.515 92.2872 156.809 91.0753C156.951 90.4931 156.535 89.8609 155.777 89.8061C155.02 89.7177 154.195 90.1012 154.043 90.7309C152.947 95.1461 151.835 99.7095 152.499 104.083C152.833 106.314 153.617 108.418 154.887 110.374C156.088 112.219 157.701 113.872 159.535 115.315C161.626 116.955 164.042 118.319 166.648 119.427C166.865 118.701 167.089 117.995 167.306 117.269C162.551 117.465 157.902 119.619 154.566 122.528C152.533 124.303 151.166 126.425 150.072 128.596C149.77 129.205 149.477 129.801 149.191 130.416C149.116 130.56 149.066 130.696 148.991 130.84C148.971 130.901 148.935 130.956 148.914 131.017C148.79 131.297 148.991 130.84 148.905 131.031C148.781 131.311 148.63 131.599 148.506 131.879C148.081 132.735 147.656 133.59 147.132 134.41C146.737 135.036 146.309 135.651 145.914 136.277C145.297 137.269 144.778 138.296 144.293 139.335C145.199 139.444 146.114 139.539 147.036 139.654C148.262 135.44 147.89 131.088 146.158 127.248C144.435 123.395 141.426 119.946 137.423 117.503C135.191 116.137 132.659 115.039 129.919 114.379C129.702 115.105 129.478 115.811 129.261 116.537C134.529 116.152 139.473 113.797 143.297 110.707C145.279 109.101 146.896 107.277 148.385 105.371C150.044 103.27 151.555 101.115 152.902 98.9002C154.443 96.3622 155.787 93.7521 156.8 91.0891C157.017 90.5171 156.484 89.8764 155.768 89.8199C154.962 89.7135 154.287 90.1174 154.043 90.7309Z" fill="#231F20"/>
</g>
</g>
</g>
</svg>
