<svg width="193" height="181" viewBox="0 0 193 181" fill="none" xmlns="http://www.w3.org/2000/svg">
<g id="stars">
<path id="Vector" d="M89.0816 2.09147C89.3258 5.80934 89.2715 9.55435 88.9187 13.2451C88.8644 13.7064 88.8373 14.1678 88.7558 14.602C88.7287 14.8191 88.7016 15.0362 88.6745 15.2533C88.6474 15.5789 88.7559 14.7377 88.6745 15.2262C88.6474 15.3619 88.6473 15.5247 88.6202 15.6604C88.4845 16.583 88.3217 17.5057 88.1589 18.4284C87.8061 20.2738 87.3448 22.1192 86.802 23.9103C86.5306 24.7515 86.2592 25.5928 85.9607 26.434C85.7979 26.8411 85.6621 27.2482 85.4722 27.6552C85.445 27.7367 85.3365 27.8724 85.3365 27.9809C85.3365 27.7095 85.4993 27.6281 85.3908 27.8181C85.2822 28.0352 85.2008 28.2523 85.0922 28.4694C84.4409 29.9077 83.6539 31.2917 82.7855 32.5943C82.5956 32.8929 82.3785 33.1914 82.1614 33.4899C82.0529 33.6527 81.9171 33.8155 81.8085 33.9784C81.7543 34.0326 81.7 34.114 81.6729 34.1683C81.9442 33.6798 81.7814 34.0326 81.7 34.1412C81.2115 34.7654 80.6688 35.3895 80.1261 35.9866C79.5833 36.5565 79.0405 37.0992 78.4435 37.642C78.1721 37.8862 77.8737 38.1304 77.5752 38.3747C77.4395 38.4832 77.3038 38.5918 77.1681 38.7003C76.951 38.8632 77.5751 38.3747 77.2495 38.646C77.1409 38.7275 77.0595 38.7817 76.9509 38.8632C76.2453 39.3788 75.5126 39.8673 74.7527 40.3015C73.9929 40.7357 73.206 41.0613 72.419 41.4684C72.4461 41.4412 72.8802 41.2784 72.5817 41.387C72.4732 41.4413 72.3647 41.4684 72.2561 41.5227C72.039 41.6041 71.8219 41.6855 71.5777 41.7669C71.1706 41.9026 70.7635 42.0383 70.3293 42.1468C69.488 42.3911 68.6196 42.5539 67.7512 42.6625C67.2899 42.7167 66.7471 43.2052 66.53 43.5851C66.3129 43.9922 66.2315 44.4264 66.2858 44.8877C66.4215 45.8647 67.2628 46.6517 68.294 46.6517C70.275 46.6246 72.2561 46.6246 74.2371 46.7603C74.6985 46.7874 75.1327 46.8417 75.594 46.8959C75.6212 46.8959 76.1097 46.9773 75.784 46.9231C75.4312 46.8688 75.9197 46.9502 75.9739 46.9502C76.2182 46.9774 76.4625 47.0317 76.7067 47.0859C77.6837 47.2759 78.6335 47.5201 79.5562 47.8186C79.719 47.8729 79.9089 47.9543 80.0718 48.0086C80.1532 48.0357 80.2617 48.09 80.3431 48.1171C80.506 48.1714 80.6688 48.3343 80.2346 48.0629C80.5603 48.28 80.9673 48.3885 81.3201 48.5785C81.9986 48.9313 82.6499 49.3112 83.2469 49.7454C83.4098 49.854 83.5725 49.9625 83.7354 50.0982C83.7896 50.1525 83.8711 50.2068 83.9254 50.2339C84.1968 50.4239 83.8168 50.1525 83.7897 50.1253C84.0611 50.3967 84.4138 50.641 84.7123 50.8852C85.3094 51.428 85.8792 51.9707 86.422 52.5677C86.6662 52.8391 86.9105 53.1105 87.1276 53.3819C87.2361 53.5176 87.3448 53.6532 87.4805 53.8161C87.6433 54.0332 87.1819 53.409 87.4261 53.7347C87.5075 53.8432 87.5618 53.9246 87.6432 54.0332C88.1045 54.6574 88.5116 55.3087 88.9187 55.96C89.3258 56.6384 89.7058 57.344 90.0585 58.0496C90.2214 58.4024 90.3841 58.7552 90.547 59.1079C90.5741 59.1894 90.6012 59.2708 90.6555 59.3251C90.4384 58.8094 90.5741 59.1079 90.6283 59.2436C90.7097 59.4607 90.7913 59.6507 90.8727 59.8678C91.4968 61.4961 91.9581 63.1515 92.3109 64.834C92.4195 65.3225 92.5009 65.7838 92.5823 66.2723C92.6094 66.4623 92.6366 66.6794 92.6908 66.8693C92.718 67.0322 92.7452 67.1679 92.7452 67.3307C92.7452 67.2493 92.718 67.1679 92.718 67.0865C92.718 67.195 92.7452 67.2764 92.7452 67.385C92.8537 68.3619 92.9623 69.3118 93.0165 70.2887C93.3151 74.7665 93.0437 79.2713 92.7452 83.7219C92.6909 84.726 93.5593 85.5944 94.5091 85.7301C95.5132 85.8658 96.4358 85.2416 96.7343 84.2647C98.8782 77.4531 99.1497 70.2616 100.751 63.3414C101.104 61.7946 101.511 60.2477 102.053 58.728C102.162 58.4024 102.298 58.0767 102.406 57.7782C102.461 57.6154 102.569 57.4526 102.623 57.2626C102.623 57.2897 102.433 57.7239 102.569 57.4254C102.596 57.344 102.65 57.2355 102.678 57.154C102.976 56.5027 103.275 55.8786 103.6 55.2544C104.252 54.0061 105.011 52.812 105.853 51.6993C105.907 51.6451 105.961 51.5636 105.988 51.5094C105.717 51.9164 105.798 51.7536 105.88 51.6451C105.988 51.5094 106.097 51.3737 106.206 51.238C106.423 50.9666 106.667 50.6952 106.911 50.4239C107.372 49.9082 107.861 49.4198 108.349 48.9856C108.648 48.7142 108.919 48.4699 109.245 48.2257C109.299 48.1714 109.353 48.1443 109.435 48.09C108.946 48.4699 109.299 48.1986 109.381 48.1171C109.543 48.0086 109.679 47.9001 109.842 47.7915C110.439 47.3844 111.063 47.0045 111.714 46.6789C111.877 46.5974 112.067 46.516 112.23 46.4346C112.311 46.4075 112.366 46.3803 112.447 46.3532C112.827 46.1904 112.04 46.516 112.393 46.3803C112.746 46.2446 113.098 46.109 113.478 46.0004C113.858 45.8919 114.211 45.7833 114.591 45.7019C114.754 45.6747 114.944 45.6205 115.107 45.5933C115.269 45.5662 116.029 45.4576 115.324 45.5391C115.866 45.4576 116.382 45.3762 116.762 44.942C117.061 44.6164 117.251 44.2364 117.332 43.7751C117.468 42.8524 116.871 41.7398 115.866 41.5498C115.079 41.387 114.293 41.197 113.506 40.9528C113.153 40.8442 112.827 40.7085 112.474 40.6C112.284 40.5186 112.094 40.4371 111.904 40.3829C112.529 40.6271 111.823 40.3286 111.66 40.2743C110.222 39.5959 108.838 38.7817 107.562 37.8319C107.508 37.7776 107.427 37.7234 107.372 37.6962C107.101 37.4791 107.481 37.7776 107.508 37.8048C107.372 37.6691 107.182 37.5605 107.02 37.4248C106.694 37.1535 106.395 36.9093 106.097 36.6379C105.5 36.0951 104.903 35.5252 104.36 34.9011C103.817 34.304 103.302 33.707 102.786 33.0828C102.732 33.0014 102.678 32.92 102.596 32.8386C102.623 32.8657 102.895 33.2185 102.678 32.9471C102.542 32.7843 102.433 32.6215 102.298 32.4587C102.053 32.133 101.809 31.7802 101.592 31.4545C100.697 30.1248 99.9095 28.7136 99.2039 27.2753C99.0411 26.9226 98.8783 26.5969 98.7155 26.2441C98.6612 26.1627 98.6341 26.0541 98.6069 25.9727C98.4713 25.6742 98.6611 26.0813 98.6611 26.1084C98.5797 25.8642 98.4712 25.6471 98.3898 25.43C98.0912 24.6972 97.8198 23.9374 97.5485 23.1775C96.4087 19.8396 95.5675 16.3931 94.889 12.9194C94.5091 10.9927 94.1563 9.03875 93.8578 7.08483C93.7221 6.16214 93.5865 5.2666 93.4508 4.34392C93.3965 3.88257 93.315 3.44837 93.2607 2.98703C93.2336 2.8242 93.125 2.06434 93.2336 2.74278C93.2064 2.49854 93.1794 2.28145 93.1522 2.0372C93.0708 1.46731 92.9622 1.00596 92.5551 0.598889C92.2023 0.246098 91.6325 -0.0252665 91.1169 0.0018713C90.6013 0.0290091 90.0313 0.191823 89.6785 0.598889C89.3257 1.03309 89.0001 1.57585 89.0816 2.09147C90.0314 9.2287 91.1169 16.4473 93.3151 23.3132C95.4318 29.8534 98.8783 36.0951 104.279 40.4643C107.345 42.9338 110.873 44.8335 114.754 45.5662C114.944 44.2364 115.107 42.9067 115.297 41.5769C113.614 41.794 112.067 42.2283 110.493 42.9067C109.109 43.5037 107.834 44.3179 106.64 45.2677C104.306 47.0859 102.379 49.4469 100.859 51.9707C99.2582 54.6031 98.0912 57.5068 97.3043 60.492C96.3544 64.0199 95.8117 67.6564 95.2689 71.2657C94.6719 75.3363 94.0477 79.407 92.7994 83.342C94.1291 83.532 95.4589 83.6948 96.7887 83.8848C97.3043 75.852 97.7656 67.4393 95.0519 59.705C92.7994 53.2462 88.3759 47.1945 81.9442 44.4807C77.6293 42.6624 72.9074 42.6082 68.294 42.6625C68.484 43.9922 68.6468 45.3219 68.8367 46.6517C75.6755 45.7019 81.5101 41.2784 85.4993 35.8509C89.9228 29.8263 91.8496 22.2549 92.7723 14.9277C93.3151 10.667 93.4236 6.37923 93.1251 2.1186C93.0436 1.06022 92.2295 0.0289892 91.0897 0.0832648C90.0585 0.110403 89.0001 0.95168 89.0816 2.09147Z" fill="#231F20"/>
<path id="Vector_2" d="M13.7185 57.2626C14.1798 59.2979 14.5869 61.3604 14.9397 63.4228C15.1297 64.4269 15.2926 65.431 15.4283 66.4351C15.5097 66.9507 15.591 67.4392 15.6453 67.9548C15.6725 68.1719 15.6995 68.4162 15.7267 68.6333C15.781 69.0132 15.7267 68.6604 15.7267 68.6061C15.7538 68.769 15.781 68.9318 15.781 69.1218C16.3238 73.2196 16.6494 77.3174 16.8122 81.4423C16.8936 83.2063 16.8937 84.9431 16.7852 86.7071C16.758 87.1141 16.7308 87.5212 16.6765 87.9283C16.6494 88.1454 16.6223 88.3624 16.5951 88.5795C16.568 88.7966 16.6494 88.9595 16.5951 88.5253C16.6223 88.661 16.5408 88.8238 16.5408 88.9595C16.4051 89.8007 16.2423 90.6149 15.9981 91.429C15.8895 91.8361 15.7538 92.216 15.6182 92.6231C15.5639 92.7859 15.4554 92.9759 15.4283 93.1387C15.5368 92.7316 15.5367 92.9216 15.4825 93.0301C15.4282 93.1658 15.3739 93.2744 15.3196 93.4101C14.9397 94.1971 14.5055 94.9298 13.9899 95.6354C13.8542 95.7982 13.7457 95.9882 13.61 96.151C13.6371 96.0967 13.8814 95.7982 13.6643 96.0696C13.61 96.151 13.5557 96.2324 13.4743 96.2867C13.2029 96.6395 12.9043 96.9923 12.6058 97.3451C12.0359 97.9964 11.4118 98.6477 10.7877 99.2718C10.1092 99.9503 9.40357 100.574 8.67085 101.199C8.29092 101.524 7.91105 101.85 7.50398 102.148C7.42257 102.23 7.31401 102.311 7.2326 102.366C7.17833 102.393 6.85267 102.664 7.09691 102.474C7.36829 102.284 6.98836 102.556 6.96122 102.583C6.85267 102.664 6.71704 102.745 6.60849 102.854C4.98022 104.048 3.29768 105.161 1.588 106.219C0.855275 106.68 0.366689 107.657 0.665205 108.526C0.936583 109.34 1.72363 110.073 2.61918 110.018C4.32886 109.91 6.03854 109.828 7.77536 109.91C8.91514 109.964 10.0549 110.073 11.1676 110.208C11.7917 110.263 12.3887 110.317 13.0129 110.371C13.2029 110.371 13.3929 110.398 13.5828 110.425C13.6371 110.425 13.6642 110.425 13.7185 110.453C13.9356 110.48 13.8813 110.48 13.5557 110.425C13.6099 110.453 13.7457 110.453 13.8 110.453C14.2342 110.534 14.6684 110.615 15.1026 110.751C15.4825 110.86 15.8624 110.995 16.2152 111.131C16.3238 111.158 16.4052 111.212 16.5138 111.24C16.7852 111.348 16.0252 111.022 16.4323 111.212C16.6494 111.321 16.8394 111.402 17.0565 111.511C17.8164 111.891 18.5219 112.325 19.2004 112.814C19.2818 112.868 19.3632 112.949 19.4446 113.004C19.7431 113.221 19.3632 112.949 19.3361 112.922C19.4175 113.058 19.716 113.221 19.8245 113.329C20.1773 113.628 20.503 113.926 20.8287 114.225C21.4528 114.822 22.077 115.473 22.6198 116.124C22.8912 116.45 23.1625 116.776 23.4067 117.101C23.1354 116.721 23.7053 117.481 23.4067 117.101C23.461 117.183 23.5153 117.237 23.5696 117.318C23.7324 117.536 23.8952 117.753 24.0309 117.97C24.5465 118.702 25.0349 119.435 25.4963 120.195C26.5004 121.85 27.4231 123.587 28.2644 125.324C28.7257 126.274 29.1871 127.251 29.6213 128.201C29.7298 128.418 29.8113 128.635 29.9198 128.852C29.9741 128.961 30.0284 129.096 30.0827 129.205C30.2184 129.558 30.0826 129.232 30.0555 129.151C30.2997 129.693 30.4897 130.236 30.7068 130.779C32.4707 135.229 33.8276 139.816 34.7775 144.511C34.9674 145.515 36.0801 146.085 37.0028 145.976C38.0883 145.84 38.6582 144.999 38.7668 143.968C39.7166 135.799 37.654 127.685 38.1425 119.489C38.1696 118.838 38.2511 118.187 38.3054 117.563C38.3325 117.4 38.3597 117.237 38.3597 117.074C38.3868 116.803 38.2783 117.644 38.3325 117.237C38.3325 117.156 38.3597 117.101 38.3597 117.02C38.414 116.667 38.4681 116.314 38.5224 115.962C38.7667 114.578 39.0923 113.194 39.4722 111.864C39.6893 111.158 39.9064 110.453 40.1507 109.747C40.2592 109.421 40.3679 109.123 40.5036 108.824C40.5578 108.662 40.6392 108.499 40.6934 108.336C40.8291 108.037 40.6392 108.472 40.6121 108.499C40.6664 108.39 40.6935 108.282 40.7478 108.173C41.3177 106.898 41.9689 105.649 42.7559 104.482C42.9459 104.184 43.1631 103.885 43.3802 103.587C43.4073 103.532 43.6515 103.234 43.4072 103.532C43.1901 103.831 43.4344 103.505 43.4887 103.451C43.5973 103.315 43.7058 103.18 43.8414 103.044C44.3028 102.501 44.8184 101.986 45.3612 101.524C45.4969 101.389 45.6597 101.28 45.7954 101.171C45.9854 101.009 45.4155 101.443 45.6326 101.307C45.714 101.253 45.7954 101.199 45.8768 101.117C46.1753 100.927 46.4468 100.737 46.7724 100.547C47.0709 100.384 47.3694 100.222 47.6679 100.086C47.7222 100.059 48.0479 99.9231 47.6951 100.059C47.3694 100.195 47.6408 100.086 47.7222 100.059C47.9122 99.9774 48.1021 99.9232 48.292 99.8689C49.1061 99.5975 49.8389 98.8105 49.7846 97.9149C49.7303 96.9923 49.1876 96.2595 48.292 95.961C44.8184 94.7941 41.182 94.3056 37.6812 93.193C37.2742 93.0573 36.8671 92.9216 36.46 92.7588C36.3786 92.7316 36.2971 92.7045 36.2157 92.6774C36.1614 92.6502 35.8087 92.4602 36.1072 92.6231C36.4057 92.7859 36.0529 92.5959 35.9987 92.5688C35.8901 92.5145 35.7545 92.4603 35.6459 92.406C34.8589 92.0532 34.1261 91.619 33.4206 91.1305C33.312 91.0491 33.2034 90.9677 33.0949 90.9134C32.8506 90.7506 33.1492 90.9948 33.2035 90.9948C33.1221 91.0219 32.7692 90.642 32.6878 90.5606C32.335 90.235 31.9823 89.9093 31.6566 89.5565C31.3852 89.258 31.1139 88.9324 30.8425 88.6067C30.7068 88.4439 30.5711 88.281 30.4354 88.1182C30.7882 88.5253 30.5711 88.281 30.4897 88.1725C30.4083 88.0639 30.3269 87.9282 30.2184 87.8197C29.2414 86.4899 28.4272 85.0788 27.6945 83.6133C27.5045 83.2334 27.3417 82.8806 27.1789 82.5007C27.0975 82.3379 27.0161 82.175 26.9618 81.9851C26.9075 81.9037 26.8804 81.7951 26.8261 81.7137C26.6633 81.3338 26.989 82.0936 26.8261 81.7408C26.5005 80.9538 26.2019 80.1397 25.9033 79.3527C24.6821 75.9876 23.7323 72.514 22.674 69.0946C21.2085 64.4812 19.4989 59.9492 17.2736 55.6614C16.7851 54.7116 15.374 54.3588 14.4784 54.9287C13.5015 55.5529 13.2301 56.6927 13.7457 57.7239C14.2884 58.7551 14.8041 59.8135 15.2926 60.8719C15.5097 61.3603 15.7539 61.8488 15.9439 62.3373C15.9167 62.283 15.781 61.9303 15.9167 62.283C15.971 62.3916 16.0253 62.5273 16.0795 62.6358C16.1881 62.9072 16.2966 63.1786 16.4051 63.4228C17.165 65.3225 17.8434 67.2493 18.4676 69.2032C19.6074 72.704 20.5844 76.259 21.7785 79.7326C22.9183 83.0434 24.3023 86.3271 26.2834 89.2308C27.3418 90.7777 28.5357 92.3517 30.0012 93.5458C31.5752 94.8755 33.3121 95.8253 35.2388 96.558C39.0924 98.0506 43.2716 98.4848 47.1795 99.7874C47.1795 98.4848 47.1795 97.1822 47.1795 95.8525C41.2634 97.7521 37.8712 103.641 35.9987 109.177C35.0217 112.027 34.4247 115.012 34.1262 117.997C33.7462 121.85 34.0176 125.758 34.3432 129.612C34.7231 134.361 35.1845 139.11 34.6418 143.859C35.9715 143.669 37.3013 143.506 38.6311 143.316C37.7627 139.056 36.5414 134.849 35.0217 130.779C33.4748 126.681 31.6566 122.637 29.4584 118.838C27.5859 115.636 25.3335 112.515 22.4569 110.154C20.8829 108.879 19.2546 107.847 17.3549 107.115C15.6724 106.436 13.9085 106.246 12.1174 106.083C10.8148 105.975 9.53937 105.812 8.23675 105.731C6.30997 105.622 4.41027 105.703 2.48349 105.812C2.83628 107.088 3.16188 108.336 3.51467 109.611C6.71693 107.63 9.8378 105.459 12.633 102.881C15.401 100.303 17.9792 97.3451 19.3632 93.79C20.693 90.3706 20.9101 86.5442 20.8287 82.8806C20.7472 78.7285 20.4215 74.5765 19.933 70.4786C19.3631 65.6481 18.549 60.8176 17.4906 56.0685C17.2464 55.0373 15.9981 54.3317 14.994 54.6573C14.0442 55.1186 13.4471 56.1499 13.7185 57.2626Z" fill="#231F20"/>
<path id="Vector_3" d="M120.479 111.918C120.859 113.411 121.157 114.903 121.375 116.45C121.347 116.26 121.32 116.097 121.293 115.907C121.7 118.92 121.754 122.013 121.347 125.026C121.375 124.836 121.402 124.673 121.429 124.483C121.103 126.925 120.479 129.313 119.529 131.566C119.611 131.403 119.665 131.24 119.746 131.077C119.285 132.163 118.769 133.221 118.145 134.225C117.847 134.741 117.494 135.257 117.141 135.745C116.978 135.962 116.815 136.179 116.653 136.396C117.087 135.826 116.734 136.288 116.625 136.423C116.517 136.559 116.408 136.695 116.3 136.803C115.54 137.726 114.672 138.567 113.776 139.354C113.559 139.544 113.315 139.734 113.098 139.924C112.962 140.033 112.501 140.386 113.07 139.951C112.935 140.033 112.826 140.141 112.691 140.25C112.175 140.63 111.632 140.983 111.089 141.335C110.058 141.96 109.027 142.502 107.914 142.964C108.077 142.882 108.24 142.828 108.403 142.747C107.616 143.072 106.829 143.398 106.042 143.751C105.499 143.995 104.983 144.212 104.576 144.619C103.654 145.487 103.816 146.98 104.766 147.713C105.255 148.093 105.906 148.201 106.476 148.364C107.453 148.663 108.43 149.015 109.38 149.422C109.217 149.341 109.054 149.287 108.891 149.205C111.469 150.318 113.966 151.702 116.191 153.385C116.246 153.439 116.3 153.466 116.354 153.52C115.893 153.167 116.083 153.33 116.191 153.385C116.327 153.493 116.435 153.575 116.571 153.683C116.815 153.873 117.06 154.09 117.277 154.28C117.684 154.66 118.091 155.04 118.471 155.474C118.661 155.664 118.824 155.881 119.014 156.098C119.095 156.207 119.176 156.315 119.258 156.424C119.339 156.533 119.475 156.723 119.095 156.234C119.149 156.315 119.203 156.37 119.258 156.451C119.583 156.885 119.909 157.347 120.181 157.835C120.886 158.948 121.456 160.142 121.999 161.363C121.917 161.2 121.863 161.037 121.782 160.875C123.736 165.542 124.631 170.563 125.499 175.529C125.717 176.859 125.961 178.189 126.205 179.518C126.286 179.98 126.748 180.522 127.128 180.739C127.535 180.957 127.969 181.038 128.43 180.984C129.435 180.848 130.167 180.007 130.194 178.976C130.276 176.723 130.357 174.471 130.439 172.191C130.52 170.02 130.52 167.822 130.818 165.651C130.791 165.841 130.764 166.004 130.737 166.194C131.009 164.321 131.416 162.449 131.904 160.63C132.148 159.735 132.42 158.839 132.691 157.944C132.935 157.211 133.152 156.451 133.451 155.718C133.369 155.881 133.315 156.044 133.234 156.207C133.614 155.338 134.102 154.524 134.672 153.764C134.754 153.656 134.835 153.547 134.916 153.412C135.106 153.167 134.563 153.846 134.862 153.466C135.052 153.222 135.242 153.005 135.432 152.76C135.785 152.326 136.165 151.919 136.545 151.512C137.359 150.671 138.227 149.857 139.123 149.07C139.34 148.88 139.557 148.717 139.774 148.527C139.883 148.445 139.991 148.364 140.1 148.256C140.154 148.201 140.208 148.147 140.29 148.12C140.208 148.174 139.883 148.445 140.127 148.228C140.561 147.903 141.022 147.577 141.457 147.251C142.352 146.654 143.275 146.084 144.279 145.677C144.116 145.759 143.953 145.813 143.79 145.895C143.872 145.867 143.953 145.84 144.035 145.786C144.523 145.596 144.984 145.325 145.256 144.863C145.473 144.456 145.554 144.022 145.5 143.561C145.364 142.557 144.523 141.797 143.492 141.797C143.031 141.797 142.569 141.77 142.135 141.715C142.325 141.742 142.488 141.77 142.678 141.797C141.782 141.661 140.887 141.417 140.045 141.064C140.208 141.145 140.371 141.2 140.534 141.281C140.018 141.064 139.53 140.82 139.068 140.521C138.824 140.386 138.607 140.223 138.363 140.087C138.254 140.006 138.119 139.924 138.01 139.843C137.956 139.816 137.901 139.761 137.847 139.734C137.82 139.707 137.793 139.68 137.766 139.68C137.576 139.517 138.037 139.897 138.01 139.87C137.087 139.11 136.219 138.296 135.405 137.4C135.215 137.156 134.998 136.939 134.808 136.695C134.726 136.586 134.618 136.451 134.536 136.342C134.319 136.071 134.754 136.613 134.672 136.505C134.618 136.423 134.564 136.369 134.509 136.288C134.102 135.772 133.749 135.229 133.369 134.687C132.61 133.547 131.931 132.353 131.307 131.132C130.574 129.72 129.896 128.255 129.272 126.79C129.353 126.952 129.407 127.115 129.489 127.278C127.671 122.963 126.259 118.458 125.092 113.899C124.821 112.841 124.577 111.809 124.333 110.751C124.088 109.72 122.84 109.014 121.836 109.34C120.805 109.774 120.208 110.805 120.479 111.918C121.049 114.388 121.673 116.857 122.406 119.3C123.247 122.149 124.224 124.998 125.337 127.766C126.531 130.67 127.861 133.547 129.543 136.206C131.036 138.594 132.827 140.928 135.025 142.692C136.083 143.534 137.196 144.321 138.444 144.863C139.828 145.46 141.185 145.84 142.705 145.976C143.003 146.003 143.302 146.003 143.573 146.003C143.383 144.673 143.22 143.344 143.03 142.014C140.805 142.882 138.878 144.239 137.033 145.732C135.188 147.224 133.451 148.907 131.985 150.779C131.253 151.702 130.574 152.625 130.032 153.683C129.407 154.931 129 156.288 128.593 157.618C127.616 160.847 126.829 164.131 126.585 167.496C126.449 169.396 126.422 171.323 126.368 173.222C126.314 175.176 126.232 177.103 126.178 179.057C127.508 178.867 128.837 178.704 130.167 178.514C129.19 173.114 128.457 167.632 126.721 162.421C125.825 159.789 124.712 157.157 123.084 154.877C122.27 153.71 121.347 152.625 120.316 151.648C119.122 150.562 117.792 149.585 116.435 148.717C114.943 147.74 113.369 146.872 111.741 146.139C110.818 145.705 109.868 145.325 108.891 144.972C108.104 144.7 107.317 144.483 106.53 144.239C106.693 144.321 106.856 144.375 107.019 144.456C107.263 144.7 107.48 144.918 107.724 145.162C107.806 145.325 107.86 145.487 107.941 145.65C107.969 145.84 107.996 146.003 108.023 146.193C107.996 146.383 107.969 146.546 107.941 146.736C107.86 146.899 107.806 147.061 107.724 147.224C107.561 147.469 107.344 147.767 107.1 147.876C107.154 147.848 107.182 147.821 107.236 147.794C107.371 147.713 107.507 147.658 107.643 147.577C108.023 147.387 108.43 147.224 108.837 147.061C108.674 147.143 108.511 147.197 108.348 147.279C109.461 146.817 110.601 146.356 111.686 145.786C112.935 145.135 114.102 144.375 115.214 143.534C117.575 141.715 119.611 139.571 121.212 137.075C124.305 132.326 125.662 126.572 125.689 120.955C125.689 117.59 125.228 114.198 124.414 110.941C124.143 109.91 122.949 109.177 121.917 109.53C120.832 109.774 120.18 110.805 120.479 111.918Z" fill="#231F20"/>
<path id="Vector_4" d="M147.969 39.9215C148.186 40.9256 148.376 41.9297 148.539 42.9338C148.62 43.4223 148.702 43.9379 148.783 44.4535C148.81 44.6163 148.946 45.3762 148.837 44.7792C148.892 45.0777 148.919 45.3762 148.946 45.6476C149.19 47.7101 149.38 49.7997 149.489 51.8893C149.706 56.0956 149.679 60.3291 149.38 64.5083C149.299 65.5396 149.217 66.5708 149.136 67.6292C149.082 68.0905 149.055 68.579 149 69.0403C148.973 69.2574 148.946 69.4745 148.919 69.7188C148.919 69.8273 148.892 69.9359 148.892 70.0173C148.865 70.1801 148.892 70.0987 148.919 69.7731C148.919 69.8545 148.892 69.9359 148.892 70.0173C148.647 71.7541 148.268 73.4638 147.806 75.1463C147.562 75.9876 147.291 76.8289 146.992 77.643C146.829 78.0501 146.694 78.4572 146.531 78.8642C146.504 78.9728 146.449 79.0542 146.422 79.1627C146.585 78.6471 146.504 78.9456 146.449 79.0813C146.341 79.2984 146.259 79.5427 146.151 79.7598C145.418 81.3609 144.577 82.8806 143.573 84.3461C143.301 84.7531 143.003 85.1602 142.704 85.5401C142.623 85.6487 142.46 85.7844 142.786 85.4316C142.704 85.5401 142.596 85.6487 142.514 85.7572C142.352 85.9472 142.216 86.1372 142.053 86.3271C141.429 87.0598 140.778 87.7383 140.072 88.4167C139.719 88.7424 139.366 89.068 138.986 89.3937C138.796 89.5565 138.579 89.6922 138.417 89.855C138.769 89.5022 138.634 89.6922 138.498 89.8007C138.389 89.8822 138.281 89.9636 138.145 90.045C137.358 90.6149 136.517 91.1576 135.649 91.619C134.889 92.0261 134.454 93.0844 134.726 93.9257C134.834 94.2514 134.997 94.577 135.241 94.8212C135.54 95.1469 136.218 95.4726 136.68 95.4183C138.498 95.2012 140.316 95.0926 142.134 95.1469C143.03 95.174 143.898 95.2283 144.794 95.3097C145.011 95.3369 145.255 95.364 145.472 95.3912C145.635 95.4183 146.449 95.5268 145.744 95.4183C146.205 95.4997 146.666 95.554 147.128 95.6354C148.892 95.9339 150.656 96.3681 152.365 96.9109C153.234 97.1822 154.102 97.4808 154.943 97.8335C155.133 97.915 155.296 97.9692 155.486 98.0506C155.595 98.1049 155.703 98.132 155.812 98.1863C155.242 97.9692 155.622 98.1049 155.758 98.1592C156.192 98.3492 156.599 98.5391 157.033 98.7291C158.688 99.5161 160.29 100.385 161.809 101.361C162.569 101.85 163.302 102.338 164.008 102.881C164.197 103.017 164.387 103.153 164.577 103.288C164.659 103.37 164.767 103.424 164.849 103.505C164.414 103.18 164.604 103.315 164.713 103.397C165.12 103.722 165.5 104.021 165.88 104.347C167.237 105.486 168.539 106.735 169.733 108.037C170.358 108.716 170.955 109.421 171.552 110.154C171.66 110.317 171.796 110.453 171.905 110.615C171.47 110.1 171.986 110.724 172.067 110.86C172.339 111.24 172.61 111.62 172.881 111.999C174.021 113.655 175.053 115.392 175.921 117.183C176.138 117.644 176.355 118.105 176.545 118.54C176.708 118.92 176.355 118.078 176.518 118.485C176.572 118.621 176.627 118.784 176.681 118.92C176.762 119.137 176.844 119.354 176.925 119.571C177.305 120.548 177.631 121.552 177.902 122.556C178.2 123.587 179.367 124.32 180.399 123.967C180.887 123.804 181.376 123.506 181.62 123.045C181.891 122.529 181.918 122.04 181.837 121.471C181.837 121.443 181.756 120.928 181.81 121.253C181.864 121.579 181.783 121.091 181.783 121.063C181.756 120.874 181.728 120.684 181.701 120.494C181.647 120.059 181.593 119.625 181.566 119.191C181.511 118.513 181.457 117.834 181.43 117.156C181.403 116.097 181.43 115.012 181.403 113.953C181.403 112.624 181.321 111.321 181.186 109.991C181.077 108.987 180.941 107.983 180.806 106.979C180.724 106.382 180.643 105.785 180.562 105.161C180.534 105.052 180.534 104.944 180.507 104.835C180.426 104.319 180.562 105.161 180.507 104.835C180.48 104.537 180.426 104.265 180.399 103.967C180.154 102.04 179.937 100.086 179.883 98.1321C179.856 97.128 179.856 96.151 179.937 95.1469C179.964 94.6856 179.992 94.1971 180.073 93.7357C179.964 94.3056 180.127 93.4644 180.127 93.3558C180.182 93.0844 180.209 92.8402 180.263 92.5688C180.426 91.7275 180.67 90.9134 180.941 90.1264C181.05 89.7736 181.186 89.4208 181.321 89.068C181.376 88.9052 181.43 88.7424 181.511 88.6067C181.539 88.4982 181.593 88.4167 181.62 88.3082C181.81 87.874 181.538 88.5253 181.62 88.3353C182.271 86.897 183.004 85.513 183.872 84.2104C184.117 83.8576 184.469 83.4776 184.686 83.0977C184.659 83.1249 184.388 83.4777 184.605 83.2063C184.686 83.0977 184.768 83.0163 184.849 82.9078C184.985 82.7449 185.121 82.5821 185.256 82.4193C185.826 81.768 186.423 81.1438 187.075 80.5468C187.4 80.2482 187.753 79.9498 188.106 79.6512C188.377 79.4341 188.024 79.7326 187.997 79.7326C188.106 79.6784 188.187 79.5698 188.296 79.5155C188.486 79.3799 188.676 79.2442 188.839 79.1085C189.571 78.5929 190.331 78.1587 191.145 77.7516C191.905 77.3717 192.339 76.259 192.068 75.4449C191.769 74.5493 191.037 74.0066 190.114 73.9523C189.164 73.898 188.214 73.8166 187.265 73.7081C187.047 73.6809 186.83 73.6538 186.613 73.6266C186.505 73.6266 186.396 73.5724 186.288 73.5724C186.83 73.5452 186.478 73.5995 186.315 73.5724C185.826 73.491 185.338 73.4367 184.876 73.3553C183.031 73.0296 181.213 72.6225 179.449 72.1069C178.553 71.8355 177.685 71.5642 176.816 71.2385C176.409 71.0757 176.002 70.94 175.568 70.7772C175.514 70.75 174.944 70.5329 174.944 70.5329C175.025 70.5601 175.107 70.6143 175.188 70.6415C175.107 70.6143 175.025 70.5601 174.944 70.5329C174.835 70.4786 174.7 70.4244 174.591 70.3701C172.882 69.6102 171.253 68.7418 169.679 67.7377C168.892 67.2221 168.105 66.7065 167.373 66.1366C167.291 66.0823 167.237 66.0281 167.155 65.9738C167.237 66.0552 167.617 66.2994 167.155 65.9738C166.993 65.8381 166.803 65.7024 166.64 65.5667C166.26 65.2682 165.907 64.9426 165.554 64.6169C164.876 63.9927 164.197 63.3414 163.573 62.663C162.922 61.9574 162.352 61.1975 161.728 60.4919C162.108 60.9261 161.647 60.3834 161.565 60.2477C161.429 60.0578 161.294 59.8949 161.158 59.705C160.86 59.2979 160.588 58.8908 160.317 58.4838C159.774 57.6696 159.285 56.8283 158.797 55.9871C157.847 54.3045 157.006 52.5677 156.219 50.7766C156.192 50.6952 156.138 50.6138 156.11 50.5324C156.083 50.451 156.029 50.3695 156.002 50.2881C156.11 50.5595 156.137 50.5867 156.056 50.3967C155.948 50.1525 155.839 49.8811 155.73 49.6368C155.541 49.1483 155.351 48.6599 155.161 48.1714C154.781 47.1673 154.401 46.1361 154.048 45.132C153.315 43.0423 152.637 40.9527 151.958 38.8631C151.633 37.859 150.52 37.0992 149.462 37.452C148.376 37.7505 147.616 38.836 147.969 39.9215C150.411 47.5472 152.962 55.4172 157.711 61.9574C160.127 65.2953 163.031 68.1719 166.45 70.5329C169.679 72.7582 173.289 74.4408 177.006 75.662C181.24 77.046 185.663 77.8059 190.114 78.0501C189.761 76.7746 189.436 75.5263 189.083 74.2508C182.923 77.3174 178.635 83.4234 176.762 89.9636C175.622 93.9528 175.677 98.1049 176.138 102.176C176.274 103.315 176.409 104.428 176.572 105.568C176.599 105.839 176.654 106.083 176.681 106.355C176.708 106.463 176.708 106.572 176.735 106.68C176.817 107.196 176.681 106.355 176.735 106.708C176.817 107.223 176.871 107.766 176.952 108.282C177.142 109.883 177.332 111.484 177.359 113.085C177.386 114.306 177.359 115.527 177.386 116.749C177.441 118.675 177.658 120.602 177.929 122.529C179.232 122.176 180.534 121.796 181.864 121.443C179.775 114.062 175.432 107.386 169.733 102.311C164.035 97.2094 156.979 93.4915 149.489 91.9446C145.31 91.0762 140.968 90.8049 136.734 91.3476C137.087 92.6231 137.412 93.8714 137.765 95.1469C144.441 91.4833 148.946 84.8888 151.307 77.7787C152.528 74.088 153.071 70.2616 153.369 66.3809C153.722 62.0931 153.831 57.8053 153.668 53.5175C153.478 48.6056 152.962 43.6937 151.958 38.8903C151.741 37.859 150.466 37.1535 149.462 37.4791C148.295 37.7776 147.752 38.8089 147.969 39.9215Z" fill="#231F20"/>
</g>
</svg>
