<svg width="300" height="315" viewBox="0 0 300 315" fill="none" xmlns="http://www.w3.org/2000/svg">
<g id="flecha">
<g id="Vector">
<path d="M148.205 14.1669C129.672 19.3009 112.984 30.3715 100.561 45.0142C88.0829 59.7506 79.8418 77.8909 77.8682 97.1693C75.9592 115.827 80.0345 134.948 88.6089 151.571C92.8905 159.893 98.3765 167.637 104.841 174.416C111.35 181.248 118.989 187.331 127.423 191.605C136.111 196.006 146.275 198.648 155.918 195.937C166.103 193.041 175.198 186.305 181.67 178.011C188.209 169.604 193.015 159.509 194.515 148.921C195.178 144.221 195.34 139.426 194.209 134.801C193.208 130.684 191.397 126.694 189.065 123.155C184.701 116.508 177.737 110.015 169.3 109.97C164.954 109.948 160.583 111.761 156.742 113.661C152.283 115.878 148.043 118.707 144.381 122.056C140.772 125.36 137.853 129.506 135.109 133.527C132.069 138.006 129.347 142.674 126.925 147.52C122.11 157.204 118.501 167.503 116.287 178.098C114.121 188.443 113.022 199.296 113.898 209.851C114.724 220.023 117.645 229.867 122.05 239.047C131.833 259.48 148.465 275.466 166.281 288.989C170.892 292.488 175.593 295.838 180.357 299.124C181.324 299.799 182.775 299.318 183.343 298.363C183.977 297.295 183.549 296.053 182.582 295.377C164.31 282.75 146.126 268.781 133.511 250.213C128.118 242.271 123.734 233.61 121.021 224.396C118.248 214.944 117.618 205.295 118.27 195.495C119.618 175.008 126.396 154.808 137.616 137.626C140.188 133.68 142.935 129.61 146.283 126.277C149.483 123.109 153.238 120.5 157.174 118.352C160.611 116.491 164.81 114.5 168.65 114.348C172.031 114.202 175.093 115.489 177.912 117.442C184.067 121.757 188.557 129.214 190.156 136.549C191.082 140.749 190.789 145.339 190.03 149.602C189.141 154.598 187.518 159.463 185.304 164.001C180.93 172.985 174.573 181.043 166.1 186.476C162.031 189.102 157.497 191.274 152.73 192.218C148.429 193.059 143.969 192.717 139.727 191.667C130.918 189.475 122.877 184.496 115.917 178.765C109.076 173.131 103.053 166.461 98.1181 159.07C88.2893 144.387 82.4468 127.004 81.8529 109.318C81.238 91.1123 86.4985 73.2542 96.3591 57.9764C106.186 42.7548 120.36 30.3688 136.865 22.8898C140.885 21.0709 145.038 19.5841 149.285 18.407C151.979 17.6253 150.907 13.4151 148.205 14.1669Z" fill="#212121"/>
<path d="M164.202 307.293C164.421 307.094 164.649 306.924 164.887 306.736C164.742 306.853 164.578 306.958 164.433 307.075C166.031 305.92 167.866 305.135 169.652 304.346C171.52 303.505 173.396 302.693 175.291 301.893C176.369 301.443 177.465 301.005 178.562 300.567C178.39 300.642 178.23 300.699 178.04 300.763C179.308 300.249 180.61 299.806 181.87 299.263C183.422 298.613 184.51 297.08 184.39 295.362C184.303 294.144 183.89 292.961 183.616 291.759C183.353 290.666 183.12 289.565 182.936 288.467C182.714 287.22 182.521 285.965 182.367 284.733C182.382 284.919 182.409 285.087 182.444 285.285C182.025 281.894 181.891 278.495 182.021 275.075C182.062 274.111 182.113 273.128 182.195 272.137C182.252 271.614 181.947 270.976 181.583 270.608C181.211 270.21 180.578 269.91 180.029 269.939C179.48 269.967 178.902 270.13 178.5 270.551C178.087 270.99 177.884 271.503 177.831 272.104C177.32 278.339 177.714 284.63 178.952 290.738C179.116 291.57 179.31 292.395 179.505 293.22C179.71 294.026 179.983 294.847 180.098 295.676C180.083 295.489 180.056 295.321 180.021 295.123C180.045 295.34 180.049 295.545 180.032 295.788C180.064 295.605 180.078 295.411 180.111 295.228C180.09 295.392 180.049 295.545 179.99 295.688C180.071 295.508 180.153 295.328 180.215 295.137C180.167 295.261 180.09 295.392 180.004 295.493C180.123 295.336 180.242 295.178 180.379 295.032C180.283 295.152 180.179 295.242 180.074 295.332C180.22 295.216 180.384 295.111 180.529 294.994C180.261 295.19 179.977 295.325 179.675 295.45C179.847 295.375 180.007 295.318 180.197 295.253C175.139 297.241 170.074 299.199 165.193 301.571C163.776 302.25 162.438 303.052 161.24 304.088C160.823 304.449 160.579 305.115 160.57 305.642C160.561 306.169 160.788 306.811 161.182 307.171C162.016 308.072 163.275 308.085 164.202 307.293Z" fill="#212121"/>
</g>
</g>
</svg>
