<svg width="322" height="695" viewBox="0 0 322 695" fill="none" xmlns="http://www.w3.org/2000/svg">
<rect x="0.5" y="0.5" width="320.149" height="694" fill="white"/>
<rect x="0.5" y="0.5" width="320.149" height="694" stroke="black"/>
<g clip-path="url(#clip0_1154_4492)">
<path d="M216.494 151.647C216.813 151.647 216.972 151.647 217.131 151.806C217.45 151.965 217.45 152.125 217.45 152.443C217.45 152.602 217.29 152.762 217.131 152.921C216.972 152.921 216.972 153.08 216.813 153.08C216.972 153.08 217.131 153.239 217.291 153.398C217.45 153.558 217.45 153.717 217.45 153.717V153.876V154.035V154.195H216.972V154.035V153.876C216.972 153.558 216.972 153.398 216.813 153.239C216.653 153.239 216.494 153.239 216.335 153.239H216.016V154.195H215.538V151.647H216.494ZM216.813 152.125C216.653 152.125 216.494 151.965 216.335 151.965H216.016V152.921H216.335C216.494 152.921 216.653 152.921 216.813 152.921C216.972 152.921 217.131 152.762 217.131 152.602C217.131 152.284 216.972 152.125 216.813 152.125ZM218.087 154.513C217.609 154.991 217.131 155.15 216.494 155.15C215.857 155.15 215.379 154.991 214.901 154.513C214.423 154.035 214.264 153.558 214.264 152.921C214.264 152.284 214.423 151.806 214.901 151.328C215.379 150.851 215.857 150.691 216.494 150.691C217.131 150.691 217.609 150.851 218.087 151.328C218.565 151.806 218.724 152.284 218.724 152.921C218.724 153.558 218.565 154.035 218.087 154.513ZM215.06 151.488C214.742 151.806 214.423 152.284 214.423 152.921C214.423 153.398 214.582 153.876 215.06 154.354C215.379 154.672 215.857 154.991 216.494 154.991C216.972 154.991 217.45 154.832 217.928 154.354C218.246 153.876 218.406 153.558 218.406 152.921C218.406 152.443 218.246 151.965 217.768 151.488C217.45 151.169 216.972 150.851 216.335 150.851C215.857 151.01 215.538 151.169 215.06 151.488Z" fill="black"/>
<path d="M135.09 150.852H146.879V153.877H142.737V176.011H139.232V153.877H135.09V150.852Z" fill="black"/>
<path d="M151.977 150.852H155.322V172.827H163.925V176.011H151.977V150.852Z" fill="black"/>
<path d="M110.079 162.476C112.309 161.839 113.105 159.451 113.105 157.54C113.105 153.081 111.034 150.852 106.574 150.852H102.113V176.011H107.689C111.194 176.011 113.902 173.145 113.902 169.164C113.743 165.661 112.309 163.113 110.079 162.476ZM105.299 153.559H107.53C108.008 153.559 110.079 155.151 110.079 157.38C110.079 159.132 108.645 161.043 107.53 161.043L105.299 161.202V153.559ZM107.37 173.145H105.299V163.909H107.37C108.008 163.909 110.397 165.342 110.397 169.005C110.397 172.03 108.167 173.145 107.37 173.145Z" fill="black"/>
<path d="M169.023 150.852H180.812V153.718H172.21V161.202H180.812V164.228H172.21V172.986H180.812V176.011H169.023V150.852Z" fill="black"/>
<path d="M213.948 155.946L210.762 157.22C210.762 155.628 209.806 153.717 208.372 153.717C206.301 153.717 204.708 156.743 207.416 159.609C209.009 161.36 212.036 164.068 213.151 165.66C214.107 167.093 214.266 168.367 214.266 169.8C214.266 173.463 211.558 176.17 208.372 176.17C206.46 176.17 202.318 175.055 202.318 170.278L205.504 169.482C205.504 171.87 206.938 173.144 208.372 173.144C209.806 173.144 210.762 171.711 210.762 169.8C210.762 166.934 204.867 162.634 203.911 160.883C203.434 159.927 202.478 158.335 202.478 156.583C202.478 152.921 205.664 150.691 208.372 150.691C212.833 150.691 213.788 154.672 213.948 155.946Z" fill="black"/>
<path d="M194.033 163.75C196.741 163.113 197.856 160.724 197.856 157.858C197.856 154.196 196.104 150.852 191.484 150.852H185.908V176.011H188.935V164.228H190.528L194.989 176.011H198.812L194.033 163.75ZM190.687 161.521H188.935V153.718H190.687C193.714 153.718 194.67 155.788 194.67 157.858C194.67 160.724 192.918 161.521 190.687 161.521Z" fill="black"/>
<path d="M124.097 176.171C119.637 176.171 118.203 172.986 118.203 168.527V150.852H121.389V168.527C121.389 170.597 122.026 172.986 124.097 172.986C126.168 172.986 126.806 170.597 126.806 168.527V150.852H129.992V168.527C129.992 172.986 128.558 176.171 124.097 176.171Z" fill="black"/>
<path d="M124.097 176.171C119.637 176.171 118.203 172.986 118.203 168.527V150.852H121.389V168.527C121.389 170.597 122.026 172.986 124.097 172.986C126.168 172.986 126.806 170.597 126.806 168.527V150.852H129.992V168.527C129.992 172.986 128.558 176.171 124.097 176.171Z" fill="black"/>
<path d="M213.948 155.946L210.762 157.22C210.762 155.628 209.806 153.717 208.372 153.717C206.301 153.717 204.708 156.743 207.416 159.609C209.009 161.36 212.036 164.068 213.151 165.66C214.107 167.093 214.266 168.367 214.266 169.8C214.266 173.463 211.558 176.17 208.372 176.17C206.46 176.17 202.318 175.055 202.318 170.278L205.504 169.482C205.504 171.87 206.938 173.144 208.372 173.144C209.806 173.144 210.762 171.711 210.762 169.8C210.762 166.934 204.867 162.634 203.911 160.883C203.434 159.927 202.478 158.335 202.478 156.583C202.478 152.921 205.664 150.691 208.372 150.691C212.833 150.691 213.788 154.672 213.948 155.946Z" fill="black"/>
<path d="M151.977 150.852H155.322V172.827H163.925V176.011H151.977V150.852Z" fill="black"/>
<path d="M135.09 150.852H146.879V153.877H142.737V176.011H139.232V153.877H135.09V150.852Z" fill="black"/>
</g>
<path d="M259.699 102.494C259.699 119.636 245.833 133.447 228.746 133.447C211.658 133.447 197.793 119.581 197.793 102.494C197.793 85.4075 211.658 71.541 228.746 71.541C245.833 71.541 259.699 85.3529 259.699 102.494Z" fill="#F45334"/>
<path d="M237.312 83.7598C236.716 83.7598 235.904 83.8142 235.362 84.0861C235.199 84.1948 234.982 84.3033 234.819 84.4111C234.441 84.7374 234.116 85.1175 233.79 85.4981C233.681 85.6059 233.574 85.7689 233.52 85.9319C232.869 87.0176 232.165 88.0487 231.677 89.1888C231.19 90.3832 230.701 91.5232 230.214 92.772C229.347 95.1065 228.588 97.5499 227.992 99.993C227.884 100.373 227.83 100.753 227.721 101.187C227.072 103.956 227.017 106.562 231.46 106.183C234.549 105.911 237.584 105.096 240.564 104.228L240.238 106.345C240.13 107.268 239.533 111.611 239.48 112.534C239.372 113.674 239.263 114.923 239.318 116.117C239.318 116.552 239.318 116.931 239.372 117.367C239.426 117.637 239.481 118.071 239.697 118.343C240.022 118.723 240.726 118.832 241.376 118.723C242.135 118.561 242.569 118.506 243.165 117.963C243.652 117.528 243.978 116.769 244.302 116.117C244.737 115.14 245.061 114.163 245.333 112.805C245.766 110.743 246.632 105.368 246.958 103.304C247.012 103.088 247.067 102.816 247.067 102.545C247.608 102.436 248.15 102.273 248.692 102.164C249.884 101.893 251.076 101.73 252.268 101.676C252.973 101.622 253.731 101.621 254.435 101.621C254.815 101.621 256.495 101.948 256.441 101.079C256.495 99.721 254.815 99.396 253.839 99.287C252.81 99.1784 251.726 99.2872 250.75 99.4504C250.426 99.5047 250.047 99.5588 249.721 99.6134C249.071 99.7209 248.42 99.8842 247.717 100.047C248.259 97.1156 248.964 93.9124 249.56 91.3071C249.993 89.2978 249.776 86.6915 249.017 85.3893C248.801 85.0084 247.609 84.6833 246.958 84.9008C246.471 85.063 245.712 85.8232 245.333 86.4749C244.844 87.2885 244.248 88.646 244.032 89.1888C242.731 93.2061 242.081 96.8439 241.214 101.024C241.16 101.187 241.16 101.405 241.106 101.567C240.726 101.676 240.293 101.73 239.914 101.839C238.559 102.11 237.204 102.599 235.795 102.761C235.199 102.816 234.44 103.088 234.116 102.491C233.899 102.057 234.17 101.187 234.277 100.753C234.603 99.4501 234.982 98.147 235.47 96.8436C237.584 91.2524 238.234 90.2748 238.776 86.8546C238.884 86.0942 238.884 85.2805 238.559 84.5199C238.288 83.8685 237.854 83.7598 237.312 83.7598ZM216.371 85.7438C212.315 85.7483 207.494 88.8298 205.341 91.5776C204.042 93.2061 208.972 93.8033 210.11 92.7178C212.549 89.4608 216.775 87.2355 217.317 92.284C217.534 94.3476 216.884 96.5732 216.071 98.4736C214.012 103.251 211.193 107.377 208.593 111.72C206.859 114.542 205.83 117.854 209.46 119.049C210.597 119.429 211.79 119.647 212.982 119.592C214.391 119.538 215.746 119.212 217.1 118.941C219.16 118.506 221.218 118.126 223.278 117.746C224.361 117.583 225.391 117.366 226.475 117.258C227.829 117.149 229.238 117.149 230.593 117.312C231.135 117.366 231.677 117.528 232.219 117.583C232.706 117.637 233.844 116.823 233.899 116.28C233.953 115.683 232.706 115.194 232.219 115.032C231.297 114.651 230.213 114.435 229.239 114.38C227.613 114.326 226.15 114.489 224.578 114.814C223.006 115.14 221.435 115.466 219.864 115.737C218.346 116.008 216.83 116.497 215.312 116.606C212.657 116.824 213.307 116.552 214.824 113.674C216.342 110.851 218.346 107.268 220.189 103.794C222.627 99.2327 224.307 94.3475 221.868 89.2434C220.681 86.7071 218.646 85.7412 216.371 85.7438Z" fill="white"/>
<path d="M192.677 112.376C192.623 112.43 192.568 112.43 192.568 112.483C190.448 114.385 183.818 119.002 181.7 114.494C180.831 112.647 180.939 110.202 180.939 108.193C180.939 106.509 181.102 104.717 181.211 102.924C184.254 102.87 188.601 100.099 188.655 93.3095C188.655 89.018 184.525 88.747 183.438 88.747C174.69 88.6926 172.842 101.837 172.788 107.812V108.41C170.56 112.483 168.115 116.123 165.833 116.178C164.691 116.232 164.203 114.385 164.203 112.158C164.203 108.247 165.506 103.902 166.104 99.7734C166.701 95.6452 166.104 92.8752 162.898 92.7118C155.291 92.331 150.998 102.761 150.616 103.359C150.78 97.872 149.15 94.6132 144.097 94.5045C140.563 94.3955 136.978 99.8821 136.978 99.8821V98.7417C137.031 96.4059 136.76 91.0827 132.413 91.0827H132.358C131.217 91.0827 129.207 92.1688 127.36 93.2005C124.642 94.7211 118.882 96.3516 118.556 95.8629C116.165 92.331 112.904 91.5168 110.731 91.2447C106.113 90.7017 102.417 92.5487 102.145 95.0476C102.09 95.8629 102.417 96.5682 102.743 97.0033C101.656 97.7086 100.733 98.9037 99.8628 100.425C98.8851 102 98.015 104.988 97.5261 106.509C96.9829 108.139 96.385 109.442 95.4617 111.072C94.2662 113.299 92.2552 116.666 90.4075 117.59C89.8098 117.861 88.7775 118.242 88.2886 117.481C87.7454 116.613 88.1255 114.06 88.4509 112.756C88.8865 111.017 89.5388 108.084 89.973 106.346C90.5165 104.174 90.9507 101.511 91.2775 99.5557C91.6574 96.7856 91.4398 93.7438 88.8865 92.2778C85.4087 90.2674 81.1155 91.1904 78.1269 93.6894C76.2248 95.2653 75.0292 97.2199 73.6159 99.719C73.1815 100.48 72.3125 102.327 72.3125 102.327C72.3125 102.327 73.0181 97.2743 73.1815 95.9162C74.3226 87.3342 75.3547 78.9689 77.1481 70.4946C77.529 68.5943 78.1813 67.0185 78.1269 65.0091C78.0725 63.922 77.8547 63.2167 77.4203 62.8903C75.9526 61.5863 72.5292 64.7371 71.4971 66.4208C69.2148 70.2236 68.1283 74.7318 67.1495 79.0233C64.324 91.8424 61.8242 118.459 61.7696 119.002C61.7163 120.306 61.8786 122.642 63.9986 122.805C65.1394 122.859 65.7917 122.859 67.5305 122.153C69.2695 121.446 70.2472 119.926 71.0626 117.916C71.9859 115.743 73.1271 112.756 74.0515 110.311C74.9749 107.867 75.5181 106.129 76.6046 104.119C77.4746 102.489 78.9412 100.534 80.8434 99.9367C81.55 99.719 83.0177 99.447 82.7455 100.642C82.6368 101.132 81.0068 106.998 80.6267 108.682C80.3545 109.822 80.0834 111.181 79.8657 112.321C78.7789 118.404 82.7999 124.434 89.5921 122.371C92.7985 121.392 95.2439 119.219 97.0917 116.613C97.3627 116.232 97.6349 115.798 97.9062 115.363C99.5917 120.849 104.536 122.642 106.981 122.75C111.22 122.968 120.241 120.035 120.295 103.956C120.295 102.815 120.132 101.023 120.023 100.099C120.023 100.208 123.555 99.6644 126.164 98.796C126.871 98.5783 127.468 98.3063 128.012 98.0353C126.653 104.336 126.381 113.516 126.273 116.884C126.164 121.936 127.25 122.75 128.99 122.805C129.805 122.805 130.892 122.642 130.892 122.642C134.912 121.501 134.912 118.622 134.912 118.622C135.185 105.151 142.249 98.3063 143.825 98.3606C144.313 98.3606 144.422 98.9583 144.477 99.8277C144.531 102.815 143.933 105.803 142.52 111.072C141.759 113.842 141.27 116.015 141.27 117.373C141.161 121.827 143.825 122.153 144.313 122.207H144.368C146.977 122.262 147.465 119.871 147.465 119.871C153.062 102.272 158.007 99.9367 158.007 99.9367C157.029 104.445 155.942 109.17 155.834 113.136C155.725 118.351 157.682 122.968 163.658 122.696C167.191 122.534 170.615 118.622 173.277 114.494C175.07 122.153 180.07 122.859 182.134 122.859C185.721 122.859 189.198 121.23 191.589 118.622C192.296 117.861 193.002 117.047 193.6 116.232C194.089 115.58 195.285 114.168 195.339 113.353C195.503 111.506 193.6 111.669 192.676 112.376H192.677ZM182.352 93.3638C182.677 92.7664 183.493 92.1144 184.091 92.1144C184.58 92.1144 184.961 92.4941 184.961 93.5261C184.906 98.4696 182.08 99.0126 181.591 99.1214C181.863 97.0033 181.645 94.8842 182.352 93.3638ZM112.904 106.726C112.579 112.592 111.274 118.513 108.666 118.404C106.438 118.351 105.351 114.168 105.351 110.04C105.351 105.151 107.416 99.1757 107.416 99.1757C107.416 99.1757 109.047 99.5557 109.861 99.6644C110.622 99.7734 112.361 99.8821 112.361 99.8821C112.796 101.566 113.068 103.793 112.904 106.726Z" fill="#354044"/>
<path d="M86.0078 259.215C85.9049 258.9 85.7692 258.618 85.6008 258.368C85.4355 258.116 85.2374 257.9 85.0066 257.723C84.7789 257.545 84.52 257.409 84.2299 257.315C83.9398 257.222 83.6217 257.175 83.2755 257.175C82.7078 257.175 82.1916 257.322 81.7268 257.615C81.262 257.908 80.8924 258.34 80.6179 258.911C80.3434 259.482 80.2062 260.182 80.2062 261.012C80.2062 261.841 80.345 262.542 80.6226 263.112C80.9002 263.683 81.2761 264.115 81.7502 264.408C82.2243 264.702 82.7577 264.848 83.3503 264.848C83.8993 264.848 84.3828 264.731 84.8007 264.497C85.2218 264.26 85.5493 263.927 85.7833 263.496C86.0203 263.063 86.1389 262.553 86.1389 261.966L86.4944 262.041H83.6123V261.012H87.2618V262.041C87.2618 262.83 87.0933 263.516 86.7564 264.1C86.4227 264.683 85.9611 265.135 85.3715 265.457C84.7851 265.775 84.1114 265.934 83.3503 265.934C82.5019 265.934 81.7564 265.734 81.1139 265.335C80.4744 264.936 79.9754 264.368 79.6167 263.632C79.2611 262.896 79.0833 262.022 79.0833 261.012C79.0833 260.254 79.1847 259.572 79.3874 258.967C79.5933 258.359 79.8834 257.841 80.2577 257.414C80.632 256.986 81.0749 256.659 81.5864 256.431C82.098 256.204 82.661 256.09 83.2755 256.09C83.7808 256.09 84.2518 256.166 84.6884 256.319C85.1282 256.469 85.5197 256.682 85.8628 256.96C86.209 257.234 86.4976 257.563 86.7284 257.947C86.9592 258.328 87.1183 258.75 87.2056 259.215H86.0078ZM92.1124 265.952C91.42 265.952 90.8227 265.8 90.3205 265.494C89.8214 265.185 89.4362 264.755 89.1648 264.203C88.8966 263.647 88.7625 263.002 88.7625 262.266C88.7625 261.529 88.8966 260.881 89.1648 260.319C89.4362 259.755 89.8136 259.315 90.2971 259C90.7837 258.682 91.3514 258.523 92.0002 258.523C92.3745 258.523 92.7441 258.585 93.109 258.71C93.474 258.835 93.8062 259.037 94.1056 259.318C94.405 259.596 94.6437 259.964 94.8214 260.422C94.9992 260.881 95.0881 261.445 95.0881 262.116V262.584H89.5485V261.629H93.9652C93.9652 261.224 93.8841 260.862 93.7219 260.544C93.5629 260.226 93.3352 259.975 93.0388 259.791C92.7456 259.607 92.3994 259.514 92.0002 259.514C91.5604 259.514 91.1798 259.624 90.8585 259.842C90.5404 260.057 90.2955 260.338 90.124 260.684C89.9524 261.03 89.8666 261.402 89.8666 261.798V262.434C89.8666 262.977 89.9602 263.437 90.1474 263.814C90.3376 264.189 90.6012 264.474 90.9381 264.67C91.275 264.864 91.6664 264.961 92.1124 264.961C92.4025 264.961 92.6645 264.92 92.8985 264.839C93.1355 264.755 93.3398 264.63 93.5114 264.465C93.6829 264.296 93.8155 264.087 93.9091 263.838L94.9758 264.137C94.8636 264.499 94.6748 264.817 94.4097 265.092C94.1446 265.363 93.8171 265.575 93.4272 265.728C93.0373 265.878 92.599 265.952 92.1124 265.952ZM99.8932 258.616V259.552H96.1689V258.616H99.8932ZM97.2544 256.894H98.3586V263.744C98.3586 264.056 98.4038 264.29 98.4943 264.446C98.5878 264.599 98.7064 264.702 98.8498 264.755C98.9964 264.805 99.1508 264.83 99.313 264.83C99.4347 264.83 99.5345 264.823 99.6125 264.811C99.6905 264.795 99.7528 264.783 99.7996 264.773L100.024 265.765C99.9494 265.793 99.8449 265.821 99.7107 265.85C99.5766 265.881 99.4066 265.896 99.2008 265.896C98.8888 265.896 98.5832 265.829 98.2837 265.695C97.9874 265.561 97.741 265.357 97.5445 265.082C97.3511 264.808 97.2544 264.461 97.2544 264.044V256.894ZM105.971 268.498C105.784 268.498 105.617 268.482 105.47 268.451C105.324 268.423 105.222 268.395 105.166 268.367L105.447 267.394C105.715 267.462 105.952 267.487 106.158 267.468C106.364 267.45 106.546 267.358 106.705 267.192C106.868 267.03 107.016 266.767 107.15 266.402L107.356 265.84L104.698 258.616H105.896L107.88 264.343H107.955L109.938 258.616H111.136L108.086 266.851C107.948 267.222 107.778 267.529 107.576 267.772C107.373 268.019 107.137 268.201 106.869 268.32C106.604 268.438 106.305 268.498 105.971 268.498ZM115.256 265.952C114.607 265.952 114.038 265.798 113.548 265.489C113.062 265.18 112.681 264.748 112.407 264.193C112.135 263.638 111.999 262.989 111.999 262.247C111.999 261.498 112.135 260.845 112.407 260.286C112.681 259.728 113.062 259.295 113.548 258.986C114.038 258.677 114.607 258.523 115.256 258.523C115.905 258.523 116.472 258.677 116.959 258.986C117.449 259.295 117.829 259.728 118.101 260.286C118.375 260.845 118.512 261.498 118.512 262.247C118.512 262.989 118.375 263.638 118.101 264.193C117.829 264.748 117.449 265.18 116.959 265.489C116.472 265.798 115.905 265.952 115.256 265.952ZM115.256 264.961C115.749 264.961 116.154 264.834 116.472 264.582C116.791 264.329 117.026 263.997 117.179 263.585C117.332 263.173 117.408 262.727 117.408 262.247C117.408 261.767 117.332 261.319 117.179 260.904C117.026 260.489 116.791 260.154 116.472 259.898C116.154 259.642 115.749 259.514 115.256 259.514C114.763 259.514 114.358 259.642 114.039 259.898C113.721 260.154 113.486 260.489 113.333 260.904C113.18 261.319 113.104 261.767 113.104 262.247C113.104 262.727 113.18 263.173 113.333 263.585C113.486 263.997 113.721 264.329 114.039 264.582C114.358 264.834 114.763 264.961 115.256 264.961ZM124.727 262.864V258.616H125.831V265.803H124.727V264.586H124.652C124.484 264.951 124.222 265.262 123.866 265.517C123.51 265.77 123.061 265.896 122.518 265.896C122.069 265.896 121.67 265.798 121.321 265.602C120.971 265.402 120.697 265.102 120.497 264.703C120.298 264.301 120.198 263.794 120.198 263.183V258.616H121.302V263.108C121.302 263.632 121.449 264.05 121.742 264.362C122.038 264.674 122.416 264.83 122.874 264.83C123.149 264.83 123.428 264.759 123.712 264.619C123.999 264.479 124.239 264.263 124.432 263.973C124.629 263.683 124.727 263.314 124.727 262.864ZM127.853 265.803V258.616H128.92V259.702H128.995C129.126 259.346 129.363 259.058 129.706 258.836C130.049 258.615 130.436 258.504 130.867 258.504C130.948 258.504 131.049 258.505 131.171 258.509C131.292 258.512 131.384 258.516 131.447 258.523V259.646C131.409 259.636 131.323 259.622 131.189 259.603C131.058 259.582 130.92 259.571 130.773 259.571C130.424 259.571 130.112 259.644 129.837 259.791C129.566 259.934 129.351 260.134 129.192 260.389C129.036 260.642 128.958 260.931 128.958 261.255V265.803H127.853ZM139.811 256.221V265.803H138.651V257.437H138.595L136.255 258.99V257.811L138.651 256.221H139.811ZM145.692 265.934C144.987 265.934 144.387 265.742 143.891 265.358C143.395 264.971 143.016 264.412 142.754 263.679C142.492 262.942 142.361 262.053 142.361 261.012C142.361 259.976 142.492 259.092 142.754 258.359C143.019 257.623 143.4 257.061 143.896 256.674C144.395 256.285 144.994 256.09 145.692 256.09C146.391 256.09 146.988 256.285 147.484 256.674C147.983 257.061 148.364 257.623 148.626 258.359C148.891 259.092 149.024 259.976 149.024 261.012C149.024 262.053 148.893 262.942 148.631 263.679C148.369 264.412 147.99 264.971 147.494 265.358C146.998 265.742 146.397 265.934 145.692 265.934ZM145.692 264.904C146.391 264.904 146.934 264.568 147.321 263.894C147.707 263.22 147.901 262.259 147.901 261.012C147.901 260.182 147.812 259.476 147.634 258.892C147.459 258.309 147.207 257.864 146.876 257.559C146.549 257.253 146.154 257.1 145.692 257.1C145 257.1 144.459 257.442 144.069 258.125C143.679 258.805 143.484 259.767 143.484 261.012C143.484 261.841 143.571 262.546 143.746 263.126C143.921 263.707 144.172 264.148 144.499 264.451C144.83 264.753 145.228 264.904 145.692 264.904ZM155.686 264.006V263.501C155.686 263.151 155.758 262.832 155.901 262.542C156.048 262.248 156.26 262.015 156.538 261.84C156.818 261.662 157.158 261.573 157.558 261.573C157.963 261.573 158.303 261.662 158.578 261.84C158.852 262.015 159.059 262.248 159.2 262.542C159.34 262.832 159.41 263.151 159.41 263.501V264.006C159.41 264.355 159.339 264.677 159.195 264.97C159.055 265.26 158.846 265.494 158.568 265.672C158.294 265.846 157.957 265.934 157.558 265.934C157.152 265.934 156.811 265.846 156.533 265.672C156.255 265.494 156.045 265.26 155.901 264.97C155.758 264.677 155.686 264.355 155.686 264.006ZM156.641 263.501V264.006C156.641 264.296 156.709 264.557 156.846 264.787C156.984 265.015 157.221 265.129 157.558 265.129C157.885 265.129 158.116 265.015 158.25 264.787C158.387 264.557 158.456 264.296 158.456 264.006V263.501C158.456 263.211 158.39 262.952 158.259 262.724C158.128 262.493 157.894 262.378 157.558 262.378C157.23 262.378 156.995 262.493 156.851 262.724C156.711 262.952 156.641 263.211 156.641 263.501ZM150.914 258.523V258.017C150.914 257.668 150.986 257.348 151.129 257.058C151.276 256.765 151.488 256.531 151.765 256.356C152.046 256.179 152.386 256.09 152.785 256.09C153.191 256.09 153.531 256.179 153.805 256.356C154.08 256.531 154.287 256.765 154.428 257.058C154.568 257.348 154.638 257.668 154.638 258.017V258.523C154.638 258.872 154.566 259.193 154.423 259.486C154.282 259.777 154.074 260.01 153.796 260.188C153.521 260.363 153.185 260.45 152.785 260.45C152.38 260.45 152.038 260.363 151.761 260.188C151.483 260.01 151.272 259.777 151.129 259.486C150.986 259.193 150.914 258.872 150.914 258.523ZM151.868 258.017V258.523C151.868 258.813 151.937 259.073 152.074 259.304C152.211 259.532 152.448 259.646 152.785 259.646C153.113 259.646 153.344 259.532 153.478 259.304C153.615 259.073 153.684 258.813 153.684 258.523V258.017C153.684 257.727 153.618 257.468 153.487 257.241C153.356 257.01 153.122 256.894 152.785 256.894C152.458 256.894 152.222 257.01 152.079 257.241C151.938 257.468 151.868 257.727 151.868 258.017ZM151.269 265.803L157.857 256.221H158.924L152.336 265.803H151.269ZM168.15 265.952C167.502 265.952 166.932 265.798 166.443 265.489C165.956 265.18 165.575 264.748 165.301 264.193C165.03 263.638 164.894 262.989 164.894 262.247C164.894 261.498 165.03 260.845 165.301 260.286C165.575 259.728 165.956 259.295 166.443 258.986C166.932 258.677 167.502 258.523 168.15 258.523C168.799 258.523 169.367 258.677 169.853 258.986C170.343 259.295 170.724 259.728 170.995 260.286C171.269 260.845 171.407 261.498 171.407 262.247C171.407 262.989 171.269 263.638 170.995 264.193C170.724 264.748 170.343 265.18 169.853 265.489C169.367 265.798 168.799 265.952 168.15 265.952ZM168.15 264.961C168.643 264.961 169.049 264.834 169.367 264.582C169.685 264.329 169.92 263.997 170.073 263.585C170.226 263.173 170.303 262.727 170.303 262.247C170.303 261.767 170.226 261.319 170.073 260.904C169.92 260.489 169.685 260.154 169.367 259.898C169.049 259.642 168.643 259.514 168.15 259.514C167.657 259.514 167.252 259.642 166.934 259.898C166.616 260.154 166.38 260.489 166.227 260.904C166.074 261.319 165.998 261.767 165.998 262.247C165.998 262.727 166.074 263.173 166.227 263.585C166.38 263.997 166.616 264.329 166.934 264.582C167.252 264.834 167.657 264.961 168.15 264.961ZM176.292 258.616V259.552H172.418V258.616H176.292ZM173.579 265.803V257.624C173.579 257.213 173.676 256.869 173.869 256.595C174.062 256.32 174.313 256.115 174.622 255.977C174.931 255.84 175.257 255.771 175.6 255.771C175.871 255.771 176.093 255.793 176.264 255.837C176.436 255.881 176.564 255.921 176.648 255.959L176.33 256.913C176.274 256.894 176.196 256.871 176.096 256.843C175.999 256.815 175.871 256.801 175.712 256.801C175.347 256.801 175.084 256.893 174.922 257.077C174.763 257.261 174.683 257.531 174.683 257.886V265.803H173.579ZM184.259 265.952C183.66 265.952 183.132 265.801 182.673 265.499C182.215 265.193 181.856 264.762 181.597 264.207C181.338 263.649 181.209 262.989 181.209 262.228C181.209 261.473 181.338 260.818 181.597 260.263C181.856 259.708 182.216 259.279 182.678 258.976C183.139 258.674 183.673 258.523 184.278 258.523C184.746 258.523 185.115 258.601 185.387 258.757C185.661 258.909 185.87 259.084 186.014 259.281C186.16 259.474 186.274 259.633 186.355 259.758H186.449V256.221H187.553V265.803H186.486V264.699H186.355C186.274 264.83 186.159 264.995 186.009 265.194C185.859 265.391 185.646 265.567 185.368 265.723C185.09 265.876 184.721 265.952 184.259 265.952ZM184.409 264.961C184.852 264.961 185.226 264.845 185.532 264.614C185.838 264.38 186.07 264.058 186.229 263.646C186.388 263.231 186.468 262.752 186.468 262.209C186.468 261.673 186.39 261.204 186.234 260.801C186.078 260.396 185.847 260.081 185.541 259.856C185.236 259.628 184.858 259.514 184.409 259.514C183.941 259.514 183.551 259.635 183.239 259.875C182.93 260.112 182.698 260.435 182.542 260.843C182.389 261.249 182.313 261.704 182.313 262.209C182.313 262.721 182.391 263.186 182.547 263.604C182.706 264.019 182.94 264.349 183.249 264.596C183.561 264.839 183.947 264.961 184.409 264.961ZM189.729 265.803V258.616H190.833V265.803H189.729ZM190.29 257.418C190.075 257.418 189.889 257.345 189.733 257.199C189.581 257.052 189.504 256.876 189.504 256.67C189.504 256.464 189.581 256.288 189.733 256.141C189.889 255.995 190.075 255.921 190.29 255.921C190.505 255.921 190.689 255.995 190.842 256.141C190.998 256.288 191.076 256.464 191.076 256.67C191.076 256.876 190.998 257.052 190.842 257.199C190.689 257.345 190.505 257.418 190.29 257.418ZM197.946 260.226L196.954 260.506C196.891 260.341 196.799 260.18 196.678 260.024C196.559 259.865 196.397 259.734 196.191 259.631C195.985 259.529 195.722 259.477 195.4 259.477C194.961 259.477 194.594 259.578 194.301 259.781C194.011 259.981 193.866 260.235 193.866 260.544C193.866 260.818 193.966 261.035 194.165 261.194C194.365 261.353 194.677 261.486 195.101 261.592L196.168 261.854C196.81 262.01 197.289 262.248 197.604 262.57C197.919 262.888 198.077 263.298 198.077 263.8C198.077 264.212 197.958 264.58 197.721 264.904C197.487 265.229 197.16 265.485 196.739 265.672C196.318 265.859 195.828 265.952 195.269 265.952C194.536 265.952 193.93 265.793 193.449 265.475C192.969 265.157 192.665 264.692 192.537 264.081L193.585 263.819C193.685 264.206 193.874 264.496 194.151 264.689C194.432 264.883 194.799 264.979 195.251 264.979C195.765 264.979 196.174 264.87 196.477 264.652C196.782 264.43 196.935 264.165 196.935 263.856C196.935 263.607 196.848 263.398 196.673 263.229C196.498 263.058 196.23 262.93 195.868 262.846L194.671 262.565C194.012 262.409 193.529 262.167 193.22 261.84C192.915 261.509 192.762 261.096 192.762 260.6C192.762 260.194 192.876 259.836 193.103 259.524C193.334 259.212 193.648 258.967 194.044 258.789C194.443 258.611 194.895 258.523 195.4 258.523C196.112 258.523 196.67 258.679 197.075 258.99C197.484 259.302 197.774 259.714 197.946 260.226ZM202.658 265.952C201.985 265.952 201.405 265.793 200.918 265.475C200.431 265.157 200.057 264.719 199.795 264.16C199.533 263.602 199.402 262.964 199.402 262.247C199.402 261.517 199.536 260.873 199.804 260.315C200.076 259.753 200.453 259.315 200.937 259C201.423 258.682 201.991 258.523 202.64 258.523C203.145 258.523 203.6 258.616 204.006 258.803C204.411 258.99 204.744 259.252 205.002 259.589C205.261 259.926 205.422 260.319 205.484 260.768H204.38C204.296 260.441 204.109 260.151 203.819 259.898C203.532 259.642 203.145 259.514 202.658 259.514C202.228 259.514 201.851 259.627 201.526 259.851C201.205 260.073 200.954 260.386 200.773 260.792C200.595 261.194 200.506 261.667 200.506 262.209C200.506 262.765 200.594 263.248 200.768 263.66C200.946 264.072 201.196 264.391 201.517 264.619C201.841 264.847 202.222 264.961 202.658 264.961C202.945 264.961 203.206 264.911 203.44 264.811C203.674 264.711 203.872 264.568 204.034 264.38C204.196 264.193 204.312 263.969 204.38 263.707H205.484C205.422 264.131 205.268 264.513 205.021 264.853C204.778 265.19 204.455 265.458 204.053 265.658C203.653 265.854 203.189 265.952 202.658 265.952ZM210.018 265.952C209.344 265.952 208.764 265.793 208.278 265.475C207.791 265.157 207.417 264.719 207.155 264.16C206.893 263.602 206.762 262.964 206.762 262.247C206.762 261.517 206.896 260.873 207.164 260.315C207.435 259.753 207.813 259.315 208.296 259C208.783 258.682 209.351 258.523 209.999 258.523C210.505 258.523 210.96 258.616 211.366 258.803C211.771 258.99 212.103 259.252 212.362 259.589C212.621 259.926 212.782 260.319 212.844 260.768H211.74C211.656 260.441 211.468 260.151 211.178 259.898C210.891 259.642 210.505 259.514 210.018 259.514C209.588 259.514 209.21 259.627 208.886 259.851C208.565 260.073 208.313 260.386 208.133 260.792C207.955 261.194 207.866 261.667 207.866 262.209C207.866 262.765 207.953 263.248 208.128 263.66C208.306 264.072 208.555 264.391 208.876 264.619C209.201 264.847 209.581 264.961 210.018 264.961C210.305 264.961 210.565 264.911 210.799 264.811C211.033 264.711 211.231 264.568 211.394 264.38C211.556 264.193 211.671 263.969 211.74 263.707H212.844C212.782 264.131 212.627 264.513 212.381 264.853C212.138 265.19 211.815 265.458 211.412 265.658C211.013 265.854 210.548 265.952 210.018 265.952ZM217.378 265.952C216.729 265.952 216.16 265.798 215.67 265.489C215.183 265.18 214.803 264.748 214.528 264.193C214.257 263.638 214.121 262.989 214.121 262.247C214.121 261.498 214.257 260.845 214.528 260.286C214.803 259.728 215.183 259.295 215.67 258.986C216.16 258.677 216.729 258.523 217.378 258.523C218.027 258.523 218.594 258.677 219.081 258.986C219.571 259.295 219.951 259.728 220.222 260.286C220.497 260.845 220.634 261.498 220.634 262.247C220.634 262.989 220.497 263.638 220.222 264.193C219.951 264.748 219.571 265.18 219.081 265.489C218.594 265.798 218.027 265.952 217.378 265.952ZM217.378 264.961C217.871 264.961 218.276 264.834 218.594 264.582C218.912 264.329 219.148 263.997 219.301 263.585C219.454 263.173 219.53 262.727 219.53 262.247C219.53 261.767 219.454 261.319 219.301 260.904C219.148 260.489 218.912 260.154 218.594 259.898C218.276 259.642 217.871 259.514 217.378 259.514C216.885 259.514 216.479 259.642 216.161 259.898C215.843 260.154 215.608 260.489 215.455 260.904C215.302 261.319 215.226 261.767 215.226 262.247C215.226 262.727 215.302 263.173 215.455 263.585C215.608 263.997 215.843 264.329 216.161 264.582C216.479 264.834 216.885 264.961 217.378 264.961ZM226.849 262.864V258.616H227.953V265.803H226.849V264.586H226.774C226.605 264.951 226.343 265.262 225.988 265.517C225.632 265.77 225.183 265.896 224.64 265.896C224.191 265.896 223.792 265.798 223.443 265.602C223.093 265.402 222.819 265.102 222.619 264.703C222.419 264.301 222.32 263.794 222.32 263.183V258.616H223.424V263.108C223.424 263.632 223.57 264.05 223.864 264.362C224.16 264.674 224.537 264.83 224.996 264.83C225.27 264.83 225.55 264.759 225.833 264.619C226.12 264.479 226.361 264.263 226.554 263.973C226.75 263.683 226.849 263.314 226.849 262.864ZM231.079 261.48V265.803H229.975V258.616H231.042V259.739H231.136C231.304 259.374 231.56 259.081 231.903 258.859C232.246 258.635 232.689 258.523 233.232 258.523C233.718 258.523 234.144 258.622 234.509 258.822C234.874 259.019 235.158 259.318 235.361 259.72C235.563 260.12 235.665 260.625 235.665 261.236V265.803H234.56V261.311C234.56 260.747 234.414 260.307 234.121 259.992C233.827 259.674 233.425 259.514 232.914 259.514C232.561 259.514 232.246 259.591 231.968 259.744C231.694 259.897 231.477 260.12 231.318 260.413C231.159 260.706 231.079 261.062 231.079 261.48ZM240.808 258.616V259.552H237.083V258.616H240.808ZM238.169 256.894H239.273V263.744C239.273 264.056 239.318 264.29 239.409 264.446C239.502 264.599 239.621 264.702 239.764 264.755C239.911 264.805 240.065 264.83 240.228 264.83C240.349 264.83 240.449 264.823 240.527 264.811C240.605 264.795 240.667 264.783 240.714 264.773L240.939 265.765C240.864 265.793 240.759 265.821 240.625 265.85C240.491 265.881 240.321 265.896 240.115 265.896C239.803 265.896 239.498 265.829 239.198 265.695C238.902 265.561 238.656 265.357 238.459 265.082C238.266 264.808 238.169 264.461 238.169 264.044V256.894ZM97.0409 274.616V275.552H93.1669V274.616H97.0409ZM94.3272 281.803V273.624C94.3272 273.213 94.4239 272.869 94.6173 272.595C94.8107 272.32 95.0618 272.115 95.3706 271.977C95.6794 271.84 96.0054 271.771 96.3485 271.771C96.6198 271.771 96.8413 271.793 97.0128 271.837C97.1844 271.881 97.3123 271.921 97.3965 271.959L97.0784 272.913C97.0222 272.894 96.9442 272.871 96.8444 272.843C96.7477 272.815 96.6198 272.801 96.4608 272.801C96.0958 272.801 95.8322 272.893 95.67 273.077C95.511 273.261 95.4314 273.531 95.4314 273.886V281.803H94.3272ZM101.212 281.952C100.563 281.952 99.994 281.798 99.5043 281.489C99.0177 281.18 98.6372 280.748 98.3627 280.193C98.0913 279.638 97.9556 278.989 97.9556 278.247C97.9556 277.498 98.0913 276.845 98.3627 276.286C98.6372 275.728 99.0177 275.295 99.5043 274.986C99.994 274.677 100.563 274.523 101.212 274.523C101.861 274.523 102.429 274.677 102.915 274.986C103.405 275.295 103.785 275.728 104.057 276.286C104.331 276.845 104.468 277.498 104.468 278.247C104.468 278.989 104.331 279.638 104.057 280.193C103.785 280.748 103.405 281.18 102.915 281.489C102.429 281.798 101.861 281.952 101.212 281.952ZM101.212 280.961C101.705 280.961 102.11 280.834 102.429 280.582C102.747 280.329 102.982 279.997 103.135 279.585C103.288 279.173 103.364 278.727 103.364 278.247C103.364 277.767 103.288 277.319 103.135 276.904C102.982 276.489 102.747 276.154 102.429 275.898C102.11 275.642 101.705 275.514 101.212 275.514C100.719 275.514 100.314 275.642 99.9956 275.898C99.6774 276.154 99.4419 276.489 99.2891 276.904C99.1362 277.319 99.0598 277.767 99.0598 278.247C99.0598 278.727 99.1362 279.173 99.2891 279.585C99.4419 279.997 99.6774 280.329 99.9956 280.582C100.314 280.834 100.719 280.961 101.212 280.961ZM106.154 281.803V274.616H107.221V275.702H107.296C107.427 275.346 107.664 275.058 108.007 274.836C108.35 274.615 108.737 274.504 109.167 274.504C109.248 274.504 109.35 274.505 109.471 274.509C109.593 274.512 109.685 274.516 109.747 274.523V275.646C109.71 275.636 109.624 275.622 109.49 275.603C109.359 275.582 109.22 275.571 109.073 275.571C108.724 275.571 108.412 275.644 108.138 275.791C107.866 275.934 107.651 276.134 107.492 276.389C107.336 276.642 107.258 276.931 107.258 277.255V281.803H106.154ZM114.911 281.803V272.221H118.261C118.929 272.221 119.479 272.336 119.913 272.567C120.347 272.795 120.669 273.102 120.881 273.489C121.094 273.872 121.2 274.298 121.2 274.766C121.2 275.178 121.126 275.518 120.98 275.786C120.836 276.054 120.646 276.266 120.409 276.422C120.175 276.578 119.921 276.694 119.646 276.768V276.862C119.939 276.881 120.234 276.984 120.531 277.171C120.827 277.358 121.075 277.626 121.274 277.976C121.474 278.325 121.574 278.752 121.574 279.257C121.574 279.738 121.465 280.17 121.246 280.554C121.028 280.937 120.683 281.241 120.212 281.466C119.741 281.69 119.129 281.803 118.374 281.803H114.911ZM116.072 280.773H118.374C119.132 280.773 119.67 280.627 119.988 280.334C120.309 280.037 120.47 279.679 120.47 279.257C120.47 278.933 120.387 278.634 120.222 278.359C120.056 278.082 119.821 277.86 119.515 277.695C119.21 277.526 118.848 277.442 118.43 277.442H116.072V280.773ZM116.072 276.432H118.224C118.573 276.432 118.888 276.363 119.169 276.226C119.453 276.088 119.677 275.895 119.843 275.646C120.011 275.396 120.095 275.103 120.095 274.766C120.095 274.345 119.949 273.988 119.656 273.694C119.362 273.398 118.898 273.25 118.261 273.25H116.072V276.432ZM127.86 278.864V274.616H128.964V281.803H127.86V280.586H127.785C127.617 280.951 127.355 281.262 126.999 281.517C126.643 281.77 126.194 281.896 125.651 281.896C125.202 281.896 124.803 281.798 124.454 281.602C124.104 281.402 123.83 281.102 123.63 280.703C123.431 280.301 123.331 279.794 123.331 279.183V274.616H124.435V279.108C124.435 279.632 124.582 280.05 124.875 280.362C125.171 280.674 125.549 280.83 126.007 280.83C126.282 280.83 126.561 280.759 126.845 280.619C127.132 280.479 127.372 280.263 127.565 279.973C127.762 279.683 127.86 279.314 127.86 278.864ZM134.112 274.616V275.552H130.388V274.616H134.112ZM131.473 272.894H132.577V279.744C132.577 280.056 132.622 280.29 132.713 280.446C132.806 280.599 132.925 280.702 133.068 280.755C133.215 280.805 133.369 280.83 133.532 280.83C133.653 280.83 133.753 280.823 133.831 280.811C133.909 280.795 133.971 280.783 134.018 280.773L134.243 281.765C134.168 281.793 134.063 281.821 133.929 281.85C133.795 281.881 133.625 281.896 133.419 281.896C133.107 281.896 132.802 281.829 132.502 281.695C132.206 281.561 131.96 281.357 131.763 281.082C131.57 280.808 131.473 280.461 131.473 280.044V272.894ZM137.031 272.221V281.803H135.927V272.221H137.031ZM142.067 281.952C141.374 281.952 140.777 281.8 140.275 281.494C139.776 281.185 139.391 280.755 139.119 280.203C138.851 279.647 138.717 279.002 138.717 278.266C138.717 277.529 138.851 276.881 139.119 276.319C139.391 275.755 139.768 275.315 140.252 275C140.738 274.682 141.306 274.523 141.955 274.523C142.329 274.523 142.698 274.585 143.063 274.71C143.428 274.835 143.761 275.037 144.06 275.318C144.359 275.596 144.598 275.964 144.776 276.422C144.954 276.881 145.043 277.445 145.043 278.116V278.584H139.503V277.629H143.92C143.92 277.224 143.839 276.862 143.676 276.544C143.517 276.226 143.29 275.975 142.993 275.791C142.7 275.607 142.354 275.514 141.955 275.514C141.515 275.514 141.134 275.624 140.813 275.842C140.495 276.057 140.25 276.338 140.078 276.684C139.907 277.03 139.821 277.402 139.821 277.798V278.434C139.821 278.977 139.915 279.437 140.102 279.814C140.292 280.189 140.556 280.474 140.892 280.67C141.229 280.864 141.621 280.961 142.067 280.961C142.357 280.961 142.619 280.92 142.853 280.839C143.09 280.755 143.294 280.63 143.466 280.465C143.637 280.296 143.77 280.087 143.863 279.838L144.93 280.137C144.818 280.499 144.629 280.817 144.364 281.092C144.099 281.363 143.771 281.575 143.382 281.728C142.992 281.878 142.553 281.952 142.067 281.952ZM146.722 281.803V274.616H147.789V275.702H147.864C147.995 275.346 148.232 275.058 148.575 274.836C148.918 274.615 149.305 274.504 149.735 274.504C149.816 274.504 149.918 274.505 150.039 274.509C150.161 274.512 150.253 274.516 150.315 274.523V275.646C150.278 275.636 150.192 275.622 150.058 275.603C149.927 275.582 149.788 275.571 149.642 275.571C149.292 275.571 148.98 275.644 148.706 275.791C148.435 275.934 148.219 276.134 148.06 276.389C147.904 276.642 147.826 276.931 147.826 277.255V281.803H146.722ZM156.715 276.226L155.723 276.506C155.661 276.341 155.569 276.18 155.447 276.024C155.328 275.865 155.166 275.734 154.96 275.631C154.754 275.529 154.491 275.477 154.17 275.477C153.73 275.477 153.363 275.578 153.07 275.781C152.78 275.981 152.635 276.235 152.635 276.544C152.635 276.818 152.735 277.035 152.934 277.194C153.134 277.353 153.446 277.486 153.87 277.592L154.937 277.854C155.579 278.01 156.058 278.248 156.373 278.57C156.688 278.888 156.846 279.298 156.846 279.8C156.846 280.212 156.727 280.58 156.49 280.904C156.256 281.229 155.929 281.485 155.508 281.672C155.087 281.859 154.597 281.952 154.039 281.952C153.306 281.952 152.699 281.793 152.219 281.475C151.738 281.157 151.434 280.692 151.306 280.081L152.354 279.819C152.454 280.206 152.643 280.496 152.92 280.689C153.201 280.883 153.568 280.979 154.02 280.979C154.535 280.979 154.943 280.87 155.246 280.652C155.551 280.43 155.704 280.165 155.704 279.856C155.704 279.607 155.617 279.398 155.442 279.229C155.268 279.058 154.999 278.93 154.637 278.846L153.44 278.565C152.782 278.409 152.298 278.167 151.989 277.84C151.684 277.509 151.531 277.096 151.531 276.6C151.531 276.194 151.645 275.836 151.872 275.524C152.103 275.212 152.417 274.967 152.813 274.789C153.212 274.611 153.664 274.523 154.17 274.523C154.881 274.523 155.439 274.679 155.845 274.99C156.253 275.302 156.543 275.714 156.715 276.226ZM165.133 281.952C164.484 281.952 163.915 281.798 163.425 281.489C162.939 281.18 162.558 280.748 162.284 280.193C162.012 279.638 161.877 278.989 161.877 278.247C161.877 277.498 162.012 276.845 162.284 276.286C162.558 275.728 162.939 275.295 163.425 274.986C163.915 274.677 164.484 274.523 165.133 274.523C165.782 274.523 166.35 274.677 166.836 274.986C167.326 275.295 167.706 275.728 167.978 276.286C168.252 276.845 168.389 277.498 168.389 278.247C168.389 278.989 168.252 279.638 167.978 280.193C167.706 280.748 167.326 281.18 166.836 281.489C166.35 281.798 165.782 281.952 165.133 281.952ZM165.133 280.961C165.626 280.961 166.031 280.834 166.35 280.582C166.668 280.329 166.903 279.997 167.056 279.585C167.209 279.173 167.285 278.727 167.285 278.247C167.285 277.767 167.209 277.319 167.056 276.904C166.903 276.489 166.668 276.154 166.35 275.898C166.031 275.642 165.626 275.514 165.133 275.514C164.64 275.514 164.235 275.642 163.917 275.898C163.598 276.154 163.363 276.489 163.21 276.904C163.057 277.319 162.981 277.767 162.981 278.247C162.981 278.727 163.057 279.173 163.21 279.585C163.363 279.997 163.598 280.329 163.917 280.582C164.235 280.834 164.64 280.961 165.133 280.961ZM170.075 281.803V274.616H171.142V275.702H171.217C171.348 275.346 171.585 275.058 171.928 274.836C172.271 274.615 172.658 274.504 173.088 274.504C173.169 274.504 173.271 274.505 173.392 274.509C173.514 274.512 173.606 274.516 173.668 274.523V275.646C173.631 275.636 173.545 275.622 173.411 275.603C173.28 275.582 173.141 275.571 172.995 275.571C172.645 275.571 172.333 275.644 172.059 275.791C171.787 275.934 171.572 276.134 171.413 276.389C171.257 276.642 171.179 276.931 171.179 277.255V281.803H170.075ZM178.832 281.803V272.221H179.993V276.488H185.102V272.221H186.262V281.803H185.102V277.517H179.993V281.803H178.832ZM191.355 281.952C190.706 281.952 190.137 281.798 189.647 281.489C189.161 281.18 188.78 280.748 188.506 280.193C188.234 279.638 188.099 278.989 188.099 278.247C188.099 277.498 188.234 276.845 188.506 276.286C188.78 275.728 189.161 275.295 189.647 274.986C190.137 274.677 190.706 274.523 191.355 274.523C192.004 274.523 192.572 274.677 193.058 274.986C193.548 275.295 193.928 275.728 194.2 276.286C194.474 276.845 194.612 277.498 194.612 278.247C194.612 278.989 194.474 279.638 194.2 280.193C193.928 280.748 193.548 281.18 193.058 281.489C192.572 281.798 192.004 281.952 191.355 281.952ZM191.355 280.961C191.848 280.961 192.253 280.834 192.572 280.582C192.89 280.329 193.125 279.997 193.278 279.585C193.431 279.173 193.507 278.727 193.507 278.247C193.507 277.767 193.431 277.319 193.278 276.904C193.125 276.489 192.89 276.154 192.572 275.898C192.253 275.642 191.848 275.514 191.355 275.514C190.862 275.514 190.457 275.642 190.139 275.898C189.821 276.154 189.585 276.489 189.432 276.904C189.279 277.319 189.203 277.767 189.203 278.247C189.203 278.727 189.279 279.173 189.432 279.585C189.585 279.997 189.821 280.329 190.139 280.582C190.457 280.834 190.862 280.961 191.355 280.961ZM196.297 281.803V274.616H197.364V275.739H197.457C197.607 275.355 197.849 275.058 198.183 274.845C198.516 274.63 198.917 274.523 199.385 274.523C199.859 274.523 200.254 274.63 200.569 274.845C200.887 275.058 201.135 275.355 201.313 275.739H201.388C201.572 275.368 201.848 275.073 202.216 274.855C202.584 274.633 203.025 274.523 203.54 274.523C204.182 274.523 204.708 274.724 205.117 275.126C205.525 275.525 205.729 276.148 205.729 276.993V281.803H204.625V276.993C204.625 276.463 204.48 276.084 204.19 275.856C203.9 275.628 203.558 275.514 203.165 275.514C202.66 275.514 202.269 275.667 201.991 275.973C201.713 276.276 201.575 276.659 201.575 277.124V281.803H200.452V276.881C200.452 276.472 200.319 276.143 200.054 275.893C199.789 275.641 199.447 275.514 199.029 275.514C198.742 275.514 198.474 275.591 198.225 275.744C197.978 275.897 197.779 276.109 197.626 276.38C197.476 276.648 197.401 276.959 197.401 277.311V281.803H196.297ZM210.761 281.952C210.069 281.952 209.472 281.8 208.969 281.494C208.47 281.185 208.085 280.755 207.814 280.203C207.546 279.647 207.411 279.002 207.411 278.266C207.411 277.529 207.546 276.881 207.814 276.319C208.085 275.755 208.463 275.315 208.946 275C209.433 274.682 210 274.523 210.649 274.523C211.023 274.523 211.393 274.585 211.758 274.71C212.123 274.835 212.455 275.037 212.755 275.318C213.054 275.596 213.293 275.964 213.47 276.422C213.648 276.881 213.737 277.445 213.737 278.116V278.584H208.197V277.629H212.614C212.614 277.224 212.533 276.862 212.371 276.544C212.212 276.226 211.984 275.975 211.688 275.791C211.395 275.607 211.048 275.514 210.649 275.514C210.209 275.514 209.829 275.624 209.508 275.842C209.189 276.057 208.945 276.338 208.773 276.684C208.601 277.03 208.516 277.402 208.516 277.798V278.434C208.516 278.977 208.609 279.437 208.796 279.814C208.987 280.189 209.25 280.474 209.587 280.67C209.924 280.864 210.315 280.961 210.761 280.961C211.052 280.961 211.314 280.92 211.547 280.839C211.785 280.755 211.989 280.63 212.16 280.465C212.332 280.296 212.464 280.087 212.558 279.838L213.625 280.137C213.513 280.499 213.324 280.817 213.059 281.092C212.794 281.363 212.466 281.575 212.076 281.728C211.686 281.878 211.248 281.952 210.761 281.952ZM215.398 281.803V280.961L218.561 277.498C218.932 277.093 219.238 276.74 219.478 276.441C219.718 276.138 219.896 275.854 220.011 275.589C220.13 275.321 220.189 275.04 220.189 274.747C220.189 274.41 220.108 274.119 219.946 273.872C219.787 273.626 219.568 273.436 219.291 273.301C219.013 273.167 218.701 273.1 218.355 273.1C217.987 273.1 217.666 273.177 217.391 273.33C217.12 273.479 216.909 273.69 216.76 273.961C216.613 274.233 216.54 274.551 216.54 274.916H215.435C215.435 274.354 215.565 273.861 215.824 273.437C216.083 273.013 216.435 272.682 216.881 272.445C217.33 272.208 217.834 272.09 218.392 272.09C218.954 272.09 219.451 272.208 219.885 272.445C220.319 272.682 220.659 273.002 220.905 273.404C221.151 273.807 221.275 274.254 221.275 274.747C221.275 275.1 221.211 275.444 221.083 275.781C220.958 276.115 220.74 276.488 220.428 276.899C220.119 277.308 219.69 277.807 219.141 278.397L216.989 280.699V280.773H221.443V281.803H215.398ZM222.945 279.838V278.883L227.156 272.221H227.848V273.699H227.38L224.199 278.733V278.808H229.869V279.838H222.945ZM227.455 281.803V279.548V279.103V272.221H228.559V281.803H227.455Z" fill="black"/>
<rect x="11.6445" y="304.68" width="295.393" height="40.4692" rx="18.9396" fill="#F45334"/>
<path d="M122.579 331.914V317.541H127.436C128.559 317.541 129.48 317.733 130.201 318.116C130.921 318.495 131.455 319.017 131.801 319.681C132.147 320.346 132.32 321.101 132.32 321.948C132.32 322.795 132.147 323.546 131.801 324.201C131.455 324.856 130.924 325.371 130.208 325.745C129.492 326.115 128.577 326.3 127.464 326.3H123.534V324.728H127.408C128.175 324.728 128.792 324.615 129.26 324.391C129.733 324.166 130.074 323.848 130.285 323.436C130.5 323.02 130.608 322.524 130.608 321.948C130.608 321.373 130.5 320.87 130.285 320.439C130.07 320.009 129.726 319.677 129.253 319.443C128.781 319.204 128.156 319.085 127.38 319.085H124.32V331.914H122.579ZM129.345 325.457L132.882 331.914H130.86L127.38 325.457H129.345ZM139.4 332.139C138.361 332.139 137.465 331.909 136.712 331.451C135.963 330.988 135.385 330.342 134.978 329.514C134.576 328.681 134.375 327.713 134.375 326.608C134.375 325.504 134.576 324.531 134.978 323.689C135.385 322.842 135.952 322.182 136.677 321.71C137.407 321.232 138.258 320.994 139.231 320.994C139.793 320.994 140.347 321.087 140.895 321.275C141.442 321.462 141.94 321.766 142.39 322.187C142.839 322.603 143.197 323.155 143.463 323.843C143.73 324.531 143.863 325.378 143.863 326.384V327.086H135.554V325.654H142.179C142.179 325.046 142.057 324.503 141.814 324.026C141.575 323.548 141.234 323.172 140.789 322.896C140.35 322.62 139.83 322.482 139.231 322.482C138.572 322.482 138.001 322.645 137.519 322.973C137.042 323.296 136.674 323.717 136.417 324.236C136.16 324.756 136.031 325.312 136.031 325.907V326.861C136.031 327.675 136.171 328.365 136.452 328.931C136.738 329.493 137.133 329.921 137.638 330.216C138.144 330.506 138.731 330.651 139.4 330.651C139.835 330.651 140.228 330.59 140.579 330.468C140.934 330.342 141.241 330.155 141.498 329.907C141.756 329.654 141.954 329.341 142.095 328.966L143.695 329.416C143.526 329.958 143.243 330.436 142.846 330.847C142.448 331.254 141.957 331.573 141.372 331.802C140.787 332.026 140.13 332.139 139.4 332.139ZM150.734 336.181C149.934 336.181 149.246 336.078 148.671 335.872C148.095 335.671 147.616 335.404 147.232 335.072C146.853 334.745 146.551 334.394 146.327 334.019L147.646 333.093C147.796 333.29 147.985 333.514 148.215 333.767C148.444 334.024 148.757 334.246 149.155 334.434C149.557 334.625 150.084 334.721 150.734 334.721C151.604 334.721 152.323 334.511 152.889 334.09C153.455 333.669 153.738 333.009 153.738 332.111V329.921H153.597C153.476 330.117 153.303 330.361 153.078 330.651C152.858 330.936 152.54 331.191 152.124 331.416C151.712 331.636 151.155 331.746 150.453 331.746C149.583 331.746 148.802 331.54 148.109 331.128C147.422 330.716 146.876 330.117 146.474 329.331C146.076 328.545 145.878 327.591 145.878 326.468C145.878 325.364 146.072 324.402 146.46 323.584C146.848 322.76 147.389 322.124 148.081 321.675C148.774 321.221 149.574 320.994 150.481 320.994C151.183 320.994 151.74 321.111 152.152 321.345C152.568 321.574 152.886 321.836 153.106 322.131C153.331 322.421 153.504 322.659 153.626 322.847H153.794V321.134H155.394V332.223C155.394 333.149 155.184 333.903 154.762 334.483C154.346 335.068 153.785 335.496 153.078 335.767C152.376 336.043 151.595 336.181 150.734 336.181ZM150.678 330.258C151.342 330.258 151.904 330.106 152.362 329.802C152.821 329.497 153.169 329.06 153.408 328.489C153.647 327.918 153.766 327.235 153.766 326.44C153.766 325.663 153.649 324.978 153.415 324.384C153.181 323.789 152.835 323.324 152.376 322.987C151.918 322.65 151.352 322.482 150.678 322.482C149.976 322.482 149.391 322.659 148.923 323.015C148.46 323.371 148.112 323.848 147.878 324.447C147.648 325.046 147.534 325.71 147.534 326.44C147.534 327.189 147.651 327.851 147.885 328.426C148.123 328.997 148.474 329.446 148.937 329.774C149.405 330.096 149.985 330.258 150.678 330.258ZM158.426 331.914V321.134H160.082V331.914H158.426ZM159.268 319.338C158.945 319.338 158.667 319.228 158.433 319.008C158.204 318.788 158.089 318.523 158.089 318.215C158.089 317.906 158.204 317.642 158.433 317.422C158.667 317.202 158.945 317.092 159.268 317.092C159.591 317.092 159.867 317.202 160.096 317.422C160.33 317.642 160.447 317.906 160.447 318.215C160.447 318.523 160.33 318.788 160.096 319.008C159.867 319.228 159.591 319.338 159.268 319.338ZM170.752 323.548L169.264 323.97C169.17 323.722 169.032 323.481 168.85 323.247C168.672 323.008 168.429 322.812 168.12 322.657C167.811 322.503 167.416 322.426 166.934 322.426C166.274 322.426 165.724 322.578 165.284 322.882C164.849 323.181 164.632 323.562 164.632 324.026C164.632 324.437 164.781 324.763 165.081 325.001C165.38 325.24 165.848 325.439 166.484 325.598L168.085 325.991C169.048 326.225 169.767 326.583 170.239 327.065C170.712 327.542 170.948 328.157 170.948 328.91C170.948 329.528 170.77 330.08 170.415 330.567C170.064 331.053 169.572 331.437 168.941 331.718C168.309 331.998 167.575 332.139 166.737 332.139C165.638 332.139 164.728 331.9 164.007 331.423C163.287 330.946 162.83 330.248 162.639 329.331L164.211 328.938C164.36 329.519 164.643 329.954 165.06 330.244C165.481 330.534 166.031 330.679 166.709 330.679C167.481 330.679 168.094 330.515 168.548 330.188C169.006 329.855 169.236 329.458 169.236 328.995C169.236 328.62 169.105 328.307 168.843 328.054C168.581 327.797 168.178 327.605 167.635 327.479L165.839 327.058C164.852 326.824 164.126 326.461 163.663 325.97C163.205 325.474 162.975 324.854 162.975 324.11C162.975 323.502 163.146 322.964 163.488 322.496C163.834 322.028 164.304 321.661 164.898 321.394C165.497 321.127 166.176 320.994 166.934 320.994C168 320.994 168.838 321.228 169.446 321.696C170.059 322.164 170.494 322.781 170.752 323.548ZM178.129 321.134V322.538H172.543V321.134H178.129ZM174.171 318.552H175.827V328.826C175.827 329.294 175.895 329.645 176.031 329.879C176.171 330.108 176.349 330.262 176.564 330.342C176.784 330.417 177.016 330.454 177.259 330.454C177.442 330.454 177.591 330.445 177.708 330.426C177.825 330.403 177.919 330.384 177.989 330.37L178.326 331.858C178.214 331.9 178.057 331.942 177.856 331.984C177.654 332.031 177.399 332.054 177.091 332.054C176.623 332.054 176.164 331.954 175.715 331.753C175.271 331.551 174.901 331.245 174.606 330.833C174.316 330.422 174.171 329.902 174.171 329.275V318.552ZM185.025 332.139C183.986 332.139 183.09 331.909 182.337 331.451C181.588 330.988 181.01 330.342 180.603 329.514C180.201 328.681 180 327.713 180 326.608C180 325.504 180.201 324.531 180.603 323.689C181.01 322.842 181.576 322.182 182.302 321.71C183.031 321.232 183.883 320.994 184.856 320.994C185.418 320.994 185.972 321.087 186.519 321.275C187.067 321.462 187.565 321.766 188.014 322.187C188.463 322.603 188.821 323.155 189.088 323.843C189.355 324.531 189.488 325.378 189.488 326.384V327.086H181.179V325.654H187.804C187.804 325.046 187.682 324.503 187.439 324.026C187.2 323.548 186.859 323.172 186.414 322.896C185.974 322.62 185.455 322.482 184.856 322.482C184.196 322.482 183.626 322.645 183.144 322.973C182.667 323.296 182.299 323.717 182.042 324.236C181.785 324.756 181.656 325.312 181.656 325.907V326.861C181.656 327.675 181.796 328.365 182.077 328.931C182.362 329.493 182.758 329.921 183.263 330.216C183.768 330.506 184.356 330.651 185.025 330.651C185.46 330.651 185.853 330.59 186.204 330.468C186.559 330.342 186.866 330.155 187.123 329.907C187.38 329.654 187.579 329.341 187.72 328.966L189.32 329.416C189.151 329.958 188.868 330.436 188.471 330.847C188.073 331.254 187.582 331.573 186.997 331.802C186.412 332.026 185.755 332.139 185.025 332.139ZM192.008 331.914V321.134H193.608V322.762H193.72C193.917 322.229 194.272 321.796 194.787 321.464C195.301 321.132 195.882 320.966 196.527 320.966C196.649 320.966 196.801 320.968 196.983 320.973C197.166 320.977 197.304 320.985 197.398 320.994V322.678C197.341 322.664 197.213 322.643 197.012 322.615C196.815 322.582 196.607 322.566 196.387 322.566C195.863 322.566 195.395 322.676 194.983 322.896C194.576 323.111 194.253 323.41 194.015 323.794C193.781 324.173 193.664 324.606 193.664 325.092V331.914H192.008Z" fill="white"/>
<rect x="10.6445" y="453.727" width="295.744" height="40.4692" rx="18.9396" fill="#7E7E7E"/>
<path d="M134.655 480.961V466.588H136.395V479.417H143.077V480.961H134.655ZM149.926 481.186C148.953 481.186 148.099 480.954 147.365 480.491C146.635 480.028 146.064 479.38 145.652 478.547C145.245 477.714 145.042 476.741 145.042 475.627C145.042 474.504 145.245 473.524 145.652 472.687C146.064 471.849 146.635 471.199 147.365 470.736C148.099 470.272 148.953 470.041 149.926 470.041C150.899 470.041 151.751 470.272 152.481 470.736C153.215 471.199 153.786 471.849 154.193 472.687C154.605 473.524 154.811 474.504 154.811 475.627C154.811 476.741 154.605 477.714 154.193 478.547C153.786 479.38 153.215 480.028 152.481 480.491C151.751 480.954 150.899 481.186 149.926 481.186ZM149.926 479.698C150.666 479.698 151.274 479.508 151.751 479.129C152.228 478.75 152.582 478.252 152.811 477.634C153.04 477.017 153.155 476.348 153.155 475.627C153.155 474.907 153.04 474.235 152.811 473.613C152.582 472.991 152.228 472.488 151.751 472.104C151.274 471.72 150.666 471.529 149.926 471.529C149.187 471.529 148.579 471.72 148.102 472.104C147.624 472.488 147.271 472.991 147.042 473.613C146.813 474.235 146.698 474.907 146.698 475.627C146.698 476.348 146.813 477.017 147.042 477.634C147.271 478.252 147.624 478.75 148.102 479.129C148.579 479.508 149.187 479.698 149.926 479.698ZM161.69 485.228C160.89 485.228 160.203 485.125 159.627 484.919C159.052 484.718 158.572 484.451 158.188 484.119C157.809 483.792 157.508 483.441 157.283 483.066L158.602 482.14C158.752 482.336 158.942 482.561 159.171 482.814C159.4 483.071 159.714 483.293 160.111 483.48C160.514 483.672 161.04 483.768 161.69 483.768C162.561 483.768 163.279 483.558 163.845 483.137C164.411 482.715 164.694 482.056 164.694 481.157V478.968H164.554C164.432 479.164 164.259 479.408 164.035 479.698C163.815 479.983 163.496 480.238 163.08 480.463C162.668 480.683 162.112 480.793 161.41 480.793C160.539 480.793 159.758 480.587 159.066 480.175C158.378 479.763 157.833 479.164 157.43 478.378C157.033 477.592 156.834 476.638 156.834 475.515C156.834 474.411 157.028 473.449 157.416 472.63C157.805 471.807 158.345 471.171 159.038 470.721C159.73 470.268 160.53 470.041 161.438 470.041C162.14 470.041 162.696 470.158 163.108 470.392C163.525 470.621 163.843 470.883 164.063 471.178C164.287 471.468 164.46 471.706 164.582 471.894H164.75V470.181H166.35V481.27C166.35 482.196 166.14 482.949 165.719 483.53C165.302 484.114 164.741 484.543 164.035 484.814C163.333 485.09 162.551 485.228 161.69 485.228ZM161.634 479.305C162.299 479.305 162.86 479.153 163.319 478.848C163.777 478.544 164.126 478.107 164.364 477.536C164.603 476.965 164.722 476.282 164.722 475.487C164.722 474.71 164.605 474.025 164.371 473.43C164.137 472.836 163.791 472.371 163.333 472.034C162.874 471.697 162.308 471.529 161.634 471.529C160.932 471.529 160.348 471.706 159.88 472.062C159.417 472.418 159.068 472.895 158.834 473.494C158.605 474.093 158.49 474.757 158.49 475.487C158.49 476.235 158.607 476.897 158.841 477.473C159.08 478.044 159.431 478.493 159.894 478.82C160.362 479.143 160.942 479.305 161.634 479.305ZM169.382 480.961V470.181H171.039V480.961H169.382ZM170.224 468.384C169.902 468.384 169.623 468.275 169.389 468.055C169.16 467.835 169.045 467.57 169.045 467.262C169.045 466.953 169.16 466.688 169.389 466.469C169.623 466.249 169.902 466.139 170.224 466.139C170.547 466.139 170.823 466.249 171.053 466.469C171.287 466.688 171.404 466.953 171.404 467.262C171.404 467.57 171.287 467.835 171.053 468.055C170.823 468.275 170.547 468.384 170.224 468.384ZM175.728 474.476V480.961H174.072V470.181H175.672V471.865H175.813C176.065 471.318 176.449 470.878 176.964 470.546C177.478 470.209 178.143 470.041 178.957 470.041C179.687 470.041 180.325 470.19 180.873 470.49C181.42 470.785 181.846 471.234 182.15 471.837C182.454 472.436 182.606 473.194 182.606 474.111V480.961H180.95V474.224C180.95 473.377 180.73 472.717 180.29 472.244C179.85 471.767 179.247 471.529 178.48 471.529C177.951 471.529 177.478 471.643 177.062 471.872C176.65 472.102 176.325 472.436 176.086 472.876C175.848 473.316 175.728 473.849 175.728 474.476Z" fill="white"/>
<rect x="11.1074" y="526.191" width="295.642" height="40.4692" rx="18.9396" fill="#7E7E7E"/>
<path d="M53.7041 543.544H51.9636C51.8607 543.044 51.6806 542.604 51.4232 542.225C51.1706 541.846 50.8618 541.528 50.4969 541.27C50.1366 541.008 49.7366 540.812 49.2968 540.681C48.857 540.55 48.3984 540.484 47.9212 540.484C47.051 540.484 46.2626 540.704 45.5561 541.144C44.8543 541.584 44.2952 542.232 43.8788 543.088C43.467 543.944 43.2612 544.995 43.2612 546.239C43.2612 547.484 43.467 548.534 43.8788 549.39C44.2952 550.247 44.8543 550.895 45.5561 551.334C46.2626 551.774 47.051 551.994 47.9212 551.994C48.3984 551.994 48.857 551.929 49.2968 551.798C49.7366 551.667 50.1366 551.472 50.4969 551.215C50.8618 550.953 51.1706 550.633 51.4232 550.254C51.6806 549.87 51.8607 549.43 51.9636 548.934H53.7041C53.5731 549.669 53.3345 550.326 52.9883 550.906C52.6421 551.486 52.2116 551.98 51.697 552.387C51.1823 552.789 50.6045 553.096 49.9635 553.306C49.3272 553.517 48.6464 553.622 47.9212 553.622C46.6954 553.622 45.6052 553.323 44.6508 552.724C43.6963 552.125 42.9454 551.274 42.3979 550.169C41.8505 549.065 41.5768 547.755 41.5768 546.239C41.5768 544.723 41.8505 543.413 42.3979 542.309C42.9454 541.205 43.6963 540.353 44.6508 539.754C45.6052 539.156 46.6954 538.856 47.9212 538.856C48.6464 538.856 49.3272 538.961 49.9635 539.172C50.6045 539.383 51.1823 539.691 51.697 540.098C52.2116 540.501 52.6421 540.992 52.9883 541.572C53.3345 542.148 53.5731 542.805 53.7041 543.544ZM60.6714 553.65C59.6982 553.65 58.8443 553.419 58.1098 552.956C57.3799 552.492 56.8091 551.844 56.3973 551.012C55.9903 550.179 55.7868 549.206 55.7868 548.092C55.7868 546.969 55.9903 545.989 56.3973 545.151C56.8091 544.314 57.3799 543.664 58.1098 543.2C58.8443 542.737 59.6982 542.506 60.6714 542.506C61.6446 542.506 62.4961 542.737 63.226 543.2C63.9605 543.664 64.5313 544.314 64.9384 545.151C65.3501 545.989 65.556 546.969 65.556 548.092C65.556 549.206 65.3501 550.179 64.9384 551.012C64.5313 551.844 63.9605 552.492 63.226 552.956C62.4961 553.419 61.6446 553.65 60.6714 553.65ZM60.6714 552.163C61.4106 552.163 62.0189 551.973 62.4961 551.594C62.9733 551.215 63.3266 550.717 63.5558 550.099C63.7851 549.482 63.8997 548.813 63.8997 548.092C63.8997 547.371 63.7851 546.7 63.5558 546.078C63.3266 545.456 62.9733 544.953 62.4961 544.569C62.0189 544.185 61.4106 543.993 60.6714 543.993C59.9321 543.993 59.3239 544.185 58.8467 544.569C58.3694 544.953 58.0162 545.456 57.7869 546.078C57.5577 546.7 57.443 547.371 57.443 548.092C57.443 548.813 57.5577 549.482 57.7869 550.099C58.0162 550.717 58.3694 551.215 58.8467 551.594C59.3239 551.973 59.9321 552.163 60.6714 552.163ZM69.7405 546.941V553.426H68.0843V542.646H69.6844V544.33H69.8248C70.0774 543.783 70.4611 543.343 70.9757 543.011C71.4904 542.674 72.1548 542.506 72.9689 542.506C73.6988 542.506 74.3374 542.655 74.8848 542.955C75.4322 543.25 75.858 543.699 76.1621 544.302C76.4662 544.901 76.6183 545.659 76.6183 546.576V553.426H74.962V546.688C74.962 545.842 74.7421 545.182 74.3023 544.709C73.8625 544.232 73.259 543.993 72.4917 543.993C71.963 543.993 71.4904 544.108 71.074 544.337C70.6623 544.567 70.3371 544.901 70.0985 545.341C69.8599 545.781 69.7405 546.314 69.7405 546.941ZM84.333 542.646V544.05H78.7466V542.646H84.333ZM80.3748 540.063H82.031V550.338C82.031 550.806 82.0989 551.157 82.2346 551.391C82.3749 551.62 82.5527 551.774 82.7679 551.854C82.9878 551.929 83.2194 551.966 83.4627 551.966C83.6452 551.966 83.7949 551.957 83.9119 551.938C84.0289 551.915 84.1224 551.896 84.1926 551.882L84.5295 553.37C84.4172 553.412 84.2605 553.454 84.0593 553.496C83.8581 553.543 83.6031 553.566 83.2943 553.566C82.8264 553.566 82.3679 553.466 81.9187 553.264C81.4743 553.063 81.1046 552.757 80.8099 552.345C80.5198 551.933 80.3748 551.414 80.3748 550.787V540.063ZM86.8244 553.426V542.646H88.4807V553.426H86.8244ZM87.6666 540.849C87.3438 540.849 87.0654 540.739 86.8314 540.519C86.6022 540.3 86.4875 540.035 86.4875 539.726C86.4875 539.418 86.6022 539.153 86.8314 538.933C87.0654 538.713 87.3438 538.604 87.6666 538.604C87.9894 538.604 88.2655 538.713 88.4947 538.933C88.7287 539.153 88.8456 539.418 88.8456 539.726C88.8456 540.035 88.7287 540.3 88.4947 540.519C88.2655 540.739 87.9894 540.849 87.6666 540.849ZM93.1706 546.941V553.426H91.5143V542.646H93.1144V544.33H93.2548C93.5074 543.783 93.8911 543.343 94.4057 543.011C94.9204 542.674 95.5848 542.506 96.3989 542.506C97.1288 542.506 97.7674 542.655 98.3148 542.955C98.8622 543.25 99.288 543.699 99.5921 544.302C99.8963 544.901 100.048 545.659 100.048 546.576V553.426H98.392V546.688C98.392 545.842 98.1721 545.182 97.7323 544.709C97.2925 544.232 96.689 543.993 95.9217 543.993C95.393 543.993 94.9204 544.108 94.504 544.337C94.0923 544.567 93.7671 544.901 93.5285 545.341C93.2899 545.781 93.1706 546.314 93.1706 546.941ZM109.868 549.018V542.646H111.525V553.426H109.868V551.601H109.756C109.503 552.148 109.11 552.614 108.577 552.998C108.044 553.377 107.37 553.566 106.556 553.566C105.882 553.566 105.283 553.419 104.759 553.124C104.235 552.825 103.823 552.375 103.524 551.777C103.225 551.173 103.075 550.413 103.075 549.496V542.646H104.731V549.383C104.731 550.169 104.951 550.796 105.391 551.264C105.835 551.732 106.401 551.966 107.089 551.966C107.501 551.966 107.92 551.861 108.345 551.65C108.776 551.44 109.136 551.117 109.426 550.682C109.721 550.247 109.868 549.692 109.868 549.018ZM119.078 553.65C118.039 553.65 117.143 553.421 116.39 552.963C115.641 552.499 115.064 551.854 114.657 551.026C114.254 550.193 114.053 549.224 114.053 548.12C114.053 547.016 114.254 546.043 114.657 545.201C115.064 544.354 115.63 543.694 116.355 543.221C117.085 542.744 117.936 542.506 118.91 542.506C119.471 542.506 120.025 542.599 120.573 542.786C121.12 542.973 121.619 543.278 122.068 543.699C122.517 544.115 122.875 544.667 123.141 545.355C123.408 546.043 123.541 546.89 123.541 547.895V548.597H115.232V547.166H121.857C121.857 546.557 121.735 546.015 121.492 545.537C121.254 545.06 120.912 544.684 120.468 544.407C120.028 544.131 119.508 543.993 118.91 543.993C118.25 543.993 117.679 544.157 117.197 544.485C116.72 544.808 116.353 545.229 116.095 545.748C115.838 546.267 115.709 546.824 115.709 547.418V548.373C115.709 549.187 115.85 549.877 116.13 550.443C116.416 551.005 116.811 551.433 117.316 551.727C117.822 552.017 118.409 552.163 119.078 552.163C119.513 552.163 119.906 552.102 120.257 551.98C120.613 551.854 120.919 551.667 121.176 551.419C121.434 551.166 121.633 550.852 121.773 550.478L123.373 550.927C123.205 551.47 122.922 551.947 122.524 552.359C122.126 552.766 121.635 553.084 121.05 553.313C120.465 553.538 119.808 553.65 119.078 553.65ZM134.062 553.426L130.777 542.646H132.518L134.848 550.899H134.96L137.262 542.646H139.03L141.304 550.871H141.417L143.747 542.646H145.487L142.203 553.426H140.574L138.216 545.144H138.048L135.69 553.426H134.062ZM147.677 553.426V542.646H149.333V553.426H147.677ZM148.519 540.849C148.196 540.849 147.918 540.739 147.684 540.519C147.455 540.3 147.34 540.035 147.34 539.726C147.34 539.418 147.455 539.153 147.684 538.933C147.918 538.713 148.196 538.604 148.519 538.604C148.842 538.604 149.118 538.713 149.347 538.933C149.581 539.153 149.698 539.418 149.698 539.726C149.698 540.035 149.581 540.3 149.347 540.519C149.118 540.739 148.842 540.849 148.519 540.849ZM157.055 542.646V544.05H151.468V542.646H157.055ZM153.097 540.063H154.753V550.338C154.753 550.806 154.821 551.157 154.956 551.391C155.097 551.62 155.275 551.774 155.49 551.854C155.71 551.929 155.941 551.966 156.185 551.966C156.367 551.966 156.517 551.957 156.634 551.938C156.751 551.915 156.844 551.896 156.914 551.882L157.251 553.37C157.139 553.412 156.982 553.454 156.781 553.496C156.58 553.543 156.325 553.566 156.016 553.566C155.548 553.566 155.09 553.466 154.641 553.264C154.196 553.063 153.826 552.757 153.532 552.345C153.242 551.933 153.097 551.414 153.097 550.787V540.063ZM161.434 546.941V553.426H159.778V539.053H161.434V544.33H161.574C161.827 543.774 162.206 543.331 162.711 543.004C163.221 542.672 163.9 542.506 164.747 542.506C165.481 542.506 166.125 542.653 166.677 542.948C167.229 543.238 167.657 543.685 167.961 544.288C168.27 544.887 168.424 545.65 168.424 546.576V553.426H166.768V546.688C166.768 545.832 166.546 545.17 166.101 544.702C165.661 544.23 165.051 543.993 164.269 543.993C163.727 543.993 163.24 544.108 162.81 544.337C162.384 544.567 162.047 544.901 161.799 545.341C161.556 545.781 161.434 546.314 161.434 546.941ZM175.834 553.65C174.86 553.65 174.006 553.419 173.272 552.956C172.542 552.492 171.971 551.844 171.559 551.012C171.152 550.179 170.949 549.206 170.949 548.092C170.949 546.969 171.152 545.989 171.559 545.151C171.971 544.314 172.542 543.664 173.272 543.2C174.006 542.737 174.86 542.506 175.834 542.506C176.807 542.506 177.658 542.737 178.388 543.2C179.123 543.664 179.693 544.314 180.101 545.151C180.512 545.989 180.718 546.969 180.718 548.092C180.718 549.206 180.512 550.179 180.101 551.012C179.693 551.844 179.123 552.492 178.388 552.956C177.658 553.419 176.807 553.65 175.834 553.65ZM175.834 552.163C176.573 552.163 177.181 551.973 177.658 551.594C178.135 551.215 178.489 550.717 178.718 550.099C178.947 549.482 179.062 548.813 179.062 548.092C179.062 547.371 178.947 546.7 178.718 546.078C178.489 545.456 178.135 544.953 177.658 544.569C177.181 544.185 176.573 543.993 175.834 543.993C175.094 543.993 174.486 544.185 174.009 544.569C173.532 544.953 173.178 545.456 172.949 546.078C172.72 546.7 172.605 547.371 172.605 548.092C172.605 548.813 172.72 549.482 172.949 550.099C173.178 550.717 173.532 551.215 174.009 551.594C174.486 551.973 175.094 552.163 175.834 552.163ZM190.04 549.018V542.646H191.696V553.426H190.04V551.601H189.928C189.675 552.148 189.282 552.614 188.749 552.998C188.215 553.377 187.542 553.566 186.727 553.566C186.054 553.566 185.455 553.419 184.931 553.124C184.407 552.825 183.995 552.375 183.696 551.777C183.396 551.173 183.246 550.413 183.246 549.496V542.646H184.903V549.383C184.903 550.169 185.123 550.796 185.562 551.264C186.007 551.732 186.573 551.966 187.261 551.966C187.673 551.966 188.091 551.861 188.517 551.65C188.947 551.44 189.308 551.117 189.598 550.682C189.893 550.247 190.04 549.692 190.04 549.018ZM199.418 542.646V544.05H193.831V542.646H199.418ZM195.46 540.063H197.116V550.338C197.116 550.806 197.184 551.157 197.319 551.391C197.46 551.62 197.638 551.774 197.853 551.854C198.073 551.929 198.304 551.966 198.548 551.966C198.73 551.966 198.88 551.957 198.997 551.938C199.114 551.915 199.207 551.896 199.278 551.882L199.614 553.37C199.502 553.412 199.345 553.454 199.144 553.496C198.943 553.543 198.688 553.566 198.379 553.566C197.911 553.566 197.453 553.466 197.004 553.264C196.559 553.063 196.19 552.757 195.895 552.345C195.605 551.933 195.46 551.414 195.46 550.787V540.063ZM207.468 553.426V542.646H209.068V544.274H209.18C209.377 543.741 209.732 543.308 210.247 542.976C210.762 542.644 211.342 542.478 211.987 542.478C212.109 542.478 212.261 542.48 212.444 542.485C212.626 542.489 212.764 542.496 212.858 542.506V544.19C212.801 544.176 212.673 544.155 212.472 544.127C212.275 544.094 212.067 544.078 211.847 544.078C211.323 544.078 210.855 544.188 210.443 544.407C210.036 544.623 209.713 544.922 209.475 545.306C209.241 545.685 209.124 546.118 209.124 546.604V553.426H207.468ZM219.013 553.65C217.974 553.65 217.078 553.421 216.325 552.963C215.576 552.499 214.998 551.854 214.591 551.026C214.189 550.193 213.988 549.224 213.988 548.12C213.988 547.016 214.189 546.043 214.591 545.201C214.998 544.354 215.564 543.694 216.289 543.221C217.019 542.744 217.871 542.506 218.844 542.506C219.406 542.506 219.96 542.599 220.507 542.786C221.055 542.973 221.553 543.278 222.002 543.699C222.451 544.115 222.809 544.667 223.076 545.355C223.343 546.043 223.476 546.89 223.476 547.895V548.597H215.167V547.166H221.792C221.792 546.557 221.67 546.015 221.427 545.537C221.188 545.06 220.847 544.684 220.402 544.407C219.962 544.131 219.443 543.993 218.844 543.993C218.184 543.993 217.614 544.157 217.132 544.485C216.654 544.808 216.287 545.229 216.03 545.748C215.772 546.267 215.644 546.824 215.644 547.418V548.373C215.644 549.187 215.784 549.877 216.065 550.443C216.35 551.005 216.746 551.433 217.251 551.727C217.756 552.017 218.343 552.163 219.013 552.163C219.448 552.163 219.841 552.102 220.192 551.98C220.547 551.854 220.854 551.667 221.111 551.419C221.368 551.166 221.567 550.852 221.707 550.478L223.308 550.927C223.139 551.47 222.856 551.947 222.458 552.359C222.061 552.766 221.569 553.084 220.985 553.313C220.4 553.538 219.742 553.65 219.013 553.65ZM230.347 557.693C229.547 557.693 228.859 557.59 228.283 557.384C227.708 557.183 227.228 556.916 226.845 556.584C226.466 556.256 226.164 555.906 225.939 555.531L227.259 554.605C227.409 554.801 227.598 555.026 227.827 555.279C228.057 555.536 228.37 555.758 228.768 555.945C229.17 556.137 229.696 556.233 230.347 556.233C231.217 556.233 231.935 556.022 232.501 555.601C233.067 555.18 233.351 554.521 233.351 553.622V551.433H233.21C233.089 551.629 232.915 551.872 232.691 552.163C232.471 552.448 232.153 552.703 231.736 552.927C231.325 553.147 230.768 553.257 230.066 553.257C229.196 553.257 228.414 553.051 227.722 552.64C227.034 552.228 226.489 551.629 226.087 550.843C225.689 550.057 225.49 549.103 225.49 547.98C225.49 546.876 225.684 545.914 226.073 545.095C226.461 544.272 227.001 543.635 227.694 543.186C228.386 542.733 229.186 542.506 230.094 542.506C230.796 542.506 231.353 542.623 231.764 542.856C232.181 543.086 232.499 543.348 232.719 543.643C232.944 543.933 233.117 544.171 233.238 544.358H233.407V542.646H235.007V553.735C235.007 554.661 234.796 555.414 234.375 555.994C233.959 556.579 233.397 557.007 232.691 557.279C231.989 557.555 231.208 557.693 230.347 557.693ZM230.291 551.77C230.955 551.77 231.516 551.617 231.975 551.313C232.434 551.009 232.782 550.572 233.021 550.001C233.259 549.43 233.379 548.747 233.379 547.952C233.379 547.175 233.262 546.49 233.028 545.895C232.794 545.301 232.448 544.836 231.989 544.499C231.531 544.162 230.964 543.993 230.291 543.993C229.589 543.993 229.004 544.171 228.536 544.527C228.073 544.882 227.724 545.36 227.49 545.958C227.261 546.557 227.147 547.222 227.147 547.952C227.147 548.7 227.264 549.362 227.497 549.938C227.736 550.509 228.087 550.958 228.55 551.285C229.018 551.608 229.598 551.77 230.291 551.77ZM238.039 553.426V542.646H239.695V553.426H238.039ZM238.881 540.849C238.558 540.849 238.28 540.739 238.046 540.519C237.816 540.3 237.702 540.035 237.702 539.726C237.702 539.418 237.816 539.153 238.046 538.933C238.28 538.713 238.558 538.604 238.881 538.604C239.204 538.604 239.48 538.713 239.709 538.933C239.943 539.153 240.06 539.418 240.06 539.726C240.06 540.035 239.943 540.3 239.709 540.519C239.48 540.739 239.204 540.849 238.881 540.849ZM250.364 545.06L248.876 545.481C248.783 545.233 248.645 544.992 248.462 544.758C248.285 544.52 248.041 544.323 247.732 544.169C247.424 544.014 247.028 543.937 246.546 543.937C245.887 543.937 245.337 544.089 244.897 544.393C244.462 544.693 244.244 545.074 244.244 545.537C244.244 545.949 244.394 546.274 244.694 546.513C244.993 546.752 245.461 546.95 246.097 547.109L247.697 547.502C248.661 547.736 249.379 548.094 249.852 548.576C250.324 549.053 250.561 549.669 250.561 550.422C250.561 551.04 250.383 551.592 250.027 552.078C249.676 552.565 249.185 552.949 248.554 553.229C247.922 553.51 247.187 553.65 246.35 553.65C245.25 553.65 244.34 553.412 243.62 552.935C242.899 552.457 242.443 551.76 242.251 550.843L243.823 550.45C243.973 551.03 244.256 551.465 244.673 551.755C245.094 552.046 245.643 552.191 246.322 552.191C247.094 552.191 247.707 552.027 248.161 551.699C248.619 551.367 248.848 550.969 248.848 550.506C248.848 550.132 248.717 549.818 248.455 549.566C248.193 549.308 247.791 549.117 247.248 548.99L245.452 548.569C244.464 548.335 243.739 547.973 243.276 547.481C242.817 546.985 242.588 546.366 242.588 545.622C242.588 545.013 242.759 544.475 243.1 544.007C243.447 543.54 243.917 543.172 244.511 542.906C245.11 542.639 245.788 542.506 246.546 542.506C247.613 542.506 248.451 542.74 249.059 543.207C249.672 543.675 250.107 544.293 250.364 545.06ZM257.742 542.646V544.05H252.156V542.646H257.742ZM253.784 540.063H255.44V550.338C255.44 550.806 255.508 551.157 255.644 551.391C255.784 551.62 255.962 551.774 256.177 551.854C256.397 551.929 256.628 551.966 256.872 551.966C257.054 551.966 257.204 551.957 257.321 551.938C257.438 551.915 257.531 551.896 257.602 551.882L257.939 553.37C257.826 553.412 257.669 553.454 257.468 553.496C257.267 553.543 257.012 553.566 256.703 553.566C256.235 553.566 255.777 553.466 255.328 553.264C254.883 553.063 254.514 552.757 254.219 552.345C253.929 551.933 253.784 551.414 253.784 550.787V540.063ZM264.637 553.65C263.599 553.65 262.703 553.421 261.949 552.963C261.201 552.499 260.623 551.854 260.216 551.026C259.814 550.193 259.612 549.224 259.612 548.12C259.612 547.016 259.814 546.043 260.216 545.201C260.623 544.354 261.189 543.694 261.914 543.221C262.644 542.744 263.496 542.506 264.469 542.506C265.03 542.506 265.585 542.599 266.132 542.786C266.68 542.973 267.178 543.278 267.627 543.699C268.076 544.115 268.434 544.667 268.701 545.355C268.968 546.043 269.101 546.89 269.101 547.895V548.597H260.791V547.166H267.417C267.417 546.557 267.295 546.015 267.052 545.537C266.813 545.06 266.471 544.684 266.027 544.407C265.587 544.131 265.068 543.993 264.469 543.993C263.809 543.993 263.238 544.157 262.756 544.485C262.279 544.808 261.912 545.229 261.655 545.748C261.397 546.267 261.269 546.824 261.269 547.418V548.373C261.269 549.187 261.409 549.877 261.69 550.443C261.975 551.005 262.37 551.433 262.876 551.727C263.381 552.017 263.968 552.163 264.637 552.163C265.072 552.163 265.465 552.102 265.816 551.98C266.172 551.854 266.478 551.667 266.736 551.419C266.993 551.166 267.192 550.852 267.332 550.478L268.932 550.927C268.764 551.47 268.481 551.947 268.083 552.359C267.686 552.766 267.194 553.084 266.609 553.313C266.025 553.538 265.367 553.65 264.637 553.65ZM271.62 553.426V542.646H273.221V544.274H273.333C273.529 543.741 273.885 543.308 274.4 542.976C274.914 542.644 275.494 542.478 276.14 542.478C276.262 542.478 276.414 542.48 276.596 542.485C276.779 542.489 276.917 542.496 277.01 542.506V544.19C276.954 544.176 276.825 544.155 276.624 544.127C276.428 544.094 276.22 544.078 276 544.078C275.476 544.078 275.008 544.188 274.596 544.407C274.189 544.623 273.866 544.922 273.628 545.306C273.394 545.685 273.277 546.118 273.277 546.604V553.426H271.62Z" fill="white"/>
<path d="M158.035 407.587C157.386 407.587 156.817 407.433 156.327 407.124C155.84 406.815 155.46 406.383 155.185 405.828C154.914 405.273 154.778 404.624 154.778 403.882C154.778 403.133 154.914 402.48 155.185 401.921C155.46 401.363 155.84 400.929 156.327 400.621C156.817 400.312 157.386 400.157 158.035 400.157C158.683 400.157 159.251 400.312 159.738 400.621C160.227 400.929 160.608 401.363 160.879 401.921C161.154 402.48 161.291 403.133 161.291 403.882C161.291 404.624 161.154 405.273 160.879 405.828C160.608 406.383 160.227 406.815 159.738 407.124C159.251 407.433 158.683 407.587 158.035 407.587ZM158.035 406.595C158.527 406.595 158.933 406.469 159.251 406.216C159.569 405.964 159.805 405.632 159.958 405.22C160.11 404.808 160.187 404.362 160.187 403.882C160.187 403.401 160.11 402.954 159.958 402.539C159.805 402.124 159.569 401.789 159.251 401.533C158.933 401.277 158.527 401.149 158.035 401.149C157.542 401.149 157.136 401.277 156.818 401.533C156.5 401.789 156.265 402.124 156.112 402.539C155.959 402.954 155.882 403.401 155.882 403.882C155.882 404.362 155.959 404.808 156.112 405.22C156.265 405.632 156.5 405.964 156.818 406.216C157.136 406.469 157.542 406.595 158.035 406.595ZM162.977 407.438V400.251H164.043V401.336H164.118C164.249 400.981 164.486 400.692 164.829 400.471C165.172 400.249 165.559 400.139 165.99 400.139C166.071 400.139 166.172 400.14 166.294 400.143C166.415 400.146 166.507 400.151 166.57 400.157V401.28C166.532 401.271 166.447 401.257 166.313 401.238C166.182 401.216 166.043 401.205 165.896 401.205C165.547 401.205 165.235 401.279 164.96 401.425C164.689 401.569 164.474 401.768 164.315 402.024C164.159 402.277 164.081 402.565 164.081 402.89V407.438H162.977Z" fill="#727272"/>
<line x1="18.9426" y1="401.438" x2="125.992" y2="402.249" stroke="#727272" stroke-width="0.82346"/>
<line x1="195.163" y1="401.438" x2="302.213" y2="402.249" stroke="#727272" stroke-width="0.82346"/>
<path d="M278.84 26.6242L277.59 25.2828C278.176 24.6693 278.863 24.1833 279.652 23.8248C280.441 23.4662 281.291 23.2867 282.203 23.2863C283.116 23.2863 283.967 23.4683 284.756 23.8322C285.545 24.1962 286.232 24.6901 286.816 25.314L285.566 26.6242C285.13 26.1666 284.624 25.8079 284.049 25.5479C283.473 25.288 282.858 25.158 282.203 25.158C281.549 25.158 280.934 25.288 280.358 25.5479C279.783 25.8079 279.277 26.1666 278.84 26.6242ZM276.311 23.9726L275.061 22.6624C275.973 21.685 277.04 20.9207 278.26 20.3696C279.48 19.8185 280.795 19.543 282.203 19.543C283.612 19.543 284.927 19.8185 286.147 20.3696C287.367 20.9207 288.434 21.685 289.346 22.6624L288.096 23.9726C287.332 23.172 286.447 22.5454 285.44 22.0928C284.433 21.6403 283.354 21.4142 282.203 21.4147C281.053 21.4147 279.974 21.6409 278.966 22.0934C277.959 22.546 277.074 23.1724 276.311 23.9726ZM282.203 30.1492L284.302 27.9343C284.034 27.6536 283.721 27.4325 283.364 27.2711C283.007 27.1098 282.62 27.0293 282.203 27.0297C281.787 27.0297 281.4 27.1104 281.043 27.2718C280.686 27.4331 280.373 27.654 280.105 27.9343L282.203 30.1492Z" fill="black"/>
<path d="M295.597 21.2232C295.597 20.9978 295.674 20.8088 295.828 20.656C295.982 20.5033 296.173 20.4272 296.4 20.4277L309.257 20.4277C309.485 20.4277 309.676 20.5041 309.83 20.6568C309.984 20.8096 310.061 20.9984 310.061 21.2232L310.061 22.8141L311.668 22.8141L311.668 25.996L310.061 25.996L310.061 27.5869C310.061 27.8123 309.984 28.0014 309.829 28.1541C309.675 28.3068 309.484 28.3829 309.257 28.3824L296.4 28.3824C296.172 28.3824 295.981 28.306 295.827 28.1533C295.673 28.0006 295.596 27.8118 295.597 27.5869L295.597 21.2232ZM306.847 22.0187L306.847 26.7915L308.454 26.7915L308.454 22.0187L306.847 22.0187Z" fill="black"/>
<path d="M10.5624 29.7051V28.4278L13.5469 25.6644C13.8007 25.4188 14.0136 25.1977 14.1855 25.0012C14.3602 24.8047 14.4925 24.6123 14.5826 24.4239C14.6727 24.2329 14.7177 24.0268 14.7177 23.8058C14.7177 23.5601 14.6618 23.3486 14.5499 23.1712C14.438 22.9911 14.2851 22.8532 14.0913 22.7577C13.8976 22.6595 13.6779 22.6103 13.4322 22.6103C13.1757 22.6103 12.9519 22.6622 12.7608 22.7659C12.5698 22.8696 12.4224 23.0184 12.3187 23.2121C12.215 23.4059 12.1631 23.6365 12.1631 23.904H10.4805C10.4805 23.3554 10.6047 22.8792 10.8531 22.4752C11.1014 22.0713 11.4494 21.7588 11.897 21.5377C12.3446 21.3167 12.8604 21.2061 13.4445 21.2061C14.0449 21.2061 14.5676 21.3126 15.0125 21.5255C15.4601 21.7356 15.8081 22.0276 16.0564 22.4016C16.3048 22.7755 16.429 23.204 16.429 23.687C16.429 24.0036 16.3662 24.3161 16.2406 24.6245C16.1178 24.9329 15.8981 25.2755 15.5815 25.6521C15.2649 26.026 14.8187 26.475 14.2428 26.999L13.0187 28.1985V28.2558H16.5395V29.7051H10.5624ZM21.1114 29.8893C20.4072 29.8866 19.8013 29.7133 19.2937 29.3694C18.7888 29.0255 18.3998 28.5274 18.1269 27.8751C17.8567 27.2228 17.723 26.4381 17.7257 25.5211C17.7257 24.6068 17.8608 23.8276 18.131 23.1835C18.4039 22.5394 18.7929 22.0495 19.2978 21.7138C19.8054 21.3753 20.4099 21.2061 21.1114 21.2061C21.8128 21.2061 22.416 21.3753 22.9209 21.7138C23.4285 22.0522 23.8188 22.5435 24.0917 23.1876C24.3647 23.829 24.4998 24.6068 24.497 25.5211C24.497 26.4409 24.3606 27.2269 24.0876 27.8792C23.8174 28.5315 23.4299 29.0296 22.925 29.3735C22.4201 29.7174 21.8155 29.8893 21.1114 29.8893ZM21.1114 28.4196C21.5917 28.4196 21.9752 28.1781 22.2618 27.695C22.5483 27.2119 22.6903 26.4873 22.6875 25.5211C22.6875 24.8852 22.622 24.3557 22.491 23.9327C22.3627 23.5096 22.1799 23.1917 21.9424 22.9788C21.7077 22.7659 21.4307 22.6595 21.1114 22.6595C20.6337 22.6595 20.2517 22.8983 19.9651 23.3759C19.6785 23.8535 19.5339 24.5686 19.5311 25.5211C19.5311 26.1652 19.5953 26.7029 19.7235 27.1341C19.8545 27.5626 20.0388 27.8847 20.2762 28.1003C20.5137 28.3132 20.792 28.4196 21.1114 28.4196ZM26.7968 28.7307C26.5266 28.7307 26.2946 28.6352 26.1008 28.4442C25.9098 28.2531 25.8142 28.0211 25.8142 27.7482C25.8142 27.4807 25.9098 27.2515 26.1008 27.0604C26.2946 26.8694 26.5266 26.7738 26.7968 26.7738C27.0588 26.7738 27.2881 26.8694 27.4846 27.0604C27.6811 27.2515 27.7793 27.4807 27.7793 27.7482C27.7793 27.9283 27.7329 28.0934 27.6401 28.2436C27.5501 28.3909 27.4313 28.5097 27.284 28.5997C27.1366 28.6871 26.9742 28.7307 26.7968 28.7307ZM26.7968 24.6164C26.5266 24.6164 26.2946 24.5208 26.1008 24.3298C25.9098 24.1387 25.8142 23.9067 25.8142 23.6338C25.8142 23.3663 25.9098 23.1385 26.1008 22.9501C26.2946 22.7591 26.5266 22.6636 26.7968 22.6636C27.0588 22.6636 27.2881 22.7591 27.4846 22.9501C27.6811 23.1385 27.7793 23.3663 27.7793 23.6338C27.7793 23.8167 27.7329 23.9832 27.6401 24.1333C27.5501 24.2807 27.4313 24.398 27.284 24.4853C27.1366 24.5727 26.9742 24.6164 26.7968 24.6164ZM29.1948 29.7051V28.4278L32.1792 25.6644C32.4331 25.4188 32.6459 25.1977 32.8179 25.0012C32.9926 24.8047 33.1249 24.6123 33.215 24.4239C33.3051 24.2329 33.3501 24.0268 33.3501 23.8058C33.3501 23.5601 33.2941 23.3486 33.1822 23.1712C33.0703 22.9911 32.9175 22.8532 32.7237 22.7577C32.53 22.6595 32.3102 22.6103 32.0646 22.6103C31.8081 22.6103 31.5843 22.6622 31.3932 22.7659C31.2022 22.8696 31.0548 23.0184 30.9511 23.2121C30.8474 23.4059 30.7955 23.6365 30.7955 23.904H29.1129C29.1129 23.3554 29.2371 22.8792 29.4855 22.4752C29.7338 22.0713 30.0818 21.7588 30.5294 21.5377C30.977 21.3167 31.4928 21.2061 32.0769 21.2061C32.6773 21.2061 33.2 21.3126 33.6449 21.5255C34.0925 21.7356 34.4404 22.0276 34.6888 22.4016C34.9372 22.7755 35.0614 23.204 35.0614 23.687C35.0614 24.0036 34.9986 24.3161 34.873 24.6245C34.7502 24.9329 34.5305 25.2755 34.2139 25.6521C33.8973 26.026 33.4511 26.475 32.8752 26.999L31.6511 28.1985V28.2558H35.1719V29.7051H29.1948ZM39.5554 29.8197C38.9441 29.8197 38.3996 29.7146 37.922 29.5045C37.4471 29.2916 37.0718 28.9996 36.7961 28.6284C36.5232 28.2545 36.3827 27.8232 36.3745 27.3347H38.1594C38.1703 27.5394 38.2372 27.7195 38.36 27.8751C38.4856 28.0279 38.652 28.1467 38.8595 28.2313C39.0669 28.3159 39.3002 28.3582 39.5595 28.3582C39.8297 28.3582 40.0685 28.3104 40.276 28.2149C40.4834 28.1194 40.6458 27.987 40.7631 27.8178C40.8805 27.6486 40.9392 27.4534 40.9392 27.2324C40.9392 27.0086 40.8764 26.8107 40.7509 26.6387C40.628 26.4641 40.4506 26.3276 40.2186 26.2294C39.9894 26.1311 39.7165 26.082 39.3999 26.082H38.6179V24.7801H39.3999C39.6673 24.7801 39.9034 24.7337 40.1081 24.6409C40.3155 24.5481 40.4766 24.4198 40.5912 24.2561C40.7058 24.0896 40.7631 23.8958 40.7631 23.6748C40.7631 23.4646 40.7126 23.2804 40.6117 23.1221C40.5134 22.9611 40.3742 22.8355 40.1941 22.7454C40.0167 22.6554 39.8093 22.6103 39.5718 22.6103C39.3316 22.6103 39.1119 22.654 38.9127 22.7413C38.7135 22.826 38.5538 22.9474 38.4337 23.1057C38.3136 23.264 38.2495 23.4496 38.2413 23.6625H36.5423C36.5505 23.1794 36.6883 22.7536 36.9558 22.3852C37.2233 22.0167 37.5835 21.7288 38.0366 21.5214C38.4924 21.3112 39.0069 21.2061 39.58 21.2061C40.1586 21.2061 40.6649 21.3112 41.0988 21.5214C41.5328 21.7315 41.8699 22.0154 42.11 22.3729C42.3529 22.7277 42.473 23.1262 42.4703 23.5683C42.473 24.0377 42.327 24.4294 42.0322 24.7433C41.7402 25.0571 41.3595 25.2564 40.89 25.341V25.4065C41.5069 25.4856 41.9763 25.6999 42.2984 26.0492C42.6231 26.3958 42.7842 26.8298 42.7814 27.3511C42.7842 27.8287 42.6463 28.2531 42.3679 28.6243C42.0923 28.9955 41.7116 29.2875 41.2257 29.5004C40.7399 29.7133 40.1832 29.8197 39.5554 29.8197Z" fill="black"/>
<line x1="255.968" y1="28.9152" x2="255.968" y2="27.8502" stroke="black" stroke-width="2.47038" stroke-linecap="round"/>
<line x1="260.431" y1="28.9152" x2="260.431" y2="26.9663" stroke="black" stroke-width="2.47038" stroke-linecap="round"/>
<line x1="264.896" y1="28.9152" x2="264.896" y2="24.3148" stroke="#414141" stroke-width="2.47038" stroke-linecap="round"/>
<line x1="269.361" y1="28.9152" x2="269.361" y2="21.6632" stroke="#414141" stroke-width="2.47038" stroke-linecap="round"/>
<defs>
<clipPath id="clip0_1154_4492">
<rect width="116.613" height="25.4784" fill="white" transform="translate(102.111 150.691)"/>
</clipPath>
</defs>
</svg>
