<svg width="291" height="231" viewBox="0 0 291 231" fill="none" xmlns="http://www.w3.org/2000/svg">
<path d="M10.238 195.196C9.89929 195.153 9.61749 195 9.39259 194.735C9.19151 194.452 9.11215 194.141 9.15451 193.802L12.1012 170.242L14.5779 170.552L11.6312 194.112C11.5889 194.451 11.4354 194.733 11.1707 194.957C10.9088 195.161 10.5978 195.241 10.238 195.196ZM4.29389 171.555C3.9552 171.513 3.69325 171.372 3.50804 171.134C3.32283 170.896 3.25008 170.618 3.28979 170.301C3.33216 169.962 3.47242 169.7 3.71057 169.515C3.94873 169.33 4.23716 169.258 4.57586 169.301L22.1351 171.497C22.4737 171.539 22.7357 171.679 22.9209 171.918C23.1061 172.156 23.1775 172.444 23.1352 172.783C23.0955 173.1 22.9565 173.352 22.7184 173.537C22.4802 173.722 22.1918 173.794 21.8531 173.751L4.29389 171.555ZM25.1744 197.064C24.8145 197.019 24.5327 196.865 24.329 196.603C24.1252 196.341 24.0459 196.03 24.0909 195.67L26.8827 173.348C26.9277 172.988 27.0812 172.707 27.3432 172.503C27.6052 172.299 27.9161 172.22 28.276 172.265C28.6358 172.31 28.9176 172.463 29.1213 172.725C29.3251 172.987 29.4044 173.298 29.3594 173.658L28.1204 183.565L43.6157 185.503L44.8547 175.596C44.8997 175.236 45.0532 174.954 45.3152 174.751C45.5772 174.547 45.8881 174.468 46.2479 174.513C46.6078 174.558 46.8896 174.711 47.0933 174.973C47.2971 175.235 47.3764 175.546 47.3314 175.906L44.5396 198.228C44.4946 198.588 44.3411 198.87 44.0791 199.073C43.8171 199.277 43.5062 199.356 43.1463 199.311C42.7865 199.266 42.5047 199.113 42.301 198.851C42.0972 198.589 42.0179 198.278 42.0629 197.918L43.3377 187.726L27.8424 185.788L26.5676 195.98C26.5226 196.34 26.3691 196.622 26.1071 196.826C25.8451 197.029 25.5342 197.109 25.1744 197.064ZM52.0649 200.427C51.705 200.382 51.4232 200.228 51.2195 199.966C51.0157 199.704 50.9364 199.393 50.9814 199.034L53.7732 176.711C53.8182 176.352 53.9717 176.07 54.2337 175.866C54.4957 175.662 54.8066 175.583 55.1665 175.628L70.0584 177.491C70.3971 177.533 70.6683 177.685 70.8721 177.947C71.0996 178.191 71.1909 178.492 71.1459 178.852C71.1062 179.17 70.9447 179.429 70.6616 179.63C70.3996 179.834 70.0993 179.914 69.7606 179.872L56.107 178.164L55.0109 186.928L64.9494 188.171C65.3093 188.216 65.5911 188.37 65.7948 188.632C65.9986 188.894 66.0793 189.194 66.0369 189.533C65.9945 189.871 65.8424 190.142 65.5804 190.346C65.3184 190.55 65.0075 190.629 64.6476 190.584L54.7091 189.341L53.6011 198.2L67.2547 199.908C67.5934 199.95 67.8646 200.102 68.0683 200.364C68.2932 200.629 68.3858 200.92 68.3461 201.238C68.3011 201.598 68.137 201.878 67.8539 202.079C67.5945 202.262 67.2955 202.332 66.9568 202.289L52.0649 200.427ZM93.4179 205.921C91.7033 205.707 90.1355 205.178 88.7146 204.333C87.3149 203.492 86.1163 202.417 85.1188 201.11C84.1452 199.784 83.4361 198.32 82.9917 196.716C82.5499 195.092 82.4389 193.401 82.6586 191.644C82.8757 189.908 83.3865 188.316 84.191 186.869C85.0194 185.403 86.0673 184.158 87.3348 183.134C88.6236 182.113 90.0498 181.367 91.6137 180.896C93.2014 180.407 94.8631 180.27 96.5989 180.488C98.1231 180.678 99.4818 181.074 100.675 181.675C101.868 182.275 102.986 183.135 104.029 184.255C104.201 184.427 104.284 184.62 104.279 184.834C104.297 185.03 104.252 185.218 104.144 185.398C104.038 185.557 103.895 185.668 103.715 185.731C103.652 185.895 103.53 186.009 103.35 186.073C103.17 186.136 102.965 186.143 102.735 186.092C102.526 186.045 102.326 185.923 102.135 185.727C101.4 184.904 100.566 184.262 99.6351 183.802C98.7063 183.32 97.5963 182.999 96.3051 182.837C94.9291 182.665 93.6034 182.779 92.328 183.178C91.0737 183.58 89.9319 184.201 88.9025 185.04C87.8731 185.878 87.0157 186.889 86.3303 188.072C85.6661 189.257 85.2466 190.548 85.0718 191.946C84.8918 193.385 84.9777 194.761 85.3295 196.073C85.7025 197.389 86.2846 198.579 87.0757 199.646C87.8668 200.712 88.8207 201.595 89.9373 202.293C91.0777 202.973 92.3358 203.4 93.7118 203.572C94.8761 203.717 96.0006 203.664 97.0855 203.413C98.1705 203.162 99.2236 202.735 100.245 202.131C100.526 201.951 100.801 201.9 101.071 201.977C101.362 202.056 101.6 202.215 101.785 202.453C101.97 202.691 102.042 202.98 101.999 203.318C101.978 203.488 101.927 203.642 101.844 203.783C101.786 203.904 101.684 204.031 101.539 204.164C100.335 205.023 99.0395 205.582 97.653 205.838C96.269 206.074 94.8574 206.101 93.4179 205.921ZM108.023 207.425C107.663 207.38 107.381 207.227 107.177 206.965C106.974 206.703 106.894 206.392 106.939 206.032L109.731 183.71C109.776 183.35 109.93 183.068 110.191 182.865C110.453 182.661 110.764 182.582 111.124 182.627C111.484 182.672 111.766 182.825 111.97 183.087C112.173 183.349 112.253 183.66 112.208 184.02L110.969 193.927L126.464 195.865L127.703 185.958C127.748 185.598 127.901 185.316 128.163 185.113C128.425 184.909 128.736 184.829 129.096 184.874C129.456 184.919 129.738 185.073 129.942 185.335C130.145 185.597 130.225 185.908 130.18 186.268L127.388 208.59C127.343 208.95 127.189 209.231 126.927 209.435C126.665 209.639 126.354 209.718 125.995 209.673C125.635 209.628 125.353 209.475 125.149 209.213C124.946 208.951 124.866 208.64 124.911 208.28L126.186 198.087L110.691 196.149L109.416 206.342C109.371 206.702 109.217 206.984 108.955 207.187C108.693 207.391 108.383 207.47 108.023 207.425ZM132.309 210.463C131.823 210.402 131.498 210.157 131.337 209.729C131.176 209.3 131.203 208.906 131.42 208.546L143.528 187.55C143.832 187.008 144.27 186.772 144.842 186.844C145.392 186.913 145.748 187.247 145.909 187.848L152.5 211.215C152.64 211.641 152.56 212.028 152.258 212.378C151.978 212.729 151.615 212.878 151.17 212.822C150.916 212.79 150.692 212.698 150.496 212.544C150.321 212.393 150.186 212.183 150.091 211.913L144.008 189.642L144.992 189.765L133.548 209.844C133.41 210.085 133.228 210.255 133 210.356C132.794 210.459 132.563 210.495 132.309 210.463ZM135.144 204.819L136.362 202.811L149.254 204.423L149.94 206.67L135.144 204.819ZM157.338 213.593C157 213.551 156.718 213.398 156.493 213.133C156.289 212.871 156.21 212.56 156.255 212.2L159.047 189.878C159.089 189.539 159.241 189.268 159.503 189.064C159.789 188.842 160.101 188.752 160.44 188.795C160.779 188.837 161.049 189 161.25 189.283C161.475 189.548 161.566 189.849 161.523 190.188L158.871 211.399L171.286 212.951C171.625 212.994 171.896 213.146 172.1 213.408C172.327 213.651 172.42 213.942 172.377 214.281C172.335 214.62 172.172 214.89 171.889 215.091C171.63 215.273 171.331 215.343 170.992 215.301L157.338 213.593ZM177.531 216.119C177.192 216.077 176.911 215.923 176.686 215.658C176.482 215.396 176.403 215.086 176.448 214.726L179.239 192.404C179.282 192.065 179.434 191.794 179.696 191.59C179.982 191.368 180.294 191.278 180.633 191.32C180.971 191.363 181.241 191.525 181.442 191.808C181.667 192.073 181.759 192.375 181.716 192.713L179.063 213.924L191.479 215.477C191.817 215.519 192.089 215.671 192.292 215.933C192.52 216.177 192.612 216.468 192.57 216.807C192.528 217.145 192.365 217.415 192.082 217.616C191.822 217.799 191.523 217.869 191.185 217.827L177.531 216.119ZM197.724 218.644C197.364 218.599 197.082 218.446 196.878 218.184C196.675 217.922 196.595 217.611 196.64 217.251L199.432 194.929C199.477 194.569 199.631 194.287 199.893 194.084C200.155 193.88 200.466 193.801 200.825 193.846L215.717 195.708C216.056 195.751 216.327 195.903 216.531 196.165C216.759 196.408 216.85 196.71 216.805 197.07C216.765 197.387 216.604 197.647 216.321 197.848C216.059 198.051 215.758 198.132 215.42 198.09L201.766 196.382L200.67 205.146L210.608 206.389C210.968 206.434 211.25 206.587 211.454 206.849C211.657 207.111 211.738 207.412 211.696 207.75C211.653 208.089 211.501 208.36 211.239 208.564C210.977 208.768 210.666 208.847 210.307 208.802L200.368 207.559L199.26 216.418L212.914 218.126C213.252 218.168 213.524 218.32 213.727 218.582C213.952 218.847 214.045 219.138 214.005 219.455C213.96 219.815 213.796 220.096 213.513 220.297C213.253 220.479 212.954 220.549 212.616 220.507L197.724 218.644ZM219.808 221.407C219.448 221.362 219.166 221.208 218.963 220.946C218.759 220.684 218.68 220.373 218.725 220.013L221.516 197.691C221.561 197.331 221.715 197.05 221.977 196.846C222.239 196.642 222.55 196.563 222.91 196.608C223.291 196.655 223.59 196.843 223.807 197.171L236.49 219.01L238.885 199.864C238.93 199.504 239.084 199.222 239.346 199.018C239.607 198.814 239.918 198.735 240.278 198.78C240.617 198.822 240.888 198.975 241.092 199.237C241.317 199.501 241.407 199.813 241.362 200.173L238.57 222.495C238.525 222.855 238.361 223.136 238.078 223.337C237.816 223.541 237.515 223.621 237.177 223.579C237.007 223.558 236.842 223.505 236.681 223.42C236.519 223.335 236.395 223.212 236.307 223.051L223.592 201.208L221.201 220.323C221.156 220.683 220.992 220.963 220.709 221.164C220.447 221.368 220.147 221.449 219.808 221.407ZM255.976 226.253C254.262 226.038 252.694 225.509 251.273 224.665C249.873 223.823 248.675 222.749 247.677 221.441C246.704 220.116 245.995 218.651 245.55 217.048C245.108 215.423 244.997 213.732 245.217 211.975C245.434 210.239 245.945 208.648 246.75 207.2C247.578 205.734 248.626 204.489 249.893 203.466C251.182 202.444 252.608 201.698 254.172 201.227C255.76 200.738 257.422 200.602 259.157 200.819C260.682 201.009 262.04 201.405 263.234 202.006C264.427 202.607 265.545 203.467 266.587 204.586C266.759 204.758 266.843 204.951 266.837 205.165C266.856 205.361 266.811 205.549 266.702 205.729C266.597 205.888 266.454 205.999 266.274 206.062C266.21 206.227 266.088 206.34 265.909 206.404C265.729 206.467 265.524 206.474 265.293 206.424C265.084 206.376 264.885 206.254 264.694 206.058C263.958 205.235 263.125 204.594 262.194 204.133C261.265 203.652 260.155 203.33 258.864 203.168C257.488 202.996 256.162 203.11 254.887 203.51C253.632 203.912 252.49 204.532 251.461 205.371C250.432 206.21 249.574 207.22 248.889 208.403C248.225 209.588 247.805 210.88 247.63 212.277C247.45 213.716 247.536 215.092 247.888 216.405C248.261 217.72 248.843 218.911 249.634 219.977C250.425 221.043 251.379 221.926 252.496 222.625C253.636 223.305 254.894 223.731 256.27 223.903C257.435 224.049 258.559 223.996 259.644 223.744C260.729 223.493 261.782 223.066 262.804 222.463C263.084 222.283 263.359 222.231 263.629 222.308C263.92 222.387 264.158 222.546 264.344 222.784C264.529 223.022 264.6 223.311 264.558 223.649C264.537 223.819 264.496 223.975 264.435 224.118C264.377 224.24 264.264 224.365 264.097 224.495C262.893 225.355 261.598 225.913 260.211 226.17C258.828 226.405 257.416 226.433 255.976 226.253ZM264.558 223.649L262.208 222.84L263.006 216.457L258.053 215.838C257.693 215.793 257.41 215.65 257.204 215.409C256.997 215.168 256.914 214.889 256.954 214.572C256.993 214.254 257.142 214.015 257.398 213.853C257.658 213.671 257.967 213.602 258.327 213.647L264.455 214.413C264.815 214.458 265.097 214.612 265.301 214.874C265.507 215.115 265.588 215.415 265.543 215.775L264.558 223.649ZM270.581 227.757C270.221 227.712 269.94 227.558 269.736 227.296C269.532 227.034 269.453 226.723 269.498 226.364L272.29 204.041C272.335 203.682 272.488 203.4 272.75 203.196C273.012 202.992 273.323 202.913 273.683 202.958L288.575 204.82C288.913 204.863 289.185 205.015 289.388 205.277C289.616 205.52 289.707 205.822 289.662 206.182C289.622 206.5 289.461 206.759 289.178 206.96C288.916 207.164 288.616 207.244 288.277 207.202L274.623 205.494L273.527 214.258L283.466 215.501C283.826 215.546 284.107 215.7 284.311 215.961C284.515 216.223 284.596 216.524 284.553 216.863C284.511 217.201 284.359 217.472 284.097 217.676C283.835 217.88 283.524 217.959 283.164 217.914L273.225 216.671L272.117 225.53L285.771 227.238C286.11 227.28 286.381 227.432 286.585 227.694C286.81 227.959 286.902 228.25 286.862 228.568C286.817 228.927 286.653 229.208 286.37 229.409C286.111 229.592 285.812 229.662 285.473 229.619L270.581 227.757Z" fill="#212121"/>
<path d="M112.501 165.459C106.638 153.701 104.634 140.168 106.393 127.168C108.174 114.096 113.62 101.622 122.508 91.8094C131.111 82.3136 142.683 75.6452 155.043 72.4027C161.225 70.7744 167.665 70.0213 174.062 70.206C180.506 70.3897 187.086 71.4888 193.111 73.8182C199.316 76.2193 205.302 80.1736 208.332 86.3094C211.516 92.8048 212.251 100.502 210.997 107.579C209.717 114.741 206.786 121.795 202.094 127.395C200.011 129.88 197.65 132.153 194.785 133.693C192.237 135.066 189.383 135.97 186.519 136.403C181.15 137.224 174.67 136.655 170.791 132.391C168.794 130.194 167.717 127.146 166.927 124.327C166.015 121.049 165.514 117.604 165.542 114.214C165.57 110.87 166.341 107.494 167.13 104.263C168.015 100.672 169.141 97.1566 170.495 93.712C173.213 86.8415 176.794 80.3023 181.163 74.3361C185.426 68.5085 190.435 62.991 196.196 58.6122C201.738 54.3836 208.072 51.3681 214.747 49.4099C229.594 45.0403 245.313 46.1806 260.321 49.0485C264.206 49.7911 268.055 50.6474 271.901 51.565C272.686 51.7473 273.105 52.7041 272.879 53.4289C272.627 54.2389 271.8 54.5894 271.015 54.4072C256.253 50.8988 240.849 48.0482 225.655 50.1271C219.157 51.0179 212.756 52.7494 206.837 55.5825C200.77 58.4938 195.582 62.5836 190.903 67.393C181.116 77.4395 173.955 90.1129 170.357 103.662C169.529 106.772 168.717 110.027 168.555 113.25C168.408 116.323 168.799 119.422 169.507 122.402C170.133 124.998 171.04 128.04 172.718 130.06C174.189 131.844 176.242 132.811 178.522 133.349C183.525 134.503 189.364 133.376 193.82 130.835C196.376 129.387 198.573 127.14 200.391 124.807C202.521 122.072 204.25 119.025 205.543 115.826C208.107 109.5 209.293 102.589 208.181 95.8035C207.655 92.5372 206.686 89.242 204.987 86.3895C203.448 83.8211 201.236 81.7132 198.765 80.0388C193.626 76.5668 187.423 74.7588 181.332 73.8431C175.345 72.9442 169.205 72.9334 163.196 73.805C151.249 75.5235 139.751 80.5003 130.498 88.2811C120.972 96.2886 114.307 107.121 111.055 119.11C107.816 131.057 108.004 143.915 111.748 155.714C112.662 158.587 113.804 161.375 115.147 164.07C115.982 165.795 113.354 167.174 112.501 165.459Z" fill="#212121"/>
<path d="M268.667 39.6282C268.666 39.8307 268.684 40.0234 268.697 40.2303C268.69 40.1033 268.669 39.9719 268.661 39.8449C268.805 41.1838 269.245 42.4745 269.661 43.7422C270.087 45.0755 270.532 46.3991 270.992 47.727C271.256 48.4798 271.535 49.237 271.813 49.9941C271.773 49.8725 271.729 49.7651 271.674 49.6391C271.993 50.5179 272.363 51.3815 272.663 52.2701C273.042 53.3549 272.761 54.608 271.834 55.3325C271.175 55.8445 270.386 56.1755 269.65 56.5854C268.975 56.9518 268.309 57.3368 267.668 57.745C266.933 58.202 266.208 58.6776 265.511 59.1621C265.613 59.0848 265.711 59.0217 265.827 58.9488C263.914 60.2858 262.126 61.7711 260.449 63.4001C259.978 63.8614 259.502 64.3368 259.037 64.8309C258.797 65.0993 258.334 65.2355 257.98 65.2189C257.608 65.2121 257.167 65.0278 256.93 64.7358C256.694 64.4439 256.512 64.0756 256.542 63.6795C256.577 63.2693 256.744 62.9317 257.025 62.6296C259.958 59.5211 263.333 56.8465 267 54.6839C267.498 54.3869 268.006 54.1086 268.513 53.8302C269.017 53.5661 269.558 53.3294 270.032 53.0093C269.93 53.0866 269.832 53.1498 269.716 53.2227C269.837 53.1356 269.943 53.044 270.058 52.924C269.98 53.0244 269.888 53.1205 269.81 53.2209C269.884 53.1347 269.943 53.044 269.988 52.949C269.934 53.0725 269.88 53.1959 269.812 53.3149C269.853 53.2341 269.884 53.1346 269.896 53.0449C269.87 53.1773 269.845 53.3096 269.833 53.4464C269.85 53.3425 269.848 53.2484 269.846 53.1543C269.854 53.2812 269.875 53.4126 269.882 53.5396C269.859 53.3141 269.798 53.1081 269.724 52.8977C269.764 53.0193 269.808 53.1267 269.862 53.2527C268.561 49.7757 267.24 46.3086 266.214 42.7461C265.911 41.7164 265.707 40.6705 265.686 39.5881C265.678 39.2116 265.905 38.7834 266.169 38.5381C266.432 38.2928 266.862 38.1149 267.225 38.1502C268.063 38.1619 268.645 38.7953 268.667 39.6282Z" fill="#212121"/>
</svg>
